<svg xmlns="http://www.w3.org/2000/svg" width="50" height="50" fill="none" xmlns:v="https://vecta.io/nano"><rect width="50" height="50" rx="5.77" fill="#f9f9f9"/><path fill-rule="evenodd" d="M5.769 0A5.77 5.77 0 0 0 0 5.769v38.462A5.77 5.77 0 0 0 5.769 50h38.462A5.77 5.77 0 0 0 50 44.231V5.769A5.77 5.77 0 0 0 44.231 0H5.769zm23.822 18.54l9.98-9.98a.51.51 0 0 0-.487-.85l-23.42 6.122a1.27 1.27 0 0 0-.946 1.298l.353 6.373a1.27 1.27 0 0 0 .37.827l11.437 11.437a1.27 1.27 0 0 0 .827.37l6.373.353a1.27 1.27 0 0 0 1.297-.946l6.122-23.42a.51.51 0 0 0-.849-.488l-.001.001-9.98 9.98c-.099.099-.26.099-.359 0l-.718-.718c-.099-.099-.099-.26 0-.359zm-6.525 6.525c-.099.099-.099.26 0 .359l.718.718c.099.099.26.099.359 0l5.023-5.023c.099-.099.099-.26 0-.359l-.718-.718c-.099-.099-.26-.099-.359 0l-5.023 5.023zm3.806-.871c-.03-.03-.03-.078 0-.108l.144-.143c.03-.03.078-.03.108 0l.789.789c.03.03.03.078 0 .108l-.144.143c-.03.03-.078.03-.108 0l-.789-.789zm2.989-.764c-.02.02-.02.052 0 .072l.593.593c.02.02.052.02.072 0l.593-.593c.02-.02.02-.052 0-.072l-.593-.593c-.02-.02-.052-.02-.072 0l-.593.593zm1.024 1.095c-.02-.02-.02-.052 0-.072l.593-.593c.02-.02.052-.02.072 0l.593.593c.02.02.02.052 0 .072l-.593.593c-.02.02-.052.02-.072 0l-.593-.593zm-2.047-.072c-.02.02-.02.052 0 .072l.593.593c.02.02.052.02.072 0l.593-.593c.02-.02.02-.052 0-.072l-.593-.593c-.02-.02-.052-.02-.072 0l-.593.593zm1.024 1.095c-.02-.02-.02-.052 0-.072l.593-.593c.02-.02.052-.02.072 0l.593.593c.02.02.02.052 0 .072l-.593.593c-.02.02-.052.02-.072 0l-.593-.593zm-2.047-.072c-.02.02-.02.052 0 .072l.593.593c.02.02.052.02.072 0l.593-.593c.02-.02.02-.052 0-.072l-.593-.593c-.02-.02-.052-.02-.072 0l-.593.593zm1.024 1.095c-.02-.02-.02-.052 0-.072l.593-.593c.02-.02.052-.02.072 0l.593.593c.02.02.02.052 0 .072l-.593.593c-.02.02-.052.02-.072 0l-.593-.593zm-2.047-.072c-.02.02-.02.052 0 .072l.593.593c.02.02.052.02.072 0l.593-.593c.02-.02.02-.052 0-.072l-.593-.593c-.02-.02-.052-.02-.072 0l-.593.593zm1.024 1.095c-.02-.02-.02-.052 0-.072l.593-.593c.02-.02.052-.02.072 0l.593.593c.02.02.02.052 0 .072l-.593.593c-.02.02-.052.02-.072 0l-.593-.593zm-2.047-.072c-.02.02-.02.052 0 .072l.593.593c.02.02.052.02.072 0l.593-.593c.02-.02.02-.052 0-.072l-.593-.593c-.02-.02-.052-.02-.072 0l-.593.593zm1.024 1.095c-.02-.02-.02-.052 0-.072l.593-.593c.02-.02.052-.02.072 0l.593.593c.02.02.02.052 0 .072l-.593.593c-.02.02-.052.02-.072 0l-.593-.593zm-1.638-6.254c-.03.03-.078.03-.108 0l-.789-.789c-.03-.03-.03-.078 0-.108l.143-.143c.03-.03.078-.03.108 0l.789.789c.03.03.03.078 0 .108l-.143.143zm.585-2.989c.02.02.052.02.072 0l.593-.593c.02-.02.02-.052 0-.072l-.593-.593c-.02-.02-.052-.02-.072 0l-.593.593c-.02.02-.02.052 0 .072l.593.593zm-.952-1.024c-.02.02-.052.02-.072 0l-.593-.593c-.02-.02-.02-.052 0-.072l.593-.593c.02-.02.052-.02.072 0l.593.593c.02.02.02.052 0 .072l-.593.593zm-.072 2.047c.02.02.052.02.072 0l.593-.593c.02-.02.02-.052 0-.072l-.593-.593c-.02-.02-.052-.02-.072 0l-.593.593c-.02.02-.02.052 0 .072l.593.593zm-.952-1.024c-.02.02-.052.02-.072 0l-.593-.593c-.02-.02-.02-.052 0-.072l.593-.593c.02-.02.052-.02.072 0l.593.593c.02.02.02.052 0 .072l-.593.593zm-.072 2.047c.02.02.052.02.072 0l.593-.593c.02-.02.02-.052 0-.072l-.593-.593c-.02-.02-.052-.02-.072 0l-.593.593c-.02.02-.02.052 0 .072l.593.593zm-.952-1.024c-.02.02-.052.02-.072 0l-.593-.593c-.02-.02-.02-.052 0-.072l.593-.593c.02-.02.052-.02.072 0l.593.593c.02.02.02.052 0 .072l-.593.593zm-.072 2.047c.02.02.052.02.072 0l.593-.593c.02-.02.02-.052 0-.072l-.593-.593c-.02-.02-.052-.02-.072 0l-.593.593c-.02.02-.02.052 0 .072l.593.593zm-.952-1.024c-.02.02-.052.02-.072 0l-.593-.593c-.02-.02-.02-.052 0-.072l.593-.593c.02-.02.052-.02.072 0l.593.593c.02.02.02.052 0 .072l-.593.593zm-.072 2.047c.02.02.052.02.072 0l.593-.593c.02-.02.02-.052 0-.072l-.593-.593c-.02-.02-.052-.02-.072 0l-.593.593c-.02.02-.02.052 0 .072l.593.593zm-.952-1.024c-.02.02-.052.02-.072 0l-.593-.593c-.02-.02-.02-.052 0-.072l.593-.593c.02-.02.052-.02.072 0l.593.593c.02.02.02.052 0 .072l-.593.593zm-8.5-1.442a1.27 1.27 0 0 0-1.794 0l-2.332 2.332a1.27 1.27 0 0 0 0 1.794L24.21 41.279a1.27 1.27 0 0 0 1.794 0l2.332-2.332a1.27 1.27 0 0 0 0-1.794L12.19 21.006z" fill="url(#A)"/><defs><linearGradient id="A" x1="-5.288" y1="-5.769" x2="52.404" y2="52.404" gradientUnits="userSpaceOnUse"><stop stop-color="#fc2c7e"/><stop offset="1" stop-color="#a02cfc"/></linearGradient></defs></svg>