<svg width="23" height="30" viewBox="0 0 23 30" fill="none" xmlns="http://www.w3.org/2000/svg">
<path d="M0.275966 27.4314C0.214822 27.7616 0.0619607 28.7215 0.00693073 29.1923C-0.0358704 29.5409 0.123105 29.7915 0.386026 29.7915C0.538887 29.7915 2.44048 28.9355 2.56277 28.8132C2.6178 28.7582 2.89906 27.6393 2.90518 27.4619C2.90518 27.3825 2.789 27.358 2.18979 27.3213C1.79235 27.2969 1.21759 27.2479 0.905754 27.2051L0.343225 27.1257L0.275966 27.4314Z" fill="#FC2C7E"/>
<path fill-rule="evenodd" clip-rule="evenodd" d="M18.9251 1.48167C19.8973 0.998627 20.2702 0.833536 21.2791 0.472784C22.074 0.179291 22.3675 0.142605 22.5448 0.30158C22.6916 0.429983 22.6854 0.705133 22.5326 1.82408C21.805 6.99078 19.8545 11.5155 16.84 15.0252C16.3264 15.6244 14.8895 17.049 14.3087 17.5382C13.2325 18.4492 11.8201 19.3909 10.536 20.0696L9.72282 20.4976H10.0285C10.481 20.4976 11.5205 20.3447 12.3643 20.1613C12.7984 20.0635 13.1714 20.0084 13.2692 20.0329C13.4526 20.0818 13.5749 20.308 13.526 20.5098C13.4649 20.7422 12.6639 21.696 11.869 22.4848C9.53938 24.7899 6.78789 26.1106 3.64506 26.4286C2.50166 26.5387 1.07699 26.4653 0.783502 26.2696C0.745483 26.2454 0.715279 26.2173 0.69338 26.1804C3.81297 21.4319 10.3922 11.7065 17.4589 6.27057C10.6655 10.1684 4.28123 19.8973 0.655333 26.0605C0.631251 25.8685 0.710151 25.5229 0.911905 24.8266C2.28154 20.1185 4.53166 15.3737 7.02023 11.9374C10.4504 7.20479 14.4065 3.73178 18.9251 1.48167Z" fill="url(#paint0_linear_867_201)"/>
<defs>
<linearGradient id="paint0_linear_867_201" x1="0.727492" y1="29.3066" x2="22.5511" y2="0.208464" gradientUnits="userSpaceOnUse">
<stop stop-color="#FC2C7E"/>
<stop offset="1" stop-color="#A02CFC"/>
</linearGradient>
</defs>
</svg>
