<?xml version="1.0" encoding="UTF-8"?>
<svg id="Layer_2" data-name="Layer 2" xmlns="http://www.w3.org/2000/svg" viewBox="0 0 1344.86 1344.87">
  <defs>
    <style>
      .cls-1 {
        fill: #fff;
      }

      .cls-2 {
        fill: #545454;
      }
    </style>
  </defs>
  <g id="Layer_1-2" data-name="Layer 1">
    <g>
      <circle class="cls-2" cx="672.43" cy="672.44" r="651.65"/>
      <circle class="cls-1" cx="672.43" cy="563.04" r="233.29" transform="translate(-201.18 640.39) rotate(-45)"/>
      <path class="cls-1" d="M1119.65,1155.84c-119.69,104.71-276.49,168.19-448.04,168.19-154.3,0-296.78-51.43-410.93-138.13,43.3-199.44,220.82-348.75,433.28-348.75s371.76,134.44,425.69,318.69Z"/>
      <path class="cls-2" d="M672.43,1344.87C301.65,1344.87,0,1043.22,0,672.44S301.65,0,672.43,0s672.43,301.66,672.43,672.44-301.65,672.43-672.43,672.43Zm0-1303.31C324.57,41.56,41.56,324.57,41.56,672.44s283,630.87,630.87,630.87,630.87-283,630.87-630.87S1020.3,41.56,672.43,41.56Z"/>
    </g>
  </g>
</svg>