<svg width="100" height="100" viewBox="0 0 100 100" fill="none" xmlns="http://www.w3.org/2000/svg">
<path d="M49.9998 98.4549C76.7607 98.4549 98.4546 76.761 98.4546 50.0004C98.4546 23.2397 76.7607 1.54587 49.9998 1.54587C23.2389 1.54587 1.54492 23.2397 1.54492 50.0004C1.54492 76.761 23.2389 98.4549 49.9998 98.4549Z" fill="#545454"/>
<path d="M59.6427 46.5474C65.034 41.1561 65.034 32.4151 59.6427 27.0237C54.2513 21.6324 45.5102 21.6324 40.1188 27.0237C34.7275 32.4151 34.7275 41.1561 40.1188 46.5474C45.5102 51.9387 54.2513 51.9387 59.6427 46.5474Z" fill="white"/>
<path d="M81.8455 79.1667C73.2196 86.4635 61.0264 90.4762 48.663 90.4762C37.5428 90.4762 27.2745 86.8923 19.0479 80.8505C22.1684 66.9524 34.962 56.5476 50.2737 56.5476C65.5854 56.5476 77.9588 66.3271 81.8455 79.1667Z" fill="white"/>
<circle cx="50" cy="50" r="44.5" stroke="#545454" stroke-width="11"/>
</svg>
