<svg xmlns="http://www.w3.org/2000/svg" width="13" height="13" fill="none" xmlns:v="https://vecta.io/nano"><path d="M5.59 7.67L4.193 6.273c-.119-.119-.271-.179-.455-.179s-.336.06-.455.179-.179.271-.179.455.06.336.179.455l1.852 1.853c.13.13.282.195.455.195s.325-.065.455-.195l3.672-3.673c.119-.119.179-.271.179-.455s-.06-.336-.179-.455-.271-.179-.455-.179-.336.06-.455.179L5.59 7.67zM6.5 13c-.899 0-1.744-.171-2.535-.512s-1.479-.805-2.064-1.389A6.56 6.56 0 0 1 .512 9.035 6.34 6.34 0 0 1 0 6.5c0-.899.171-1.744.512-2.535s.804-1.479 1.389-2.064A6.56 6.56 0 0 1 3.965.512 6.34 6.34 0 0 1 6.5 0c.899 0 1.744.171 2.535.512s1.479.804 2.064 1.389 1.048 1.273 1.39 2.064S13 5.601 13 6.5s-.171 1.744-.512 2.535-.805 1.479-1.389 2.064-1.273 1.048-2.064 1.39S7.399 13 6.5 13z" fill="#fc2c7e"/></svg>