<svg width="18" height="18" viewBox="0 0 18 18" fill="none" xmlns="http://www.w3.org/2000/svg">
<path d="M0.950615 0.0410436C0.559807 0.164271 0.281664 0.407206 0.109145 0.766328L0 0.995179V3.00203V5.00889L0.116186 5.24478C0.257018 5.53349 0.535161 5.79755 0.820346 5.91373L1.02103 5.99471L3.9785 6.00527C6.10154 6.01231 6.99583 6.00527 7.14722 5.97711C7.71055 5.86796 8.11192 5.46659 8.22106 4.90326C8.24923 4.75539 8.25627 4.14277 8.24923 2.8612C8.23867 1.04095 8.23867 1.03039 8.15769 0.829702C8.0415 0.544517 7.77744 0.266375 7.48874 0.125543L7.25284 0.00935639L4.17215 0.0023148C1.74984 -0.00472679 1.05976 0.0058356 0.950615 0.0410436Z" fill="black"/>
<path d="M10.7166 0.0412588C10.3434 0.139841 9.98072 0.467275 9.83285 0.829917L9.75187 1.0306L9.74131 5.11473C9.73427 8.06516 9.74131 9.2587 9.76948 9.4101C9.87862 9.97343 10.28 10.3748 10.8433 10.4839C10.9947 10.5121 11.889 10.5192 14.012 10.5121L16.9695 10.5015L17.1702 10.4206C17.4554 10.3044 17.7335 10.0403 17.8744 9.75162L17.9905 9.51572V5.25556V0.995395L17.8814 0.766543C17.7406 0.470796 17.5293 0.259548 17.2406 0.122237L17.0047 0.00957163L13.9416 0.00253004C11.5932 -0.000990757 10.8398 0.00605084 10.7166 0.0412588Z" fill="black"/>
<path d="M1.03864 7.52915C0.644306 7.60661 0.274622 7.90588 0.0950615 8.29316L0 8.49385V12.754V17.0142L0.109145 17.243C0.246456 17.5353 0.464745 17.7535 0.756972 17.8909L0.985823 18H4.11933H7.25284L7.48874 17.8838C7.77744 17.743 8.0415 17.4648 8.15769 17.1797L8.23867 16.979L8.24923 12.8948C8.25627 9.94442 8.24923 8.75087 8.22106 8.59947C8.11544 8.04671 7.72111 7.64534 7.17186 7.52915C6.94653 7.48338 1.28509 7.47986 1.03864 7.52915Z" fill="black"/>
<path d="M10.7736 12.0463C10.2455 12.1766 9.87583 12.5674 9.77021 13.1061C9.74204 13.254 9.735 13.8631 9.74204 15.1482C9.7526 16.9684 9.7526 16.979 9.83358 17.1797C9.94977 17.4648 10.2138 17.743 10.5025 17.8838L10.7384 18H13.8719H17.0054L17.2413 17.8873C17.53 17.75 17.7413 17.5388 17.8821 17.243L17.9913 17.0142V15.0073V13.0005L17.8751 12.7646C17.7343 12.4759 17.4561 12.2118 17.1709 12.0956L16.9702 12.0146L13.96 12.0076C11.675 12.0041 10.9074 12.0111 10.7736 12.0463Z" fill="black"/>
</svg>
