<svg width="21" height="22" viewBox="0 0 21 22" fill="none" xmlns="http://www.w3.org/2000/svg">
<path d="M4.71521 8.95082C5.55021 6.36041 7.92795 4.5 10.7443 4.5C12.2583 4.5 13.6257 5.05 14.7001 5.95L17.8257 2.75C15.9211 1.05 13.4792 0 10.7443 0C6.50938 0 2.86323 2.47344 1.11035 6.09586L4.71521 8.95082Z" fill="#EA4335"/>
<path d="M14.362 16.5115C13.3862 17.1566 12.1463 17.5 10.7441 17.5C7.93855 17.5 5.56823 15.6538 4.72469 13.0789L1.10791 15.8904C2.85861 19.5192 6.50466 22 10.7441 22C13.37 22 15.8793 21.0443 17.7585 19.2496L14.362 16.5115Z" fill="#34A853"/>
<path d="M17.7585 19.2496C19.7237 17.3728 21 14.5784 21 11C21 10.35 20.9023 9.65 20.7558 9H10.7441V13.25H16.5069C16.2226 14.6792 15.4593 15.7861 14.362 16.5115L17.7585 19.2496Z" fill="#4A90E2"/>
<path d="M4.72474 13.0789C4.51106 12.4266 4.39535 11.7276 4.39535 11C4.39535 10.2834 4.50758 9.59458 4.71509 8.95082L1.11022 6.09586C0.390898 7.57206 0 9.23577 0 11C0 12.7596 0.398234 14.4193 1.10796 15.8904L4.72474 13.0789Z" fill="#FBBC05"/>
</svg>
