<svg width="100" height="90" viewBox="0 0 100 90" fill="none" xmlns="http://www.w3.org/2000/svg">
<path d="M71.3867 0.0541992C65.7812 0.640137 61.7773 6.40186 63.1836 11.812C64.3555 16.3042 68.0078 19.1753 72.5586 19.1753C77.3242 19.1753 81.1914 15.894 82.0508 11.1284C82.6758 7.59326 80.918 3.51123 77.9297 1.59717C75.9766 0.347168 73.7305 -0.180176 71.3867 0.0541992ZM74.8437 3.27686C77.0508 4.13623 78.7305 6.14795 79.1406 8.41357C79.668 11.2651 78.1836 14.1948 75.4883 15.6401C74.6289 16.0894 74.2969 16.1479 72.5586 16.1479C70.8203 16.1479 70.4883 16.0894 69.6289 15.6206C64.375 12.8667 64.707 5.50342 70.1758 3.31592C71.2695 2.8667 73.75 2.8667 74.8437 3.27686Z" fill="black"/>
<path d="M25.1758 11.6167C24.707 11.8706 24.0625 12.4565 23.7305 12.9057L23.1445 13.7456L23.0859 33.4135L23.0469 53.101L23.457 53.6089C24.0039 54.3315 25.0195 54.3315 25.5664 53.6284C25.9766 53.101 25.9766 53.0425 25.9766 33.9018C25.9766 16.7143 26.0156 14.6831 26.2891 14.4096C26.5625 14.1362 28.3398 14.0971 42.8711 14.0971C51.8164 14.0971 59.2969 14.0386 59.4727 13.98C59.9414 13.7846 60.3711 12.8081 60.2344 12.2417C59.9609 11.1284 60.7422 11.1675 42.6562 11.1675H26.0352L25.1758 11.6167Z" fill="black"/>
<path d="M2.24609 19.5464C1.30859 19.9761 0.703125 20.6011 0.292969 21.5581C0.0390625 22.2026 0 25.4839 0 50.6206C0 75.7573 0.0390625 79.0386 0.292969 79.6831C0.703125 80.6401 1.30859 81.2651 2.24609 81.6948C2.96875 82.0269 3.67188 82.0659 11.0938 82.0659H19.1602L19.6289 81.5776C20.2539 80.9722 20.2539 80.23 19.6289 79.6245L19.1602 79.1362H11.3477C4.51172 79.1362 3.49609 79.0972 3.24219 78.8237C2.96875 78.5503 2.92969 75.7378 2.92969 50.6987C2.92969 31.8901 2.98828 22.73 3.125 22.4761C3.32031 22.1245 3.63281 22.105 11.25 22.105H19.1602L19.6289 21.6167C20.2148 21.0308 20.2539 20.3667 19.707 19.6831L19.3164 19.1753H11.1719C3.67188 19.1753 2.96875 19.2144 2.24609 19.5464Z" fill="black"/>
<path d="M80.1172 19.6245C79.5508 20.23 79.5703 21.0308 80.1758 21.6167L80.6445 22.105H88.6523C96.3672 22.105 96.6797 22.1245 96.875 22.4761C97.0117 22.73 97.0703 31.8901 97.0703 50.6987C97.0703 75.7378 97.0312 78.5503 96.7578 78.8237C96.5039 79.0972 95.4687 79.1362 88.5547 79.1362H80.6445L80.1758 79.6245C79.5508 80.23 79.5312 81.0698 80.1367 81.6362C80.5859 82.0659 80.6445 82.0659 88.789 82.0659C96.3281 82.0659 97.0312 82.0269 97.7539 81.6948C98.6914 81.2651 99.2969 80.6401 99.707 79.6831C99.9609 79.0386 100 75.7573 100 50.6206C100 25.4839 99.9609 22.2026 99.707 21.5581C99.2969 20.6011 98.6914 19.9761 97.7539 19.5464C97.0312 19.2144 96.3281 19.1753 88.75 19.1753H80.5273L80.1172 19.6245Z" fill="black"/>
<path d="M33.1055 21.695C32.6758 21.8903 32.0899 22.3004 31.7969 22.6129C30.6446 23.8434 30.6641 23.6481 30.6641 35.3278C30.6641 45.3082 30.7031 46.0895 31.0352 46.8317C31.4844 47.8278 32.6172 48.7653 33.711 49.0387C35.0391 49.3707 41.6797 49.3121 42.3633 48.9606C43.2617 48.5114 43.418 47.6715 42.7539 46.8317L42.3633 46.3239H38.3594C34.6289 46.3239 34.3555 46.3043 33.9844 45.9332C33.6133 45.5621 33.5938 45.2887 33.5938 35.2301C33.5938 25.4645 33.6133 24.8786 33.9453 24.5856C34.2774 24.2731 35.6641 24.2536 49.961 24.2536H65.6055L65.8985 24.6832C66.1719 25.0739 66.211 26.402 66.211 35.3278C66.211 45.2887 66.1914 45.5621 65.8203 45.9332C65.4492 46.3043 65.1758 46.3239 56.3867 46.3239H47.3242L46.9141 46.7731C46.3867 47.3395 46.3672 48.0817 46.8555 48.6871L47.2266 49.1559H56.6797C66.0742 49.1559 66.1133 49.1559 66.9336 48.7262C67.8516 48.2379 68.5742 47.3395 68.9258 46.3434C69.0821 45.8746 69.1406 42.4957 69.1406 35.152C69.1406 23.6676 69.1602 23.8434 68.0078 22.6129C67.7149 22.3004 67.1289 21.8903 66.6992 21.695C65.9571 21.3434 65.0781 21.3239 49.9024 21.3239C34.7266 21.3239 33.8477 21.3434 33.1055 21.695Z" fill="#FC2C7E"/>
<path d="M74.3359 22.3198L73.8281 22.7104V54.4487C73.8281 75.9526 73.7695 86.3237 73.6328 86.5776C73.4375 86.9487 72.9492 86.9487 49.9414 86.9487C31.9336 86.9487 26.3867 86.8901 26.2109 86.7144C26.0352 86.5386 25.9766 83.1011 25.9766 72.4565V58.4136L25.4688 57.9058C25.0781 57.5151 24.8633 57.437 24.3555 57.5347C24.0039 57.5933 23.5742 57.8472 23.3984 58.062C23.0664 58.4526 23.0469 59.4292 23.0469 72.6714C23.0469 85.9722 23.0859 86.9097 23.418 87.6323C23.8672 88.6479 25 89.6245 25.918 89.8198C26.3281 89.8979 37.2461 89.9761 50.1953 89.9761C72.7539 89.9761 73.7695 89.9565 74.4531 89.605C75.4102 89.1362 76.2891 88.1206 76.543 87.2026C76.6992 86.6948 76.7578 76.2456 76.7578 54.6636V22.8667L76.2695 22.3979C75.6836 21.812 75.0195 21.7729 74.3359 22.3198Z" fill="black"/>
<path d="M7.67579 27.5737C6.32813 28.394 6.34766 28.2182 6.28907 36.3432C6.23047 44.6636 6.26954 44.9565 7.57813 45.7768C8.28125 46.2065 8.4961 46.2261 13.1836 46.2847C18.5742 46.3628 19.1602 46.3042 19.7266 45.6987C20.2344 45.1518 20.2148 44.5659 19.707 43.9214L19.3164 43.394L14.2969 43.355L9.27735 43.2964L9.21875 36.6948L9.17969 30.1128H14.1602H19.1602L19.6289 29.6245C19.9023 29.3706 20.1172 28.9214 20.1172 28.6479C20.1172 28.3745 19.9023 27.9253 19.6289 27.6714L19.1602 27.1831H13.7305C8.69141 27.1831 8.26172 27.2026 7.67579 27.5737Z" fill="black"/>
<path d="M80.1172 27.6323C79.5508 28.2378 79.5703 29.0386 80.1758 29.6245L80.6445 30.1128H85.5469H90.4297V36.7534V43.394H85.4492C80.7227 43.394 80.4492 43.4136 80.0781 43.7847C79.2383 44.6245 79.8047 45.9917 81.0938 46.2261C81.4453 46.3042 83.9453 46.3237 86.6602 46.2847C92.0703 46.2261 92.0508 46.2261 93.0469 44.8784C93.4375 44.3511 93.457 44.1167 93.457 36.7925C93.457 28.394 93.457 28.3745 92.1289 27.5737C91.543 27.2026 91.1133 27.1831 86.0156 27.1831C80.5469 27.1831 80.5274 27.1831 80.1172 27.6323Z" fill="black"/>
<path d="M10.7617 51.3237C10.2149 52.0073 10.2539 52.6714 10.8399 53.2573C11.3086 53.7456 11.3281 53.7456 15.2344 53.7456C19.1406 53.7456 19.1602 53.7456 19.6289 53.2573C19.9024 53.0034 20.1172 52.5542 20.1172 52.2808C20.1172 52.0073 19.9024 51.5581 19.6289 51.3042C19.1602 50.8159 19.1406 50.8159 15.1563 50.8159H11.1524L10.7617 51.3237Z" fill="black"/>
<path d="M80.1172 51.2651C79.5508 51.8706 79.5703 52.6714 80.1758 53.2573C80.6445 53.7456 80.6445 53.7456 84.7461 53.7456C86.9922 53.7456 88.9844 53.687 89.1602 53.6284C89.6289 53.4331 90.0586 52.4565 89.9219 51.8901C89.668 50.894 89.3359 50.8159 84.7656 50.8159C80.6055 50.8159 80.5273 50.8159 80.1172 51.2651Z" fill="black"/>
<path d="M35.0195 54.5659C34.082 55.0151 34.0234 56.5776 34.9414 57.0464C35.1953 57.2026 40.0586 57.2612 50.0977 57.2612C60.1367 57.2612 65 57.2026 65.2539 57.0464C66.1914 56.5581 66.1133 54.9956 65.1172 54.5464C64.4531 54.2534 35.6445 54.2729 35.0195 54.5659Z" fill="#FC2C7E"/>
<path d="M7.8125 59.7808C6.46484 60.4839 6.34766 60.9526 6.34766 65.5034C6.34766 69.2729 6.36719 69.5659 6.75781 70.0737C7.75391 71.4214 7.71484 71.4214 13.3398 71.48C16.1328 71.519 18.6328 71.4995 18.8867 71.4214C19.5312 71.2651 20.1172 70.6206 20.1172 70.0737C20.1172 69.8198 19.9414 69.3901 19.707 69.1167L19.3164 68.5894L14.2969 68.5503L9.27734 68.4917L9.21875 65.4253L9.16016 62.3589L14.2773 62.3003C19.3555 62.2417 19.375 62.2417 19.7461 61.7729C20.2344 61.187 20.2148 60.562 19.707 59.9175L19.3164 59.4097H13.9062C9.00391 59.4097 8.41797 59.4487 7.8125 59.7808Z" fill="black"/>
<path d="M80.1172 59.8589C79.5508 60.4644 79.5703 61.2651 80.1758 61.8511L80.6445 62.3394H85.5469H90.4297V65.4644V68.5894H85.4492C80.5859 68.5894 80.4687 68.5894 80.0781 69.019C79.5898 69.5464 79.5703 70.3667 80.0586 70.9526L80.4297 71.4214H85.9766C91.4453 71.4214 91.5039 71.4214 92.1484 70.9722C93.3594 70.0933 93.457 69.7026 93.457 65.3667C93.457 61.6558 93.4375 61.4214 93.0078 60.7573C92.2266 59.4683 91.9141 59.4097 85.8984 59.4097C80.5469 59.4097 80.5273 59.4097 80.1172 59.8589Z" fill="black"/>
<path d="M34.7461 62.1245C34.4141 62.3784 34.2969 62.6909 34.2969 63.2183C34.2969 63.7456 34.4141 64.0581 34.7461 64.312C35.1758 64.6636 35.8398 64.6831 50.0977 64.6831C64.3555 64.6831 65.0195 64.6636 65.4492 64.312C66.0742 63.8042 66.0742 62.6323 65.4492 62.1245C65.0195 61.7729 64.3555 61.7534 50.0977 61.7534C35.8398 61.7534 35.1758 61.7729 34.7461 62.1245Z" fill="#FC2C7E"/>
<path d="M35.6445 69.5073C33.8672 70.4448 33.5938 71.1675 33.5938 75.23C33.5938 78.9214 33.8086 79.6636 35.0781 80.6206L35.8008 81.187L43.7695 81.2456C51.5625 81.3042 51.7578 81.2847 52.1484 80.894C52.6367 80.4058 52.6562 79.5073 52.168 78.9214L51.7969 78.4526L44.1992 78.355L36.6211 78.2573L36.5625 75.6206C36.543 74.1753 36.5625 72.7886 36.6211 72.5347L36.7188 72.105H49.7656C59.6484 72.105 62.8711 72.1636 63.0469 72.3394C63.3008 72.5933 63.3984 77.4565 63.1641 78.0425C63.0664 78.3159 62.6172 78.355 60.1367 78.355C57.0312 78.355 56.4258 78.4917 56.0742 79.2729C55.7617 79.937 55.8008 80.1909 56.2695 80.7769L56.6602 81.2847H60.0781C64.0234 81.2847 64.6289 81.1089 65.5664 79.6831L66.1133 78.8628V75.23V71.5972L65.5664 70.7769C65.2734 70.3276 64.6875 69.7808 64.2578 69.5659C63.5156 69.1753 63.1641 69.1753 49.8633 69.1753C37.8125 69.1948 36.1719 69.2339 35.6445 69.5073Z" fill="#FC2C7E"/>
</svg>
