<svg width="100" height="114" viewBox="0 0 100 114" fill="none" xmlns="http://www.w3.org/2000/svg">
<path d="M8.07559 0.28199C4.00443 1.39433 0.912131 4.75359 0.244727 8.78026C0.0667533 9.84811 1.29659e-05 15.9437 0.0445065 29.492L0.111247 48.7132L0.645169 49.1359C1.33482 49.7143 2.26918 49.6698 2.8476 49.0469L3.31478 48.5352L3.38152 28.7579C3.44826 10.1596 3.47051 8.89149 3.8487 7.91264C4.42712 6.4221 6.00664 4.77584 7.51942 4.01945L8.78749 3.39654L29.1878 3.3298L49.5881 3.2853L49.6548 8.42431C49.7215 13.5188 49.7215 13.5633 50.2555 13.986C50.9229 14.5422 51.9462 14.5199 52.5024 13.9638C52.9028 13.5633 52.9473 13.2296 52.9473 9.58114V5.62122L64.6269 17.3008C71.0562 23.7301 76.3064 29.0693 76.3064 29.1583C76.3064 29.2473 71.7681 29.314 66.2509 29.2695C55.2165 29.2028 55.5502 29.2473 54.2599 27.8235C53.192 26.6889 53.0808 26.244 52.9918 22.907C52.9028 19.8369 52.8806 19.7257 52.3467 19.303C51.5903 18.7246 51.1009 18.7468 50.3445 19.392L49.7215 19.9259V23.2407C49.7215 26.3774 49.766 26.5999 50.3445 27.8902C51.1453 29.6032 52.6581 31.0938 54.3934 31.9169L55.7282 32.5398L67.252 32.6065L78.7536 32.6733V49.7588V66.8221L77.4188 66.5996C74.9271 66.1992 72.3688 67.0668 70.6113 68.9578C69.0762 70.604 68.6313 71.7386 68.6313 74.1413C68.6313 76.8776 69.2097 78.1012 71.6346 80.4816C72.6135 81.4382 73.4144 82.2836 73.4144 82.3503C73.4144 82.4171 71.1007 82.4838 68.2976 82.4838H63.1586L62.6247 83.04C61.9128 83.7296 61.9128 84.575 62.6247 85.2647L63.1586 85.8208H70.5C75.5056 85.8208 78.0194 85.7318 78.3976 85.5761C79.1763 85.2202 79.51 84.1746 79.0873 83.4182C78.9316 83.0845 77.4188 81.4605 75.7503 79.8142C73.9705 78.0567 72.5245 76.4327 72.2798 75.921C70.6113 72.3393 74.371 68.5796 77.975 70.2258C78.5756 70.4928 81.7792 73.5406 87.5856 79.2803C96.0393 87.6896 96.3063 87.9565 96.551 89.0689C96.729 89.9142 96.729 90.4704 96.551 91.2935C96.3063 92.3391 95.9059 92.7618 87.5856 101.038C81.7792 106.8 78.5756 109.825 77.975 110.092C74.371 111.738 70.6113 107.979 72.2798 104.397C72.5245 103.885 73.9705 102.261 75.7503 100.504C77.4188 98.8574 78.9316 97.2334 79.0873 96.8997C79.51 96.1433 79.1763 95.0977 78.3976 94.7418C77.9972 94.5638 73.1474 94.4971 61.1119 94.4971H44.3601L43.3812 93.9854C42.8473 93.7184 42.0909 93.1178 41.735 92.6506C41.112 91.8719 41.0453 91.6495 41.0453 90.1589C41.0453 88.6684 41.112 88.4459 41.735 87.6673C42.0909 87.2001 42.8473 86.5995 43.3812 86.3103C44.3378 85.8431 44.5825 85.8208 50.4557 85.8208H56.5291L57.063 85.2647C57.7749 84.575 57.7971 83.6184 57.0852 82.951C56.5736 82.4616 56.5291 82.4616 49.9218 82.5283L43.27 82.595L42.0464 83.1957C40.4446 83.9743 39.0209 85.3981 38.2867 86.9332C37.7973 87.9788 37.7083 88.4682 37.7083 90.1589C37.7083 91.8497 37.7973 92.3391 38.2867 93.3847C39.0209 94.9198 40.4446 96.3435 42.0464 97.1222L43.27 97.7228L58.3533 97.7896C66.6291 97.8118 73.4144 97.9008 73.4144 97.9898C73.4144 98.0566 72.6357 98.8797 71.6569 99.8363C70.5445 100.926 69.6992 102.016 69.2987 102.817L68.6981 104.063H50.0775H31.4347L30.9675 104.575C30.3224 105.265 30.3224 106.288 30.9898 106.911L31.5014 107.4H50.0108C64.6491 107.4 68.5423 107.467 68.6091 107.667C69.7881 111.761 73.0362 114.141 76.9516 113.763C79.7547 113.518 79.9994 113.318 89.699 103.663C95.6166 97.7673 98.7089 94.5416 99.0871 93.8297C100.266 91.6495 100.311 88.8686 99.1761 86.5995C98.9092 86.0433 95.5277 82.5061 90.4109 77.3671L82.0906 69.0245L82.0461 50.226L81.9794 31.4275L81.3342 30.0927C80.778 28.9358 78.9538 27.0226 67.0963 15.1206C54.9273 2.90711 53.3478 1.41657 52.0575 0.771423L50.6114 0.0595245L29.9219 0.0150299C12.6139 -0.0294647 9.0322 0.0150299 8.07559 0.28199Z" fill="black"/>
<path fill-rule="evenodd" clip-rule="evenodd" d="M78.7536 66.8221L77.4188 66.5996C74.9271 66.1992 72.3688 67.0668 70.6113 68.9578C69.0762 70.604 68.6313 71.7386 68.6313 74.1413C68.6313 76.8776 69.2097 78.1012 71.6346 80.4816C72.6135 81.4382 73.4144 82.2836 73.4144 82.3503C73.4144 82.4171 71.1007 82.4838 68.2976 82.4838H63.1586L62.6247 83.04C61.9128 83.7296 61.9128 84.575 62.6247 85.2647L63.1586 85.8208H70.5C75.5056 85.8208 78.0194 85.7318 78.3976 85.5761C79.1763 85.2202 79.51 84.1746 79.0873 83.4182C78.9316 83.0845 77.4188 81.4605 75.7503 79.8142C73.9705 78.0567 72.5245 76.4327 72.2798 75.921C70.6113 72.3393 74.371 68.5796 77.975 70.2258C78.5756 70.4928 81.7792 73.5406 87.5856 79.2803C96.0393 87.6896 96.3063 87.9565 96.551 89.0689C96.729 89.9142 96.729 90.4704 96.551 91.2935C96.3063 92.3391 95.9058 92.7618 87.5856 101.038C81.7792 106.8 78.5756 109.825 77.975 110.092C74.371 111.738 70.6113 107.979 72.2798 104.397C72.5245 103.885 73.9705 102.261 75.7503 100.504C77.4188 98.8574 78.9316 97.2334 79.0873 96.8997C79.51 96.1433 79.1763 95.0977 78.3976 94.7418C77.9972 94.5638 73.1474 94.4971 61.1119 94.4971H44.3601L43.3812 93.9854C42.8473 93.7184 42.0909 93.1178 41.735 92.6506C41.112 91.8719 41.0453 91.6495 41.0453 90.1589C41.0453 88.6684 41.112 88.4459 41.735 87.6673C42.0909 87.2001 42.8473 86.5995 43.3812 86.3103C44.3378 85.8431 44.5826 85.8208 50.4557 85.8208H56.5291L57.063 85.2647C57.7749 84.575 57.7971 83.6184 57.0852 82.951C56.5736 82.4616 56.5291 82.4616 49.9218 82.5283L43.27 82.595L42.0464 83.1957C40.4446 83.9743 39.0209 85.3981 38.2867 86.9332C37.7973 87.9788 37.7083 88.4682 37.7083 90.1589C37.7083 91.8497 37.7973 92.3391 38.2867 93.3847C39.0209 94.9198 40.4446 96.3435 42.0464 97.1222L43.27 97.7228L58.3533 97.7896C66.6291 97.8118 73.4144 97.9008 73.4144 97.9898C73.4144 98.0566 72.6357 98.8797 71.6569 99.8363C70.5445 100.926 69.6992 102.016 69.2987 102.817L68.6981 104.063C68.6387 104.654 68.5379 106.201 68.6091 107.667C69.7881 111.761 73.0362 114.141 76.9516 113.763C79.7547 113.518 79.9994 113.318 89.699 103.663C95.6166 97.7673 98.7089 94.5416 99.0871 93.8297C100.266 91.6495 100.311 88.8686 99.1761 86.5995C98.9092 86.0433 95.5277 82.5061 90.4109 77.3671L82.0906 69.0245L78.7536 66.8221Z" fill="#0038FF"/>
<path d="M14.0822 31.6944C13.5038 31.8057 12.6807 32.7623 12.6807 33.3185C12.6807 33.5409 12.8809 33.9636 13.1479 34.2973L13.5928 34.8757H28.1422H42.6916L43.1365 34.2973C43.7372 33.5187 43.7149 33.0293 43.0698 32.2729L42.5359 31.65L28.5426 31.6277C20.8675 31.6055 14.3492 31.6277 14.0822 31.6944Z" fill="black"/>
<path d="M13.6373 45.0426C13.0589 45.1538 12.2357 46.1104 12.2357 46.6666C12.2357 46.8891 12.436 47.3118 12.7029 47.6455L13.1479 48.2239H38.8429C64.2265 48.2239 64.5157 48.2239 64.9606 47.7789C65.806 46.9336 65.45 45.5543 64.271 45.1316C63.7593 44.9536 56.3956 44.8869 38.8429 44.9091C25.2501 44.9314 13.9043 44.9981 13.6373 45.0426Z" fill="black"/>
<path d="M1.04563 54.1636C-0.0222112 54.4306 3.55948e-05 54.1191 3.55948e-05 76.5216C3.55948e-05 99.2801 3.55583e-05 99.2133 1.22361 101.638C2.04674 103.24 3.95996 105.198 5.53948 106.043C7.94213 107.311 8.65403 107.4 17.0856 107.4C21.6461 107.4 24.8942 107.311 25.1389 107.178C26.1845 106.622 25.9843 104.441 24.8719 104.174C24.5827 104.108 20.8675 104.041 16.5739 104.019L8.78751 103.952L7.51944 103.329C6.00666 102.573 4.42714 100.926 3.84873 99.4358C3.47053 98.4569 3.44829 97.1444 3.38155 76.6551L3.33705 54.92L2.73639 54.4751C2.18022 54.0079 1.84652 53.9634 1.04563 54.1636Z" fill="black"/>
<path d="M12.7029 59.0358C12.1023 59.8144 12.1245 60.3039 12.7697 61.0603L13.3036 61.6832L38.1977 61.7499C51.8795 61.7944 63.4033 61.7499 63.8038 61.6832C65.2721 61.4162 65.9172 59.8589 64.9606 58.9023C64.5157 58.4574 64.2265 58.4574 38.8429 58.4574H13.1479L12.7029 59.0358Z" fill="black"/>
<path d="M13.1479 72.3839C12.5472 73.1625 12.5694 73.652 13.2146 74.4083L13.7485 75.0312H33.7039H53.6592L54.1932 74.4083C54.8383 73.652 54.8606 73.1625 54.2599 72.3839L53.815 71.8055H33.7039H13.5928L13.1479 72.3839Z" fill="black"/>
</svg>
