<svg width="100" height="101" viewBox="0 0 100 101" fill="none" xmlns="http://www.w3.org/2000/svg">
<path d="M23.3673 0.631678C21.6868 1.23741 20.4363 2.68336 20.1041 4.44194C20.0064 5.02813 19.9087 6.98211 19.9087 8.77977V12.082H11.8388H3.76884L2.75277 12.59C2.18611 12.8636 1.48268 13.4107 1.1505 13.8015C-0.100044 15.3256 -0.0218846 13.1176 0.017195 48.2306L0.0758144 80.1782L0.50569 80.9793C0.740168 81.4092 1.26774 82.0736 1.65854 82.4253C3.20218 83.7735 2.14703 83.6954 19.3811 83.754L34.9739 83.8126L34.8567 84.4379C34.4463 86.2942 33.4303 88.2091 32.0038 89.7527C31.2223 90.6125 31.1636 90.632 29.9912 90.632C28.1154 90.6515 26.4741 91.6285 25.6534 93.2112C25.204 94.071 25.0868 95.7319 25.3994 96.8261C25.7316 98.0376 27.2752 99.6203 28.4281 99.972C29.0338 100.148 34.2705 100.206 50.0391 100.206C73.6236 100.206 72.0018 100.324 73.5064 98.6433C76.3787 95.4583 74.2684 90.6515 70.0088 90.632C68.8364 90.632 68.7777 90.6125 67.9962 89.7527C66.5697 88.2091 65.5537 86.2942 65.1433 84.4379L65.0261 83.8126L80.6189 83.754C97.853 83.6954 96.7978 83.7735 98.3415 82.4253C98.7323 82.0736 99.2598 81.4092 99.4943 80.9793L99.9242 80.1782L99.9828 48.2306C100.022 13.1567 100.1 15.4233 98.8495 13.8406C98.5173 13.4302 97.7943 12.8636 97.2472 12.59L96.2312 12.082H85.1912H74.1512L68.6605 6.64994C65.2997 3.28909 62.8963 1.06155 62.4078 0.827076C61.6457 0.47536 60.9227 0.45582 42.868 0.41674C27.5292 0.377661 23.973 0.41674 23.3673 0.631678ZM59.9653 9.7763C59.9653 13.1762 60.0435 16.2049 60.1607 16.5762C60.4929 17.7876 61.4308 19.0382 62.4469 19.6439L63.3848 20.191L70.0283 20.2887L76.6718 20.3864V41.548V62.7292L76.1247 63.1981L75.5776 63.6671H50H24.4224L23.8753 63.1981L23.3282 62.7292L23.2696 34.3183C23.25 18.706 23.2696 5.63387 23.3282 5.26261C23.4063 4.91089 23.6604 4.40286 23.9144 4.14884L24.3833 3.67989H42.1841H59.9653V9.7763ZM68.9536 11.5935L74.3271 16.967H69.3444C64.1077 16.9474 63.9905 16.9279 63.5215 16.0486C63.248 15.5601 63.1894 6.22006 63.4434 6.22006C63.5215 6.22006 66.0031 8.643 68.9536 11.5935ZM19.9478 39.2814C20.0064 62.1039 20.0259 63.2177 20.3777 64.0188C20.8271 65.0544 22.3512 66.4417 23.3868 66.7544C23.9534 66.9302 30.6165 66.9888 50.0391 66.9888C78.9971 66.9888 76.9258 67.0865 78.4695 65.582C80.1108 63.9797 79.9936 65.7774 79.9936 40.9032V18.8232L79.466 17.9439C79.1534 17.4554 78.6063 16.6934 78.2155 16.2244L77.4925 15.4038H86.559C96.1139 15.4233 95.9771 15.4038 96.4656 16.3221C96.6415 16.6348 96.7001 23.7473 96.7001 44.4008V72.0692H56.3504H15.9812L15.5123 72.5577C15.0238 73.0266 14.887 73.8278 15.141 74.5117C15.4927 75.43 13.6364 75.3909 56.5458 75.3909H96.7001V77.3449C96.7001 79.1621 96.661 79.3575 96.2312 79.7874C95.9771 80.0414 95.4691 80.2954 95.1174 80.3736C94.7461 80.4322 74.1512 80.4518 49.3552 80.4322L4.23779 80.3736L3.76884 79.8265C3.33896 79.3184 3.29988 79.1035 3.29988 77.3254V75.3909H6.8952C10.4124 75.3909 10.5296 75.3714 11.0376 74.922C11.7997 74.2772 11.7997 73.183 11.0376 72.5381C10.5296 72.0887 10.4124 72.0692 6.8952 72.0692H3.29988V44.4008C3.29988 23.7473 3.3585 16.6348 3.53436 16.3221C4.00331 15.4038 3.96423 15.4233 12.1319 15.4038H19.9087L19.9478 39.2814ZM62.2515 85.0827C62.525 86.5091 63.3066 88.4826 63.971 89.4987C64.2445 89.909 64.4595 90.3194 64.4595 90.4366C64.4595 90.5734 59.7113 90.632 50 90.632C39.6439 90.632 35.5406 90.5734 35.5406 90.4171C35.5406 90.2998 35.7164 89.9481 35.9313 89.655C36.5566 88.7953 37.2601 87.0562 37.6118 85.5907C37.7876 84.8678 37.9635 84.1643 38.0026 84.0275C38.0612 83.8321 40.5623 83.7931 50.0391 83.8321L61.9974 83.8908L62.2515 85.0827ZM70.888 93.8561C71.9823 94.4032 72.1191 95.8296 71.1616 96.7284L70.6731 97.1778H50H29.3269L28.8384 96.7284C27.9005 95.8491 28.0177 94.4227 29.0729 93.8561C29.8545 93.4262 70.0674 93.4262 70.888 93.8561Z" fill="black"/>
<path d="M28.5844 7.37282C28.135 7.56822 27.5683 8.03717 27.3143 8.38889L26.8453 9.05324L26.7867 21.8127C26.7476 34.4159 26.7476 34.5918 27.1384 35.2952C27.3729 35.7055 27.8614 36.2526 28.2522 36.5067L28.9752 36.9952L41.1876 37.0538C49.5506 37.0929 53.6539 37.0538 54.1424 36.8975C55.0804 36.6239 56.0378 35.8228 56.37 35.0021C56.7803 34.0642 56.7608 10.0107 56.37 9.09232C56.0573 8.33027 55.1781 7.49006 54.4355 7.2165C54.0643 7.07972 49.8241 7.00157 41.637 7.00157C30.1085 7.00157 29.3464 7.04064 28.5844 7.37282ZM53.3218 16.6151V22.9265L50.5471 20.1518C49.0035 18.6277 47.4989 17.2795 47.1863 17.1623C46.2288 16.8105 45.6817 17.2013 43.4542 20.0151L41.3439 22.6529L40.3473 21.676C39.1945 20.5426 38.4911 20.2105 37.8072 20.484C37.5336 20.5817 35.6969 22.5552 33.7038 24.8805L30.0694 29.1011V19.722V10.3233H41.6956H53.3218V16.6151ZM53.3218 30.7815V33.7711H41.9887C35.7555 33.7711 30.6556 33.7125 30.6556 33.6539C30.6556 33.4975 38.2957 24.5874 38.4324 24.5874C38.4911 24.5874 39.4876 25.5058 40.6209 26.6391C42.8094 28.7884 43.1025 28.9252 44.1185 28.3976C45.1346 27.8896 45.2128 26.6977 44.3335 25.7012L43.7473 25.0368L45.2518 23.1414L46.7564 21.2461L50.0391 24.5288L53.3218 27.8115V30.7815Z" fill="#FC2C7E"/>
<path d="M34.2704 13.8798C32.7659 14.759 33.313 16.967 35.0325 16.967C35.9509 16.967 36.8106 15.9901 36.6348 15.1303C36.5566 14.7981 36.3612 14.3682 36.1658 14.1924C35.7164 13.743 34.7589 13.5867 34.2704 13.8798Z" fill="#FC2C7E"/>
<path d="M27.6074 42.2514C26.6109 42.7008 26.3959 44.1272 27.197 44.8697C27.6465 45.28 27.7832 45.2996 32.4923 45.2996H37.3187L37.7876 44.8111C38.452 44.1663 38.452 43.1893 37.7681 42.5444C37.2796 42.0755 37.2405 42.0755 32.7464 42.0364C29.2487 41.9973 28.0763 42.0364 27.6074 42.2514Z" fill="#FC2C7E"/>
<path d="M42.5553 42.2709C41.5588 42.818 41.4025 43.9513 42.2427 44.8501L42.6335 45.2996H57.5228H72.4122L72.8225 44.8501C73.2719 44.3617 73.3892 43.3847 73.057 42.7594C72.6466 41.9973 72.0995 41.9778 57.347 41.9778C45.5254 41.9973 42.9852 42.0364 42.5553 42.2709Z" fill="#FC2C7E"/>
<path d="M28.0177 48.7581C26.7476 49.0708 26.2982 50.673 27.2557 51.5719L27.7637 52.0408L42.0082 52.0994C51.7195 52.1385 56.5263 52.0799 57.0539 51.9431C57.6596 51.7673 57.9136 51.5719 58.1481 51.0638C58.4607 50.4386 58.4607 50.3213 58.1481 49.7156C57.9136 49.2076 57.6401 48.9926 57.0929 48.8363C56.3504 48.6214 28.8579 48.5627 28.0177 48.7581Z" fill="#FC2C7E"/>
<path d="M62.9549 48.7581C62.3492 48.8753 61.7239 49.7351 61.7239 50.3994C61.7239 50.6925 61.9388 51.2006 62.1928 51.4937L62.6618 52.0408H67.449H72.2363L72.7443 51.5718C73.4478 50.9075 73.4478 49.8523 72.7443 49.188C72.2558 48.719 72.2167 48.719 67.8203 48.6995C65.3778 48.6799 63.1894 48.6995 62.9549 48.7581Z" fill="#FC2C7E"/>
</svg>
