<svg width="100" height="97" viewBox="0 0 100 97" fill="none" xmlns="http://www.w3.org/2000/svg">
<path d="M0.00259399 42.1808C0.0260694 42.1208 0.0521531 42.0608 0.0704118 42.0008C1.63805 36.8832 4.23077 34.9817 9.64055 34.9817C36.812 34.9817 63.9835 34.9817 91.1549 34.9817C95.404 34.9817 98.6801 37.3527 99.6843 41.187C99.8878 41.9643 99.9738 42.7912 99.9791 43.5945C100.008 47.8566 100.003 52.1187 99.9895 56.3808C99.9738 61.3419 96.403 64.9884 91.4523 64.9911C63.8244 65.0093 36.199 65.0067 8.57111 64.9911C4.32206 64.9911 1.17897 62.4218 0.16953 58.251C0.133013 58.0971 0.0599783 57.9484 0.00259399 57.7998C0.00259399 52.5934 0.00259399 47.3871 0.00259399 42.1808ZM50.0339 38.3126C36.366 38.3126 22.7007 38.3126 9.03279 38.3126C5.30542 38.3126 3.33088 40.3002 3.33088 44.0484C3.33088 48.1149 3.32567 52.1813 3.33088 56.2478C3.3361 59.5735 5.4228 61.6654 8.76152 61.668C36.259 61.6732 63.7539 61.6732 91.2514 61.668C94.5849 61.668 96.656 59.5682 96.6612 56.2243C96.6664 52.1891 96.6612 48.1566 96.6612 44.1214C96.6612 40.2532 94.7127 38.3126 90.8367 38.3126C77.234 38.3126 63.6339 38.3126 50.0313 38.3126H50.0339Z" fill="black"/>
<path d="M0.00260838 7.0353C0.130419 6.64144 0.263446 6.25018 0.388648 5.85371C1.44765 2.47064 4.56988 0.102236 8.11727 0.0161594C9.38494 -0.0125327 10.6552 0.00572591 11.9255 0.00572591C38.351 0.00572591 64.7764 0.00572591 91.2019 0.00572591C95.8187 0.00572591 99.1731 2.78104 99.8956 7.19441C99.9791 7.70304 99.9843 8.22994 99.9869 8.749C99.9947 12.9146 99.9973 17.0776 99.9869 21.2431C99.9765 26.4025 96.4656 29.9942 91.2984 29.9968C63.767 30.0151 36.233 30.0125 8.70154 29.9968C4.27252 29.9968 1.14247 27.4563 0.156503 23.1942C0.12781 23.0716 0.0547759 22.9594 0 22.8447C0 17.5731 0 12.3016 0 7.03008L0.00260838 7.0353ZM49.9921 3.33141C42.3783 3.33141 34.7644 3.33141 27.148 3.33141C20.9322 3.33141 14.7165 3.32097 8.50331 3.33662C5.61062 3.34445 3.37785 5.42332 3.34655 8.2195C3.29699 12.7398 3.3022 17.2627 3.34655 21.7857C3.36481 23.6428 4.22296 25.174 5.91058 25.9721C6.86786 26.426 8.02597 26.6399 9.09541 26.6425C29.0104 26.6816 48.9253 26.6712 68.8403 26.6712C76.2924 26.6712 83.7445 26.6816 91.1967 26.6659C94.6293 26.6581 96.6586 24.6079 96.6638 21.1936C96.669 17.1271 96.6664 13.0607 96.6638 8.99419C96.6638 5.32421 94.6684 3.33401 90.9932 3.33401C77.3253 3.33401 63.66 3.33401 49.9921 3.33401V3.33141Z" fill="black"/>
<path d="M18.3395 58.337C16.258 58.337 14.1765 58.3474 12.095 58.337C8.7485 58.3187 6.66962 56.245 6.65919 52.922C6.65136 50.9057 6.64615 48.8894 6.65919 46.8757C6.68266 43.8344 8.75111 41.6877 11.7899 41.659C16.1459 41.6147 20.5045 41.6173 24.8604 41.659C27.8236 41.6851 29.8998 43.7144 29.9911 46.6723C30.0589 48.8816 30.0589 51.0935 29.9911 53.3028C29.9024 56.2607 27.8392 58.2431 24.8709 58.3396C24.8057 58.3396 24.7405 58.3396 24.6752 58.3396C22.5625 58.3396 20.4471 58.3396 18.3343 58.3396L18.3395 58.337ZM9.99269 46.6593C9.99269 49.0224 9.96661 51.1378 10.0031 53.2506C10.0214 54.3148 10.65 54.9722 11.7273 54.98C16.1198 55.0139 20.5149 55.0139 24.9074 54.98C26.0681 54.9722 26.642 54.307 26.6628 53.0811C26.6915 51.2604 26.6733 49.4372 26.668 47.6139C26.668 47.3687 26.6185 47.1235 26.5924 46.8679C26.4542 46.9018 26.3811 46.9018 26.3316 46.9357C24.8187 48.0626 23.3085 49.192 21.7956 50.3214C19.3829 52.1212 17.2622 52.1055 14.8417 50.2823C13.2923 49.1137 11.7325 47.9582 9.99269 46.6593ZM23.2693 45.0603H13.4201C14.8912 46.1611 16.1198 47.1731 17.4527 48.026C17.8622 48.2869 18.6942 48.3364 19.0855 48.0886C20.4732 47.2174 21.7565 46.1767 23.2693 45.0603Z" fill="#FC2C7E"/>
<path d="M62.5098 55.0008C54.1786 55.0008 45.8501 55.0008 37.5189 54.9982C37.099 54.9982 36.666 54.9956 36.2617 54.9017C35.4192 54.7061 34.9862 54.0931 35.0149 53.2663C35.0462 52.4394 35.5131 51.863 36.3712 51.7195C36.7207 51.6595 37.0833 51.6673 37.4406 51.6673C54.1343 51.6673 70.8253 51.6673 87.5189 51.6673C89.1961 51.6673 90.002 52.2151 89.9916 53.3367C89.9812 54.4557 89.1648 55.006 87.498 55.006C79.1668 55.006 70.8383 55.006 62.5071 55.006L62.5098 55.0008Z" fill="black"/>
<path d="M40.8472 48.3153C39.5169 48.3153 38.1866 48.3362 36.8563 48.3075C35.706 48.284 34.9757 47.5902 34.9992 46.6225C35.0227 45.6939 35.7347 45.0027 36.825 44.9922C39.4856 44.9609 42.1487 44.9609 44.8093 44.9922C45.957 45.0053 46.6821 45.72 46.6638 46.6903C46.643 47.6658 45.9257 48.2918 44.7467 48.3127C43.4477 48.3362 42.1513 48.3179 40.8524 48.3179L40.8472 48.3153Z" fill="black"/>
<path d="M62.3976 19.9861C54.0664 19.9861 45.7379 19.9861 37.4067 19.9861C35.7999 19.9861 35.0148 19.4514 34.9966 18.3559C34.9783 17.2316 35.8104 16.6526 37.4537 16.6526C54.1473 16.6526 70.8383 16.6526 87.5319 16.6578C87.9518 16.6578 88.3874 16.6656 88.7865 16.7726C89.6212 16.9969 90.0333 17.6229 89.9707 18.4524C89.9081 19.2766 89.4203 19.8348 88.557 19.9496C88.1709 19.9991 87.7771 19.9887 87.3884 19.9887C79.0573 19.9887 70.7287 19.9887 62.3976 19.9887V19.9861Z" fill="black"/>
<path d="M14.2861 14.7117C12.8306 11.746 13.1827 9.3515 15.2694 7.72387C17.1318 6.27101 19.761 6.32839 21.5739 7.86473C23.5145 9.508 23.8223 11.9312 22.2807 14.863C22.4972 14.9986 22.8441 15.1421 23.0867 15.3873C24.3335 16.6445 24.9648 18.1809 24.9882 19.9467C25.0117 21.7282 23.7362 23.2072 21.9677 23.275C19.5654 23.3637 17.1527 23.3637 14.7477 23.2828C12.9506 23.2228 11.6986 21.7882 11.6907 19.9989C11.6803 17.8339 12.6167 16.1202 14.2835 14.7143L14.2861 14.7117ZM21.6339 19.9363C21.42 17.8235 19.8549 16.4645 18.0186 16.6836C16.2293 16.8975 14.9199 18.3791 15.1677 19.9363H21.6339ZM18.3525 13.3058C19.2968 13.2954 19.9932 12.5702 19.9697 11.6208C19.9488 10.7339 19.2368 10.0166 18.3577 10.001C17.4605 9.98534 16.6701 10.7626 16.6675 11.6625C16.6649 12.5728 17.4265 13.3188 18.3525 13.3084V13.3058Z" fill="#FC2C7E"/>
<path d="M40.8159 13.3163C39.4856 13.3163 38.1527 13.3319 36.8225 13.311C35.7348 13.2954 35.0175 12.6381 34.9966 11.6991C34.9757 10.7653 35.6956 10.0141 36.7546 10.001C39.4804 9.96971 42.2088 9.96971 44.9345 10.001C45.9753 10.0141 46.6978 10.7992 46.6586 11.7252C46.6221 12.6381 45.9361 13.285 44.9058 13.3058C43.5442 13.3319 42.1801 13.311 40.8159 13.3137V13.3163Z" fill="black"/>
<path d="M10.7612 97C10.1522 96.8561 9.5412 96.7309 8.93859 96.5682C3.21378 95.0185 -0.503021 89.679 0.0553426 83.8118C0.594743 78.1261 5.27235 73.5708 11.0835 73.0786C11.5281 73.0411 11.9748 73.0119 12.4215 73.0098C22.9904 73.0056 76.9915 72.9868 87.5604 73.016C92.5414 73.0306 96.334 75.2019 98.6433 79.582C102.461 86.8237 97.8279 95.6463 89.6568 96.8603C89.5072 96.8832 89.364 96.952 89.2186 97H10.7612ZM28.2369 75.6795C22.9819 75.6795 17.7249 75.6879 12.47 75.6754C10.3313 75.6712 8.36126 76.1905 6.62507 77.4462C3.27489 79.8698 1.89689 83.9996 3.14214 87.8227C4.4169 91.7335 7.98831 94.3198 12.1855 94.3365C16.3385 94.3532 20.4893 94.3407 24.6423 94.3407C31.2647 94.3407 81.3214 94.3699 87.9438 94.3303C93.7571 94.2948 98.1376 89.0679 97.1389 83.4448C96.3214 78.8374 92.4908 75.7046 87.5983 75.6837C82.2907 75.6628 33.5466 75.6795 28.239 75.6795H28.2369Z" fill="black"/>
<path d="M46.6646 87.0406C49.3273 84.906 51.99 82.7696 54.6526 80.6351C54.8356 80.4883 55.0113 80.3318 55.2071 80.2066C55.7616 79.8525 56.36 79.962 56.7425 80.4707C57.1323 80.9892 57.0755 81.6915 56.5997 82.1846C56.5027 82.2863 56.3893 82.3704 56.2795 82.4585C53.3789 84.7847 50.4802 87.1129 47.576 89.4372C46.5878 90.2277 46.1907 90.1944 45.3361 89.2807C44.7065 88.6077 44.0715 87.9425 43.4512 87.2597C42.8857 86.6375 42.8528 85.9117 43.3469 85.3854C43.8464 84.8513 44.5016 84.8884 45.1018 85.5028C45.5795 85.9899 46.0461 86.4908 46.5201 86.9858C46.5347 87.0014 46.5622 87.0034 46.6665 87.0425L46.6646 87.0406Z" fill="#FC2C7E"/>
</svg>
