<svg xmlns="http://www.w3.org/2000/svg" xmlns:xlink="http://www.w3.org/1999/xlink" width="397" height="380" fill="none" xmlns:v="https://vecta.io/nano"><style><![CDATA[.B{fill:#fc2c7e}.C{fill:#000}.D{fill:#803760}.E{fill:#792651}.F{fill-opacity:.6}.G{fill:#263238}.H{fill:#8c4b70}.I{fill:#fff}.J{opacity:.3}.K{fill:#ae8198}.L{opacity:.15}.M{fill:#37474f}.N{fill:#b16668}.O{fill:#455a64}.P{fill:#f0997a}]]></style><path d="M198.052 380c109.382 0 198.053-46.77 198.053-104.464s-88.671-104.464-198.053-104.464S0 217.842 0 275.536 88.671 380 198.052 380z" fill="#f5f5f5" fill-opacity=".1"/><path d="M323.494 241.267c-13.721 7.922-13.721 20.759 0 28.68s35.952 7.921 49.664 0 13.713-20.758 0-28.68-35.977-7.921-49.664 0z" fill="#e6e6e6" fill-opacity=".13"/><path d="M294.318 333.476c30.023 0 54.362-14.05 54.362-31.382s-24.339-31.381-54.362-31.381-54.362 14.05-54.362 31.381 24.339 31.382 54.362 31.382zm-260.176-6.348l5.556 3.207a7.03 7.03 0 0 0 3.174.758 7.02 7.02 0 0 0 3.173-.758l122.495-70.709c1.751-1.01 1.751-2.651 0-3.661l-5.564-3.208c-.981-.502-2.067-.764-3.169-.764a6.96 6.96 0 0 0-3.17.764L34.142 323.466c-1.742 1.011-1.742 2.652 0 3.662zm31.146 6.777l5.556 3.207a7.03 7.03 0 0 0 6.348 0l104.54-60.136c1.75-1.01 1.75-2.652 0-3.662l-5.556-3.216a7.04 7.04 0 0 0-6.347 0l-104.54 60.145c-1.734 1.01-1.734 2.652 0 3.662z" class="D"/><path d="M368.714 74.344l-1.473.875-30.102-17.374 1.465-.875 30.11 17.374z" class="H"/><path d="M338.604 56.969l28.637 16.524V43.509l-28.637-16.524v29.984z" class="E"/><path d="M334.369 59.436L370.01 80V41.91l-35.641-20.573v38.099zm2.812-33.309l30.102 17.383v31.71l-30.102-17.374V26.127z" class="K"/><path d="M337.139 57.845l1.465-.876V26.986l-1.465-.859v31.718z" class="D"/><path d="M334.369 21.329l1.49-.85L371.5 41.06l-1.49.85-35.641-20.581z" class="H"/><path d="M371.5 41.06l-1.49.85v38.107l1.49-.85V41.06z" class="D"/><path d="M339.723 56.069l26.407 15.245v-7.618l-6.608-15.245-4.108 3.813 1.481 6.389-9.116-19.504-8.056 9.302v7.618zM355.7 41.094a4.27 4.27 0 0 1 1.953 3.367c0 1.246-.842 1.751-1.953 1.128a4.32 4.32 0 0 1-1.374-1.452 4.31 4.31 0 0 1-.571-1.915c-.042-1.246.825-1.785 1.945-1.128z" class="K"/><path d="M368.714 122.224l-1.473.875-30.102-17.382 1.465-.876 30.11 17.383z" class="H"/><path d="M338.604 104.841l28.637 16.533V91.381l-28.637-16.516v29.975z" class="E"/><path d="M334.369 107.316l35.641 20.573V89.782l-35.641-20.573v38.107zm2.812-33.317l30.102 17.383v31.718l-30.102-17.382V73.999z" class="K"/><path d="M337.139 105.717l1.465-.876V74.866l-1.465-.867v31.718z" class="D"/><path d="M334.369 69.209l1.49-.859L371.5 88.932l-1.49.85-35.641-20.573z" class="H"/><path d="M371.5 88.932l-1.49.85v38.107l1.49-.85V88.932z" class="D"/><path d="M339.723 103.941l26.406 15.244v-7.618l-6.607-15.244-4.108 3.813 1.481 6.389-9.116-19.496-8.056 9.293v7.618zM355.7 88.965c.568.368 1.04.864 1.38 1.45s.536 1.242.573 1.918c0 1.246-.842 1.751-1.953 1.128a4.3 4.3 0 0 1-1.375-1.451 4.31 4.31 0 0 1-.57-1.916c-.042-1.246.825-1.751 1.945-1.128z" class="K"/><use xlink:href="#B" class="B"/><g class="E"><use xlink:href="#B" class="J"/><path d="M39.622 312.684a.56.56 0 0 1-.229-.225c-.052-.096-.075-.205-.066-.314.564-30.153-8.283-49-21.044-59.657-.104-.095-.173-.221-.197-.36a.64.64 0 0 1 .062-.406c.019-.056.051-.107.094-.148s.096-.071.153-.087.118-.017.176-.004a.36.36 0 0 1 .157.079c12.938 10.783 22.021 30.052 21.44 60.608a.49.49 0 0 1-.429.539l-.118-.025z"/></g><path d="M37.164 321.161c-1.414 1.001-2.189-1.061-2.896-3.426-2.264-7.627-4.756-11.651-9.007-17.004-5.244-6.591-14.31-12.677-15.337-18.132-.909-4.95 3.072-8.763 10.16-6.12 8.51 3.182 20.009 13.469 19.622 43.091l-2.542 1.591z" class="B"/><path d="M37.77 317.381a.54.54 0 0 1-.227-.169c-.059-.075-.097-.165-.11-.26-4.015-22.855-16.701-34.193-22.568-36.441-.121-.062-.217-.163-.274-.287s-.07-.263-.038-.395c.059-.286.278-.454.514-.362 6.498 2.475 19.091 13.957 23.199 37.291a.53.53 0 0 1-.32.631.25.25 0 0 1-.177-.008z" class="E"/><path d="M323.25 216.89c.016-.158.073-.309.166-.438a.91.91 0 0 1 .364-.295c.392-.196.824-.298 1.263-.298a2.82 2.82 0 0 1 1.262.298.9.9 0 0 1 .359.297c.092.128.148.279.163.436l-6.397 37.77c-.014.109-.055.213-.12.301a.64.64 0 0 1-.251.204 1.98 1.98 0 0 1-.896.215c-.312 0-.619-.074-.897-.215-.101-.044-.188-.114-.253-.202a.63.63 0 0 1-.117-.303l5.354-37.77zm49.336 0c-.016-.158-.074-.309-.167-.438a.89.89 0 0 0-.363-.294 2.8 2.8 0 0 0-2.526 0c-.145.064-.27.166-.363.294a.9.9 0 0 0-.167.438l6.397 37.77c.014.109.055.213.12.301a.64.64 0 0 0 .251.204c.279.142.588.215.901.215a1.98 1.98 0 0 0 .9-.215c.099-.046.185-.117.249-.205s.107-.191.122-.3l-5.354-37.77zm-22.652 2.845c-.016-.158-.074-.309-.167-.438a.9.9 0 0 0-.364-.294c-.391-.198-.824-.301-1.262-.301a2.8 2.8 0 0 0-1.263.301c-.145.064-.27.166-.364.294a.89.89 0 0 0-.166.438l.53 44.934c.013.109.054.212.119.301a.64.64 0 0 0 .251.204c.278.141.585.215.897.215s.619-.074.896-.215a.62.62 0 0 0 .254-.203c.065-.088.105-.193.117-.302l.522-44.934z" class="O"/><use xlink:href="#C" class="B"/><use xlink:href="#C" opacity=".4" class="E"/><use xlink:href="#D" class="B"/><use xlink:href="#D" opacity=".6" class="E"/><g opacity=".05" class="C"><path d="M355.195 198.312c4.007 2.315 4.007 6.069 0 8.418s-10.514 2.315-14.521 0-4.015-6.069 0-8.418 10.506-2.315 14.521 0z"/></g><path d="M341.541 203.017c-3.493-3.56-5.547-12.466-2.138-15.286h17.332c3.367 2.82 1.356 11.717-2.129 15.286l-.101.093c-.035.043-.075.083-.118.118l-.312.286-.084.067-.269.194c-.142.109-.291.207-.446.295a11.53 11.53 0 0 1-5.207 1.244c-1.809 0-3.593-.427-5.206-1.244-.152-.093-.303-.186-.455-.295l-.244-.185-.101-.084c-.107-.084-.208-.174-.303-.27l-.143-.135-.076-.084z" fill="#b34e7a"/><path d="M355.229 186.586c3.956 2.29 3.956 5.994 0 8.275s-10.363 2.281-14.311 0-3.956-5.985 0-8.275 10.363-2.281 14.311 0z" class="H"/><path d="M352.425 188.211c2.408 1.388 2.408 3.636 0 5.05-1.35.685-2.842 1.042-4.356 1.042s-3.006-.357-4.356-1.042c-2.407-1.389-2.407-3.636 0-5.05 1.35-.685 2.842-1.042 4.356-1.042s3.006.357 4.356 1.042z" fill="#b34e7a"/><path d="M343.713 190.593c1.35-.685 2.842-1.042 4.356-1.042s3.006.357 4.356 1.042c.583.313 1.078.767 1.44 1.321a3.82 3.82 0 0 1-1.44 1.322c-1.35.685-2.842 1.041-4.356 1.041s-3.006-.356-4.356-1.041c-.586-.309-1.082-.764-1.439-1.322.361-.554.856-1.008 1.439-1.321z" class="D"/><g class="B"><path d="M351.895 191.956c1.235-1.256 2.297-2.671 3.157-4.208 1.456-2.576 1.683-6.027.968-6.448s-3.813 3.013-3.813 3.013a18.93 18.93 0 0 0 .319-4.394c-.126-2.298-.69-4.377-1.346-4.798s-2.122 2.475-2.753 4.571l-1.002 3.813c-.258-1.634-.637-3.246-1.136-4.823-.758-2.172-1.456-2.669-1.995-2.45s-.892 1.229-1.044 4.125c-.057 1.384-.014 2.771.126 4.15l-2.281-2.34c-1.204-1.154-1.877-1.44-2.256-1.196s-.48 2.206 1.566 5.893c1.01 1.874 2.308 3.578 3.847 5.05 0 0 2.82 1.827 7.643.042z"/><use xlink:href="#E"/></g><use xlink:href="#E" opacity=".05" class="C"/><use xlink:href="#F" class="B"/><use xlink:href="#F" class="C J"/><use xlink:href="#G" class="B"/><use xlink:href="#G" class="C L"/><path d="M49.85 87.964a11.59 11.59 0 0 0-5.244 9.083v212.649c0 3.367 2.348 4.697 5.244 3.022l96.854-55.944c1.523-.999 2.79-2.341 3.699-3.918a11.63 11.63 0 0 0 1.537-5.165V35.067c0-3.367-2.357-4.689-5.244-3.022L49.85 87.964z" class="G"/><path d="M143.926 241.899V33.644L49.85 87.964a11.6 11.6 0 0 0-5.244 9.083v208.255l94.076-54.328c1.525-.995 2.794-2.335 3.705-3.911s1.438-3.345 1.539-5.163z" class="M"/><path d="M90.297 54.899l15.994-9.209c.951-.547 1.725-.16 1.725.842a3.68 3.68 0 0 1-1.725 2.862l-15.994 9.259c-.951.547-1.684.16-1.684-.842a3.7 3.7 0 0 1 .492-1.658c.293-.506.701-.936 1.192-1.254zm27.375-15.826c.892-.522 1.616-.101 1.616.934a3.57 3.57 0 0 1-1.616 2.795c-.893.514-1.617.101-1.617-.934a3.58 3.58 0 0 1 .474-1.59 3.57 3.57 0 0 1 1.143-1.204zm6.473-3.737c.892-.513 1.616-.093 1.616.934a3.57 3.57 0 0 1-1.616 2.803c-.892.514-1.616.101-1.616-.934.031-.561.194-1.107.474-1.594a3.58 3.58 0 0 1 1.142-1.209zM72.401 65.21c.892-.513 1.616-.101 1.616.934a3.6 3.6 0 0 1-.475 1.594c-.281.487-.672.901-1.141 1.209-.892.514-1.616.093-1.616-.934a3.57 3.57 0 0 1 1.616-2.803zm6.473-3.729c.892-.522 1.616-.101 1.616.934a3.57 3.57 0 0 1-1.616 2.795c-.892.522-1.616.101-1.616-.934a3.57 3.57 0 0 1 1.616-2.795z" class="G"/><path d="M285.732 140.827a4.04 4.04 0 0 0-.535-1.787c-.316-.545-.756-1.009-1.284-1.353l-1.473-.842a4.03 4.03 0 0 0-3.619 0l-22.61 13.081c-.528.342-.967.804-1.281 1.349s-.496 1.155-.529 1.783v24.883a4.02 4.02 0 0 0 .529 1.786c.315.545.753 1.009 1.281 1.353l1.473.842a4.03 4.03 0 0 0 3.619 0l22.61-13.081a3.98 3.98 0 0 0 1.287-1.351 4 4 0 0 0 .532-1.789v-24.874z" class="B"/><path opacity=".2" d="M254.401 177.932a4.01 4.01 0 0 0 .529 1.786 4 4 0 0 0 1.281 1.354l1.473.842c.51.256 1.068.401 1.638.426s1.14-.072 1.67-.283c-.842.32-1.498-.16-1.498-1.187v-24.874c.02-.631.203-1.246.53-1.785l-5.051-2.946c-.325.54-.507 1.154-.53 1.784l-.042 24.883z" class="C"/><path d="M285.664 140.313c-.21-.774-.909-1.018-1.742-.53l-22.619 13.081a3.58 3.58 0 0 0-1.271 1.347l-5.101-2.938a3.69 3.69 0 0 1 1.28-1.355l22.61-13.081a4.03 4.03 0 0 1 3.619 0l1.482.841c.455.297.844.684 1.144 1.137a3.97 3.97 0 0 1 .598 1.498z" class="E J"/><path d="M280.142 149.312a.49.49 0 0 0-.24-.063c-.084 0-.166.022-.24.063l-14.781 8.536c-.072.041-.132.102-.174.174s-.063.155-.062.238v14.024a.49.49 0 0 0 .064.237c.042.072.101.132.172.175s.153.065.236.068c.085-.002.169-.025.244-.068l14.781-8.518a.5.5 0 0 0 .172-.176.49.49 0 0 0 .064-.237v-14.041a.49.49 0 0 0-.236-.412zm-7.778 12.484l-6.279-3.511 12.5-7.214-6.221 10.725zm-2.172-.135l-4.562 8.687v-11.271l4.562 2.584zm.842.471l1.28.733c.072.039.153.059.235.059s.167-.02.239-.061.133-.102.174-.175l1.448-2.483 4.663 3.493-12.719 7.34 4.68-8.906zm3.856-2.761l4.57-7.87v11.296l-4.57-3.426z" class="F I"/><path d="M247.801 162.696c-.033-.628-.214-1.239-.529-1.783a3.97 3.97 0 0 0-1.281-1.348l-1.473-.842c-.56-.287-1.18-.436-1.809-.436s-1.25.149-1.81.436l-22.61 13.03c-.527.345-.966.808-1.28 1.354s-.496 1.157-.53 1.786v24.875c.033.629.214 1.241.529 1.786a3.98 3.98 0 0 0 1.281 1.353l1.473.842c.56.287 1.18.436 1.81.436s1.249-.149 1.809-.436l22.61-13.081a3.97 3.97 0 0 0 1.281-1.348 3.98 3.98 0 0 0 .529-1.783v-24.841z" class="B"/><path opacity=".2" d="M216.479 199.801c.033.629.214 1.241.529 1.787s.753 1.009 1.281 1.353l1.473.842c.509.258 1.068.404 1.638.429s1.14-.073 1.67-.286c-.842.328-1.498-.152-1.498-1.187v-24.874a3.73 3.73 0 0 1 .53-1.785l-5.093-2.938a3.67 3.67 0 0 0-.53 1.785v24.874z" class="C"/><path d="M247.742 162.183c-.21-.766-.909-1.011-1.742-.531l-22.619 13.081a3.63 3.63 0 0 0-1.279 1.356l-5.093-2.947c.304-.551.745-1.015 1.28-1.346l22.601-13.082a4 4 0 0 1 3.628 0l1.482.842c.453.297.841.683 1.141 1.134a4.01 4.01 0 0 1 .601 1.493z" class="E J"/><path d="M242.246 176.392l-7.155 4.133a4.1 4.1 0 0 0-1.164 1.464c-.27.571-.405 1.196-.394 1.827v5.177c0 1.322.699 1.995 1.558 1.499l3.796-2.197 2.643 2.777c.041.035.093.055.147.055a.23.23 0 0 0 .148-.055c.076-.048.142-.111.193-.185a1.2 1.2 0 0 0 .211-.799l-.531-3.443.548-.312a4.11 4.11 0 0 0 1.557-3.291v-5.177c0-1.296-.699-1.97-1.557-1.473zm.749 7.399a1.96 1.96 0 0 1-.19.875 1.97 1.97 0 0 1-.559.699l-1.044.606a.84.84 0 0 0-.32.413c-.073.181-.099.378-.076.572l.32 1.877-1.776-1.599c-.04-.037-.093-.057-.147-.057a.22.22 0 0 0-.148.057l-3.964 2.29c-.413.244-.75-.085-.75-.716v-5.438a1.96 1.96 0 0 1 .19-.875c.13-.273.322-.512.56-.699l7.155-4.133c.412-.236.749.084.749.715v5.413zm-10.362 1.583l-.135.075a.73.73 0 0 0-.236.261l-3.46 5.893.203-3.367c.045-.173.024-.356-.059-.514a.23.23 0 0 0-.15-.106c-.031-.006-.062-.006-.093.001s-.06.019-.086.038l-.976.572c-.514.295-.926-.109-.926-.884v-7.811c-.006-.374.074-.744.235-1.081a2.43 2.43 0 0 1 .691-.864l11.465-6.616c.505-.295.917.101.917.842v4.284c0 .345.186.514.404.387a1.06 1.06 0 0 0 .305-.372c.071-.146.108-.307.108-.469v-4.226c0-1.465-.783-2.214-1.734-1.684l-11.465 6.625c-.551.436-.994.993-1.295 1.628a4.57 4.57 0 0 0-.439 2.034v7.803c0 1.473.774 2.222 1.734 1.684l.429-.253-.067 3.881c-.051.286 0 .53.151.606.036.02.077.03.118.03s.082-.01.118-.03a.69.69 0 0 0 .236-.253l4.007-6.843a1.06 1.06 0 0 0 .3-.374c.07-.146.106-.306.104-.468 0-.387-.177-.581-.404-.429z" class="F I"/><path d="M209.812 184.624c-.035-.629-.217-1.242-.533-1.787a4.01 4.01 0 0 0-1.285-1.353l-1.473-.841a3.97 3.97 0 0 0-3.62 0l-22.61 13.072c-.527.345-.966.808-1.28 1.354s-.496 1.157-.53 1.786v24.883c.033.628.215 1.239.529 1.783a3.99 3.99 0 0 0 1.281 1.348l1.473.842a3.97 3.97 0 0 0 3.62 0l22.61-13.073c.528-.344.967-.807 1.283-1.353a4.02 4.02 0 0 0 .535-1.786v-24.875z" class="B"/><path opacity=".2" d="M178.481 221.729c.033.628.215 1.239.529 1.783s.754 1.007 1.281 1.349l1.473.842a4.05 4.05 0 0 0 1.638.43c.57.026 1.14-.069 1.67-.279-.841.32-1.498-.16-1.498-1.195v-24.866a3.67 3.67 0 0 1 .53-1.785l-5.092-2.946c-.328.539-.51 1.154-.531 1.785v24.882z" class="C"/><path d="M209.745 184.102c-.211-.766-.909-1.01-1.743-.53l-22.618 13.081a3.54 3.54 0 0 0-1.271 1.356l-5.101-2.947c.306-.549.746-1.013 1.279-1.347l22.61-13.081c.562-.282 1.181-.429 1.81-.429s1.248.147 1.81.429l1.481.842a3.99 3.99 0 0 1 1.141 1.134c.3.452.504.959.602 1.492z" class="E J"/><path d="M200.039 213.775h-.126c-5.051-.43-8.553-3.847-10.522-10.144a7.24 7.24 0 0 1 1.784-6.843 1.7 1.7 0 0 1 .544-.442c.211-.107.441-.169.677-.181 1.103 0 2.954 3.081 2.996 4.301-.016.87-.294 1.716-.799 2.425-.266.369-.438.796-.502 1.246s-.02.909.131 1.338c.598 1.734 1.583 2.651 3.006 2.828.37.042.698-.311.959-1.06.438-1.272.977-2.021 1.684-2.29.232-.088.48-.124.727-.105a1.68 1.68 0 0 1 .704.214l.227.11c.402.19.793.404 1.17.64l.202.126c.707.429 1.322.951.977 2.66s-1.684 4.335-2.93 5.05c-.048.031-.103.051-.16.059h-.118c-.207.047-.419.07-.631.068zm-7.643-16.693c-.101 0-.286.127-.497.354-.741.767-1.275 1.711-1.55 2.742a6.27 6.27 0 0 0-.024 3.15c1.869 5.968 5.051 9.066 9.697 9.462.143.005.285-.015.421-.059h.084c.893-.564 2.063-2.685 2.408-4.36.235-1.187-.068-1.373-.539-1.684l-.236-.143a9.9 9.9 0 0 0-1.06-.581l-.236-.118a.71.71 0 0 0-.311-.115c-.111-.013-.224 0-.329.039-.269.11-.682.497-1.102 1.684-.531 1.54-1.373 1.776-1.97 1.684-1.802-.219-3.081-1.389-3.797-3.469-.195-.557-.256-1.152-.177-1.738s.296-1.143.632-1.629a3.37 3.37 0 0 0 .665-1.885c-.067-.884-1.641-3.199-2.079-3.334z" class="F I"/><path d="M277.768.537l-97.426 56.172c-.638.416-1.169.977-1.549 1.636s-.6 1.4-.64 2.16V173.16c.042.759.263 1.498.645 2.157s.913 1.217 1.552 1.631l1.372.782a4.87 4.87 0 0 0 4.386 0l97.427-56.264c.638-.415 1.17-.976 1.552-1.635s.603-1.4.645-2.161V5.083c-.041-.761-.263-1.501-.646-2.16a4.81 4.81 0 0 0-1.56-1.628l-1.363-.783A4.87 4.87 0 0 0 279.962 0a4.87 4.87 0 0 0-2.194.537z" class="D"/><path d="M285.732 117.813c0 1.928-1.356 3.157-3.039 4.125l-95.744 55.287c-1.683.96-3.03.185-3.03-1.751V64.756a6.03 6.03 0 0 1 .806-3.018 6.02 6.02 0 0 1 2.208-2.209l95.76-55.288a2.03 2.03 0 0 1 2.023.002 2.03 2.03 0 0 1 .741.739c.179.307.273.655.275 1.01v111.821z" class="H"/><path d="M283.703 4.788c.313 0 .612.124.833.345a1.18 1.18 0 0 1 .345.833v111.847c0 1.313-.799 2.357-2.609 3.367l-95.769 55.313a2 2 0 0 1-.934.303c-.724 0-.842-.842-.842-1.322V64.756c.004-.913.247-1.809.707-2.598a5.21 5.21 0 0 1 1.911-1.897l95.769-55.313a1.15 1.15 0 0 1 .589-.16zm0-.842c-.356 0-.705.096-1.01.278l-95.76 55.305a6.02 6.02 0 0 0-2.208 2.209 6.03 6.03 0 0 0-.806 3.018v110.718c0 1.372.682 2.164 1.684 2.164.48-.018.947-.16 1.355-.413l95.743-55.287c1.684-.968 3.039-2.197 3.039-4.125V5.966c-.002-.537-.217-1.052-.597-1.432s-.894-.594-1.432-.597l-.008.008z" class="D"/><path d="M285.732 5.083v.842a2.03 2.03 0 0 0-1.045-1.7c-.305-.169-.649-.257-.999-.254a2.03 2.03 0 0 0-.995.27l-95.76 55.288c-.918.526-1.679 1.288-2.206 2.206v.067l-5.892-3.418c.373-.688.918-1.268 1.582-1.683L277.768.537c.679-.347 1.431-.527 2.193-.527a4.82 4.82 0 0 1 2.193.527l1.372.783c.638.41 1.169.964 1.553 1.618s.606 1.389.653 2.145z" class="K"/><path d="M196.091 85.051h-.135l-.067-.067-1.448-2.525v3.283a.45.45 0 0 1-.042.177.19.19 0 0 1-.039.069c-.017.02-.038.037-.062.049l-.412.244h-.101c-.03-.035-.045-.08-.042-.126v-5.143a.45.45 0 0 1 .042-.177c.008-.025.021-.049.038-.069a.21.21 0 0 1 .063-.049l.362-.211h.134l.068.076 1.448 2.475v-3.283a.45.45 0 0 1 .042-.177c.019-.049.055-.091.101-.118l.412-.244c.015-.011.032-.017.051-.017s.036.006.05.017c.03.035.045.08.042.126v5.152a.45.45 0 0 1-.042.177.28.28 0 0 1-.101.118l-.362.244zm1.263-3.881a2.34 2.34 0 0 1 .101-.412 2.41 2.41 0 0 1 .21-.48c.094-.169.207-.328.337-.471a1.82 1.82 0 0 1 .463-.379c.143-.088.304-.143.471-.16a.47.47 0 0 1 .371.101.78.78 0 0 1 .235.387 2.43 2.43 0 0 1 .085.673v2.34a.47.47 0 0 1-.042.177c0 .059-.059.101-.101.118l-.396.227c-.013.012-.029.019-.046.019a.07.07 0 0 1-.047-.019c-.013-.012-.029-.036-.036-.058s-.01-.045-.006-.068v-.261a2.25 2.25 0 0 1-.32.572 1.5 1.5 0 0 1-.513.463 1.02 1.02 0 0 1-.404.143c-.107.009-.213-.024-.295-.093a.73.73 0 0 1-.185-.286 1.48 1.48 0 0 1-.059-.463 2.04 2.04 0 0 1 .253-1.002 2.83 2.83 0 0 1 .673-.842l.842-.707c0-.219-.051-.345-.143-.387a.43.43 0 0 0-.18-.003.42.42 0 0 0-.165.071c-.076.045-.144.102-.202.168-.054.075-.102.154-.144.236a.45.45 0 0 1-.084.135.23.23 0 0 1-.084.076l-.48.278h-.092c-.026 0-.017-.034-.017-.093zm.842 1.751c.116-.07.221-.158.311-.261a1.6 1.6 0 0 0 .236-.337c.056-.116.101-.237.134-.362.033-.115.049-.234.051-.354v-.084l-.707.598a1.22 1.22 0 0 0-.303.345.6.6 0 0 0-.093.337c0 .118 0 .177.11.185a.42.42 0 0 0 .286-.067h-.025zm2.786-4.469c.075-.188.177-.364.303-.522a1.14 1.14 0 0 1 .37-.337.69.69 0 0 1 .252-.118c.092-.022.186-.025.279-.008.142.058.259.165.328.303.044-.13.098-.256.16-.379a2.3 2.3 0 0 1 .21-.337 1.88 1.88 0 0 1 .236-.269 2.14 2.14 0 0 1 .219-.151.72.72 0 0 1 .496-.126.5.5 0 0 1 .183.076.48.48 0 0 1 .137.142 1.37 1.37 0 0 1 .169.497c.035.225.052.454.05.682V80a.45.45 0 0 1-.042.177c-.024.046-.059.087-.101.118l-.396.227c-.012.012-.029.018-.046.018a.07.07 0 0 1-.046-.018.17.17 0 0 1-.037-.058c-.008-.022-.009-.046-.005-.068v-2.079a1.14 1.14 0 0 0-.135-.682c-.093-.093-.219-.084-.379 0a.84.84 0 0 0-.353.412 1.89 1.89 0 0 0-.16.842v2.138a.45.45 0 0 1-.042.177c-.009.025-.022.049-.039.069a.21.21 0 0 1-.062.049l-.388.227h-.101c-.029-.039-.043-.086-.042-.135V79.31a1.06 1.06 0 0 0-.134-.673c-.096-.09-.222-.09-.379 0a.98.98 0 0 0-.362.429 1.93 1.93 0 0 0-.152.842v2.104c.001.056-.011.111-.035.162s-.057.096-.099.133l-.396.227c-.015.01-.032.015-.05.015s-.036-.005-.051-.015c-.015-.041-.015-.086 0-.126v-3.712a.48.48 0 0 1 0-.177c.023-.048.058-.088.101-.118l.396-.236c.013-.01.029-.016.046-.016s.033.006.046.016c.017.04.017.086 0 .126l.051.16zm3.948-.607c.001-.3.032-.599.092-.892a4.41 4.41 0 0 1 .253-.842 3.02 3.02 0 0 1 .404-.682 1.69 1.69 0 0 1 .522-.471.84.84 0 0 1 .53-.143.6.6 0 0 1 .396.21c.122.145.211.314.261.497.061.236.089.48.084.724v.387a.35.35 0 0 1-.042.177c-.02.049-.052.093-.093.126l-1.734.993a.71.71 0 0 0 .051.295.32.32 0 0 0 .134.16c.063.022.131.022.194 0a.65.65 0 0 0 .219-.084.97.97 0 0 0 .269-.202 1.13 1.13 0 0 0 .169-.236l.092-.135a.34.34 0 0 1 .101-.084l.413-.236h.101s.042.067.042.135c-.012.113-.04.224-.084.328a2.55 2.55 0 0 1-.219.471 3.9 3.9 0 0 1-.371.505c-.152.16-.324.299-.513.412a.89.89 0 0 1-.522.143.53.53 0 0 1-.225-.06.54.54 0 0 1-.179-.15 1.3 1.3 0 0 1-.253-.53 3.35 3.35 0 0 1-.092-.817zm1.271-1.928a.91.91 0 0 0-.253.219.96.96 0 0 0-.176.278 1.44 1.44 0 0 0-.118.303c-.024.091-.041.184-.051.278l1.17-.673a1.08 1.08 0 0 0 0-.227.38.38 0 0 0-.092-.185.22.22 0 0 0-.08-.058c-.031-.013-.064-.019-.097-.017-.107-.004-.213.025-.303.084z" class="I F"/><path d="M212.548 57.273c-.179.104-.338.238-.472.396a2.43 2.43 0 0 0-.311.505 3.47 3.47 0 0 0-.177.572c0 .202-.067.404-.084.614s0 .269 0 .471v.606.606.455c.012.173.041.345.084.513a.95.95 0 0 0 .177.37c.041.045.09.08.145.105a.44.44 0 0 0 .175.038.84.84 0 0 0 .463-.151 1.84 1.84 0 0 0 .412-.311 1.86 1.86 0 0 0 .329-.429 2.66 2.66 0 0 0 .227-.564 3.04 3.04 0 0 0 .076-.699l-.691.404c-.022.019-.05.029-.08.029s-.057-.01-.08-.029a.3.3 0 0 1-.067-.21v-1.347c.003-.099.026-.196.067-.286a.48.48 0 0 1 .16-.194l2.004-1.153c.022-.018.051-.029.08-.029s.057.01.08.029c.045.06.066.135.059.21v1.625c.004.534-.061 1.066-.194 1.583a6.84 6.84 0 0 1-.547 1.423 5.63 5.63 0 0 1-.842 1.162 4.12 4.12 0 0 1-1.018.842c-.319.203-.684.319-1.061.337a1.17 1.17 0 0 1-.8-.286c-.245-.227-.42-.519-.505-.842a4.67 4.67 0 0 1-.21-1.212v-1.111-1.162c.019-.488.087-.973.202-1.448a7.31 7.31 0 0 1 .513-1.397 5.55 5.55 0 0 1 .8-1.204 4.09 4.09 0 0 1 1.061-.892c.314-.198.673-.314 1.043-.337a1.34 1.34 0 0 1 .792.202 1.58 1.58 0 0 1 .505.589 2.17 2.17 0 0 1 .202.842.56.56 0 0 1-.051.227.44.44 0 0 1-.134.16l-1.103.631c-.084.05-.152.05-.194 0l-.134-.151a.7.7 0 0 0-.32-.236c-.113-.039-.306.006-.581.135zm4.705 1.742c-.008.153.017.305.076.446.03.088.094.16.177.202a.37.37 0 0 0 .236 0 1.03 1.03 0 0 0 .261-.109 1.69 1.69 0 0 0 .395-.303 1.51 1.51 0 0 0 .244-.354l.127-.227a.52.52 0 0 1 .143-.109l1.077-.623c.118-.067.185 0 .185.177-.018.184-.061.365-.126.539a5.21 5.21 0 0 1-.387.842c-.194.34-.42.662-.674.96-.278.334-.611.619-.984.842a1.97 1.97 0 0 1-.96.312.92.92 0 0 1-.378-.06c-.12-.046-.23-.118-.321-.209a1.81 1.81 0 0 1-.437-.842 5.69 5.69 0 0 1-.144-1.364 7.57 7.57 0 0 1 .144-1.448c.094-.464.241-.916.437-1.347a4.76 4.76 0 0 1 .699-1.12c.266-.337.591-.622.96-.842a1.63 1.63 0 0 1 1.027-.286 1.09 1.09 0 0 1 .698.412 2.13 2.13 0 0 1 .387.892c.084.381.123.771.118 1.162v.354c.015.124-.005.249-.059.362a.48.48 0 0 1-.16.194l-2.761 1.549zm.75-2.879a1.24 1.24 0 0 0-.531.631 2.54 2.54 0 0 0-.219.842l1.49-.842c-.006-.214-.079-.42-.21-.589s-.303-.168-.53-.042zm4.932-.395c-.01.14.02.28.085.404.058.076.143.076.277 0l.657-.379c.022-.02.05-.031.08-.031s.058.011.08.031c.024.027.042.06.054.094a.28.28 0 0 1 .013.108v1.305a.67.67 0 0 1-.067.278.38.38 0 0 1-.16.194l-.783.455c-.211.139-.455.22-.707.236-.198.014-.395-.049-.547-.177-.168-.164-.287-.371-.345-.598a3.19 3.19 0 0 1-.127-.976v-2.146l-.614.353c-.021.018-.048.028-.076.028a.12.12 0 0 1-.076-.028.24.24 0 0 1-.056-.093c-.011-.035-.016-.072-.011-.109v-1.305a.56.56 0 0 1 .067-.278.42.42 0 0 1 .152-.194l.614-.353v-2.08a.69.69 0 0 1 .068-.278c.029-.081.086-.149.16-.194l1.043-.606c.021-.02.048-.03.076-.03a.11.11 0 0 1 .076.03.25.25 0 0 1 .055.094c.012.035.016.072.012.108v2.079l.935-.547c.022-.018.051-.029.08-.029s.057.01.08.029c.024.028.042.06.053.094a.28.28 0 0 1 .014.108v1.288a.67.67 0 0 1-.067.278c-.03.081-.087.149-.16.194l-.935.539v2.104zm5.194-8.09c-.003.099-.026.196-.067.286-.032.08-.088.147-.16.194l-1.044.598c-.021.018-.048.028-.076.028s-.054-.01-.076-.028c-.023-.028-.042-.06-.053-.094a.3.3 0 0 1-.014-.108V47.23a.71.71 0 0 1 .067-.286.46.46 0 0 1 .152-.194l1.044-.598h.16c.024.028.042.06.054.094a.28.28 0 0 1 .013.108v1.296zm0 7.332a.67.67 0 0 1-.067.278.35.35 0 0 1-.16.194l-1.044.606c-.021.018-.048.028-.076.028s-.054-.01-.076-.028a.28.28 0 0 1-.054-.099c-.011-.037-.016-.074-.013-.112v-5.892a.71.71 0 0 1 .067-.286.46.46 0 0 1 .152-.194l1.044-.598h.16c.024.028.042.06.054.094a.28.28 0 0 1 .013.108v5.901zm5.379-3.098a.67.67 0 0 1-.067.278.49.49 0 0 1-.16.194l-1.044.598c-.023.018-.051.029-.08.029s-.057-.01-.08-.029c-.024-.028-.042-.06-.054-.094a.28.28 0 0 1-.013-.108V49.52c.026-.272-.032-.546-.169-.783-.118-.152-.303-.16-.547 0a1.26 1.26 0 0 0-.547.648 2.69 2.69 0 0 0-.168.977v3.207a.57.57 0 0 1-.068.278c-.029.078-.082.146-.151.194l-1.044.606h-.16a.31.31 0 0 1-.067-.21v-5.951a.67.67 0 0 1 .067-.278.38.38 0 0 1 .16-.194l1.002-.572c.021-.02.05-.031.08-.031a.12.12 0 0 1 .08.031c.045.057.066.13.059.202v.295l.168-.362a2.1 2.1 0 0 1 .244-.387 3.22 3.22 0 0 1 .32-.37 2.17 2.17 0 0 1 .438-.32 1.74 1.74 0 0 1 .732-.253.77.77 0 0 1 .303.044c.096.035.185.089.261.158a1.51 1.51 0 0 1 .37.699 4.78 4.78 0 0 1 .135 1.221v3.519zm4.495-4.84c-.014.14.016.281.084.404.051.076.143.076.27 0l.665-.387c.021-.018.048-.028.075-.028s.055.01.076.028c.026.026.045.058.057.093s.015.072.01.109v1.288a.56.56 0 0 1-.067.278.42.42 0 0 1-.151.194l-.792.455a1.56 1.56 0 0 1-.707.236c-.097.008-.196-.005-.288-.037a.71.71 0 0 1-.25-.148 1.21 1.21 0 0 1-.354-.589c-.088-.318-.128-.647-.118-.976v-2.13l-.614.353a.12.12 0 0 1-.08.031c-.03 0-.059-.011-.08-.031-.024-.028-.043-.06-.054-.094a.28.28 0 0 1-.014-.108V44.69a.69.69 0 0 1 .068-.278.42.42 0 0 1 .16-.194l.614-.354v-2.079a.65.65 0 0 1 .059-.278c.033-.079.089-.147.16-.194l1.044-.606c.022-.018.051-.029.08-.029s.057.01.08.029c.024.029.043.062.055.098s.015.074.012.112v2.046l.934-.539a.13.13 0 0 1 .08-.028c.029 0 .058.01.08.028.046.057.067.13.059.202v1.288a.65.65 0 0 1-.059.278.48.48 0 0 1-.16.194l-.934.539v2.121zm6.263-4.832v.48.497a5.36 5.36 0 0 1-.177 1.254c-.107.417-.26.82-.455 1.204a5.16 5.16 0 0 1-.698 1.035 3.7 3.7 0 0 1-.918.758c-.275.176-.591.278-.917.295a1.02 1.02 0 0 1-.699-.227c-.211-.178-.368-.411-.454-.673-.117-.336-.179-.688-.186-1.044v-.48-.497c.011-.423.07-.844.177-1.254s.26-.815.455-1.195a5.38 5.38 0 0 1 .707-1.044c.26-.305.57-.564.917-.766a1.88 1.88 0 0 1 .918-.295 1.06 1.06 0 0 1 .698.236 1.37 1.37 0 0 1 .455.673 3.17 3.17 0 0 1 .177 1.044zm-3.047 2.66a.83.83 0 0 0 .049.335c.039.107.1.205.178.288a.47.47 0 0 0 .539 0c.229-.138.414-.34.53-.581a2.18 2.18 0 0 0 .227-.892 3.69 3.69 0 0 0 0-.446 2.96 2.96 0 0 0 0-.421c.006-.114-.01-.228-.049-.335a.86.86 0 0 0-.178-.288c-.135-.109-.312-.101-.53 0a1.38 1.38 0 0 0-.539.581c-.14.278-.217.582-.227.892v.438.429zm3.788-5.572a.67.67 0 0 1 .067-.278.37.37 0 0 1 .152-.194l1.052-.606c.021-.018.048-.028.075-.028s.055.01.076.028a.31.31 0 0 1 .068.211v3.224c-.021.273.034.547.16.791.101.16.277.168.521 0 .244-.14.427-.365.514-.631.107-.311.158-.639.151-.968v-3.19a.69.69 0 0 1 .068-.278c.033-.079.088-.147.16-.194l1.044-.606a.12.12 0 0 1 .079-.029c.029 0 .058.01.08.029.045.061.066.136.059.21v5.943a.65.65 0 0 1-.059.278.48.48 0 0 1-.159.194l-.96.556c-.023.019-.051.029-.08.029s-.058-.01-.08-.029c-.024-.028-.042-.06-.054-.094a.28.28 0 0 1-.013-.108v-.295a2.9 2.9 0 0 1-.16.37c-.067.134-.145.26-.236.379a3.32 3.32 0 0 1-.328.37 2.15 2.15 0 0 1-.438.32c-.539.311-.968.32-1.28 0-.402-.56-.574-1.253-.479-1.936v-3.468zm6.608-1.297v.463.438a.84.84 0 0 0 .227.606c.126.109.303.101.522 0a1.3 1.3 0 0 0 .421-.362c.102-.144.182-.303.235-.471a1.58 1.58 0 0 1 .101-.236.34.34 0 0 1 .143-.16l1.086-.631c.024-.016.052-.024.08-.024s.057.008.08.024a.25.25 0 0 1 .053.099c.01.037.012.075.006.112a3.65 3.65 0 0 1-.109.665 4.28 4.28 0 0 1-.345.977c-.18.383-.406.742-.674 1.069-.297.369-.663.678-1.077.909-.255.16-.543.261-.842.295a1.07 1.07 0 0 1-.707-.185c-.22-.161-.387-.384-.48-.64a3.19 3.19 0 0 1-.194-1.111v-.505-.513a5.39 5.39 0 0 1 .194-1.33 5.74 5.74 0 0 1 .48-1.204 5.06 5.06 0 0 1 .707-.993c.244-.273.528-.509.842-.699.318-.216.693-.334 1.077-.337a1.13 1.13 0 0 1 .674.286c.166.161.286.365.345.589.061.174.097.355.109.539.004.093-.016.186-.059.269-.032.081-.088.151-.16.202l-1.086.623c-.021.014-.046.022-.071.022s-.051-.008-.072-.022a.52.52 0 0 1-.101-.126.37.37 0 0 0-.095-.127.38.38 0 0 0-.14-.075.63.63 0 0 0-.421.126c-.229.136-.412.339-.522.581a2.16 2.16 0 0 0-.227.859zm8.123-1.245a.57.57 0 0 1-.068.278c-.029.078-.082.146-.151.194l-1.044.606h-.16c-.024-.028-.042-.06-.054-.094a.28.28 0 0 1-.013-.108v-3.241a1.42 1.42 0 0 0-.169-.783c-.118-.151-.303-.151-.547 0a1.21 1.21 0 0 0-.547.64 2.73 2.73 0 0 0-.168.976v3.224a.69.69 0 0 1-.068.286c-.029.081-.086.149-.16.194l-1.043.598a.11.11 0 0 1-.076.031.11.11 0 0 1-.076-.031c-.026-.026-.045-.058-.057-.093a.25.25 0 0 1-.01-.109v-8.384a.56.56 0 0 1 .067-.278c.03-.079.083-.146.152-.194l1.043-.606c.023-.018.051-.029.08-.029s.058.01.08.029c.024.028.043.06.054.094a.3.3 0 0 1 .014.108v2.719a3.54 3.54 0 0 1 .395-.766 2.29 2.29 0 0 1 .691-.648 1.61 1.61 0 0 1 .723-.244.72.72 0 0 1 .309.037c.099.035.189.091.264.165a1.48 1.48 0 0 1 .362.69 4.48 4.48 0 0 1 .135 1.221l.042 3.519z" class="B"/><path d="M193.296 90.354l84.161-48.596v7.475l-84.161 48.596v-7.475z" class="D"/><path d="M196.158 106.415c.014-.01.03-.016.047-.016s.033.006.046.016c.01.02.015.041.015.063s-.005.044-.015.063v.564c.015.058.015.119 0 .177a.3.3 0 0 1-.093.126l-2.272 1.305h-.101c-.029-.038-.044-.086-.042-.134v-5.144c.002-.061.016-.121.042-.176.008-.026.021-.049.038-.069s.039-.037.063-.049l2.23-1.288c.006-.007.013-.013.021-.017s.017-.006.026-.006.017.002.025.006.015.01.021.017c.017.016.029.036.037.058s.009.045.005.068v.564a.34.34 0 0 1-.042.177.23.23 0 0 1-.093.118l-1.683.968v1.262l1.557-.9c.015-.011.032-.017.051-.017s.036.006.05.017c.016.04.016.085 0 .126v.572a.4.4 0 0 1 0 .169.26.26 0 0 1-.101.126l-1.549.934v1.322l1.717-1.002zm1.406-3.56a2.31 2.31 0 0 1 .303-.531c.099-.133.222-.248.362-.336a.73.73 0 0 1 .539-.118c.072.025.137.065.192.117s.099.116.128.186a2.91 2.91 0 0 1 .379-.716 2.43 2.43 0 0 1 .227-.269c.087-.059.18-.107.278-.143.143-.099.315-.147.488-.135a.46.46 0 0 1 .185.078.48.48 0 0 1 .135.149 1.19 1.19 0 0 1 .168.489c.035.228.052.459.051.69v2.096a.32.32 0 0 1 0 .168c-.02.05-.052.093-.093.127l-.396.227c-.014.011-.032.017-.05.017s-.036-.006-.051-.017c-.015-.041-.015-.086 0-.126v-2.08c.032-.235-.015-.475-.134-.681-.084-.09-.211-.09-.379 0-.153.103-.275.245-.354.412-.111.266-.163.554-.151.842v2.146a.48.48 0 0 1 0 .177c-.022.048-.057.089-.101.118l-.396.227c-.012.012-.029.019-.046.019s-.034-.007-.046-.019c-.01-.019-.015-.041-.015-.063s.005-.043.015-.063v-2.104a1.14 1.14 0 0 0-.135-.682c-.093-.084-.219-.084-.379 0a.99.99 0 0 0-.362.429c-.114.265-.166.553-.151.842v2.104a.48.48 0 0 1 0 .177c-.02.052-.055.096-.101.126l-.388.228c-.014.01-.032.016-.05.016s-.036-.006-.051-.016c-.015-.041-.015-.086 0-.127v-3.72c-.011-.056-.011-.113 0-.169.02-.051.055-.096.101-.126l.388-.227c.014-.011.032-.017.05-.017s.036.006.051.017c.015.04.015.085 0 .126l-.211.135zm4.091-1.734a2.42 2.42 0 0 1 .093-.413c.057-.169.13-.333.219-.488a2.15 2.15 0 0 1 .336-.463 1.7 1.7 0 0 1 .463-.379 1.11 1.11 0 0 1 .472-.168.52.52 0 0 1 .37.109.75.75 0 0 1 .236.387 2.51 2.51 0 0 1 .076.674v2.348a.35.35 0 0 1-.042.177c-.02.047-.052.088-.093.118l-.396.227c-.014.013-.032.02-.05.02s-.037-.007-.051-.02c-.03-.035-.045-.08-.042-.126v-.261a2.01 2.01 0 0 1-.311.572 1.63 1.63 0 0 1-.522.463.94.94 0 0 1-.396.143c-.106.007-.211-.026-.294-.092a.65.65 0 0 1-.186-.286c-.046-.15-.069-.306-.067-.463.001-.354.09-.701.261-1.01a2.92 2.92 0 0 1 .673-.842l.842-.716c0-.21-.042-.345-.134-.378-.059-.017-.121-.019-.181-.007a.39.39 0 0 0-.165.074c-.08.037-.15.095-.202.168a1.26 1.26 0 0 0-.143.236l-.084.135c-.024.029-.052.055-.084.075l-.48.278c-.014.008-.03.013-.046.013s-.032-.005-.046-.013c0 0-.026-.034-.026-.092zm.842 1.742a1.27 1.27 0 0 0 .312-.253c.09-.101.167-.214.227-.336s.111-.241.143-.371c.03-.115.045-.234.042-.353v-.076l-.699.598c-.121.092-.224.206-.303.336a.66.66 0 0 0-.101.346c0 .109.042.176.118.185a.45.45 0 0 0 .261-.076zm2.668-6.305c.006-.007.013-.013.021-.016a.06.06 0 0 1 .026-.006c.009 0 .017.002.026.006s.015.01.02.016c.03.035.045.08.042.126v.623a.41.41 0 0 1-.042.168c-.02.049-.051.093-.093.126l-.446.253h-.101c-.015-.041-.015-.086 0-.126v-.623a.43.43 0 0 1 0-.168c.02-.052.055-.096.101-.126l.446-.253zm.11 5.371c-.002.061-.016.121-.042.176a.27.27 0 0 1-.101.127l-.387.227c-.015.011-.033.017-.051.017s-.036-.006-.05-.017c-.03-.035-.045-.08-.042-.126v-3.729a.43.43 0 0 1 .042-.168.25.25 0 0 1 .101-.126l.387-.227c.014-.011.032-.017.05-.017s.036.006.051.017c.03.035.045.08.042.126v3.721zm1.431-.8c-.002.061-.016.121-.042.177-.02.051-.055.096-.101.126l-.387.219h-.101c-.03-.039-.044-.086-.042-.135v-5.219c.001-.061.016-.121.042-.177a.25.25 0 0 1 .101-.126l.387-.227c.014-.011.032-.017.05-.017s.036.006.051.017c.03.035.045.08.042.126v5.236zm1.852-3.998a2.33 2.33 0 0 1 .092-.412c.056-.167.129-.328.219-.48a2.03 2.03 0 0 1 .337-.471 1.68 1.68 0 0 1 .463-.379c.143-.089.304-.146.471-.168a.48.48 0 0 1 .362.109c.122.097.206.234.236.387a2.16 2.16 0 0 1 .084.673v2.34a.34.34 0 0 1-.042.177c-.019.047-.051.088-.092.118l-.396.227c-.014.012-.032.019-.051.019s-.036-.007-.05-.019c-.03-.035-.045-.08-.042-.126v-.261a2.27 2.27 0 0 1-.312.572 1.62 1.62 0 0 1-.522.463.93.93 0 0 1-.395.143c-.107.007-.212-.026-.295-.093a.59.59 0 0 1-.185-.286c-.047-.15-.07-.306-.067-.463a2.03 2.03 0 0 1 .261-1.002 2.83 2.83 0 0 1 .673-.842l.842-.715c0-.211 0-.337-.135-.379-.059-.016-.12-.018-.18-.007s-.117.037-.165.074a.6.6 0 0 0-.202.168 1.27 1.27 0 0 0-.143.236l-.084.135c-.024.03-.052.055-.085.076l-.488.278c-.012.008-.027.013-.042.013a.08.08 0 0 1-.042-.013s-.034-.034-.025-.093zm.842 1.743c.115-.07.219-.154.311-.253s.167-.215.227-.337a1.5 1.5 0 0 0 .143-.37 1.61 1.61 0 0 0 0-.354v-.076l-.698.598a1.39 1.39 0 0 0-.312.337.73.73 0 0 0-.092.345c0 .118.042.177.118.185a.44.44 0 0 0 .328-.076h-.025zm3.148-5.144a.84.84 0 0 1 .286-.118.54.54 0 0 1 .227 0 .46.46 0 0 1 .16.067.4.4 0 0 1 .11.093v-1.684a.45.45 0 0 1 .042-.177c.011-.047.034-.091.067-.126l.396-.227c.014-.012.032-.019.05-.019s.037.007.051.019c.03.035.045.08.042.126v5.227a.45.45 0 0 1-.042.177c-.02.049-.055.091-.101.118l-.396.227c-.012.012-.029.018-.046.018a.07.07 0 0 1-.046-.018c-.03-.035-.046-.08-.043-.126v-.185c0 .067-.067.135-.109.219a2.09 2.09 0 0 1-.16.252c-.069.087-.145.169-.227.244a1.56 1.56 0 0 1-.286.219.69.69 0 0 1-.472.109.59.59 0 0 1-.353-.202c-.11-.136-.19-.294-.236-.463a2.6 2.6 0 0 1-.093-.657v-.269-.286a4.03 4.03 0 0 1 .093-.758 3.85 3.85 0 0 1 .236-.732 3.42 3.42 0 0 1 .353-.623 1.47 1.47 0 0 1 .497-.446zm-.48 2.205a4.15 4.15 0 0 0 0 .446c0 .328.084.539.202.623a.38.38 0 0 0 .429 0 1.15 1.15 0 0 0 .43-.48c.124-.243.193-.51.202-.783v-.303c.005-.098.005-.197 0-.295.004-.1-.011-.2-.046-.294a.76.76 0 0 0-.156-.253.38.38 0 0 0-.43 0c-.184.118-.332.284-.429.48-.129.268-.198.561-.202.859zm3.687-4.057a.79.79 0 0 1 .286-.118.49.49 0 0 1 .219 0 .36.36 0 0 1 .168.059l.11.093v-1.684a.44.44 0 0 1 0-.177.48.48 0 0 1 .101-.118l.395-.227c.014-.01.03-.016.047-.016s.033.006.046.016c.017.016.029.036.037.058s.009.045.005.068v5.227a.34.34 0 0 1-.042.177c-.017.049-.049.09-.093.118l-.395.227c-.014.012-.032.019-.051.019s-.036-.007-.05-.019c-.015-.044-.015-.091 0-.135v-.177l-.11.21c-.05.088-.106.172-.168.252a1.99 1.99 0 0 1-.219.253 1.79 1.79 0 0 1-.286.21.76.76 0 0 1-.471.118.56.56 0 0 1-.354-.21c-.11-.136-.19-.294-.236-.463-.062-.21-.093-.429-.092-.648v-.278-.286c.003-.255.034-.509.092-.758a4.28 4.28 0 0 1 .236-.732 2.63 2.63 0 0 1 .354-.623c.125-.177.285-.326.471-.438zm-.488 2.205a3.69 3.69 0 0 0 0 .446c0 .328.092.539.21.623a.38.38 0 0 0 .43 0c.184-.118.332-.284.429-.48a1.99 1.99 0 0 0 .202-.775v-.311-.295a.77.77 0 0 0-.047-.29c-.035-.092-.088-.177-.155-.249-.062-.047-.137-.073-.215-.073a.35.35 0 0 0-.214.073 1.13 1.13 0 0 0-.43.471 2.15 2.15 0 0 0-.21.859zm3.914-3.139c-.197.106-.356.27-.455.471a1.93 1.93 0 0 0-.134.766v2.071a.35.35 0 0 1-.042.177.23.23 0 0 1-.093.118l-.396.227c-.013.013-.031.019-.05.019s-.037-.007-.051-.019c-.03-.035-.045-.08-.042-.126v-3.704a.47.47 0 0 1 .042-.177c.009-.025.022-.049.039-.069a.21.21 0 0 1 .062-.049l.396-.227c.013-.012.029-.019.046-.019a.07.07 0 0 1 .047.019c.013.012.029.036.036.058s.009.045.006.068v.185a2.62 2.62 0 0 1 .286-.463 1.35 1.35 0 0 1 .404-.337l.236-.135c.013-.01.029-.016.046-.016a.07.07 0 0 1 .046.016c.017.016.03.036.037.058s.009.045.005.068v.53c.004.059-.011.118-.042.168-.019.049-.051.093-.092.126l-.337.194zm.724.681a4.61 4.61 0 0 1 .093-.892 4.06 4.06 0 0 1 .252-.842 2.9 2.9 0 0 1 .404-.69 1.69 1.69 0 0 1 .522-.471.84.84 0 0 1 .522-.143.6.6 0 0 1 .404.21 1.26 1.26 0 0 1 .261.497 2.72 2.72 0 0 1 .084.724v.353a.34.34 0 0 1-.042.177c-.02.049-.051.093-.093.126l-1.734.993a.71.71 0 0 0 .051.295.32.32 0 0 0 .135.16c.062.023.131.023.193 0a.64.64 0 0 0 .219-.084.97.97 0 0 0 .269-.202c.067-.071.123-.15.169-.236l.092-.135a.34.34 0 0 1 .101-.084l.413-.236h.101c.017.016.029.036.036.058s.01.045.006.068a1.15 1.15 0 0 1-.084.337 3.38 3.38 0 0 1-.219.471 3.9 3.9 0 0 1-.371.505c-.149.162-.322.301-.513.412-.156.099-.337.151-.522.151-.079-.007-.155-.029-.225-.067a.57.57 0 0 1-.179-.152c-.124-.155-.21-.337-.252-.53a3.37 3.37 0 0 1-.093-.774zm1.271-1.928a.91.91 0 0 0-.253.219 1.24 1.24 0 0 0-.185.278 2.17 2.17 0 0 0-.109.303 1.87 1.87 0 0 0-.051.278l1.17-.673a.96.96 0 0 0 0-.227c-.017-.068-.048-.131-.092-.185a.23.23 0 0 0-.177-.076c-.107-.004-.213.025-.303.084zm3.3.178c.015-.041.015-.086 0-.126a.18.18 0 0 0-.127 0c-.081-.009-.162-.009-.244 0l-.378.093a.84.84 0 0 1-.379 0 .43.43 0 0 1-.244-.135.68.68 0 0 1-.127-.295 2.96 2.96 0 0 1 0-.421 1.98 1.98 0 0 1 .076-.513 2.29 2.29 0 0 1 .211-.53 2.48 2.48 0 0 1 .328-.48 1.69 1.69 0 0 1 .454-.37 1.23 1.23 0 0 1 .447-.177.65.65 0 0 1 .345 0c.094.045.17.118.219.21a.79.79 0 0 1 .084.32c.006.062-.009.124-.042.177-.02.052-.055.096-.101.126l-.396.227c-.018.009-.038.014-.059.014s-.04-.005-.059-.014l-.084-.05c-.041-.011-.085-.011-.126 0a.55.55 0 0 0-.228.093.84.84 0 0 0-.277.236c-.076.089-.118.203-.118.32a.28.28 0 0 0 0 .135c.014.014.031.025.05.033s.039.01.059.009h.228l.37-.093a.63.63 0 0 1 .338-.042.62.62 0 0 1 .31.143c.144.2.21.445.185.69-.001.171-.027.341-.075.505-.053.189-.129.37-.228.539a2.24 2.24 0 0 1-.362.497c-.14.152-.301.282-.48.387a1.11 1.11 0 0 1-.488.177c-.12.019-.243.001-.353-.051a.52.52 0 0 1-.219-.227c-.052-.108-.081-.225-.084-.345-.017-.058-.017-.119 0-.177.022-.048.057-.088.101-.118l.404-.236c.018-.01.038-.016.059-.016s.041.005.059.016l.084.076c.017.017.039.031.062.04s.048.012.072.011a.63.63 0 0 0 .27-.101l.16-.101.151-.143.118-.16a.46.46 0 0 0 .034-.151zm2.693-1.558c.008-.019.012-.039.012-.059s-.004-.04-.012-.059c-.04-.016-.085-.016-.126 0h-.244l-.379.093a.84.84 0 0 1-.379 0c-.095-.018-.181-.069-.244-.143-.065-.084-.108-.182-.126-.286-.014-.14-.014-.281 0-.421a2.28 2.28 0 0 1 .067-.514 2.59 2.59 0 0 1 .548-1.018 1.68 1.68 0 0 1 .446-.37 1.43 1.43 0 0 1 .454-.177.62.62 0 0 1 .337 0 .43.43 0 0 1 .219.202c.054.101.086.213.092.328.015.058.015.119 0 .177-.008.025-.021.049-.038.069s-.039.037-.063.049l-.395.236h-.118l-.084-.051c-.042-.01-.085-.01-.127 0a.49.49 0 0 0-.235.093 1 1 0 0 0-.27.227c-.079.087-.121.202-.117.32-.012.044-.012.09 0 .135.013.015.031.026.049.034s.04.01.06.008h.219l.37-.093c.314-.079.533-.045.657.101a1.03 1.03 0 0 1 .185.69 1.94 1.94 0 0 1-.076.513 2.45 2.45 0 0 1-.227.539 2.9 2.9 0 0 1-.362.497c-.142.151-.306.279-.488.379a1.19 1.19 0 0 1-.48.185.58.58 0 0 1-.354-.059.54.54 0 0 1-.227-.227c-.052-.108-.078-.226-.076-.345a.32.32 0 0 1 0-.168c.025-.048.06-.091.101-.126l.404-.227h.11l.092.084c.039.029.087.044.135.042a.46.46 0 0 0 .261-.093l.168-.109.152-.143a1.16 1.16 0 0 0 .118-.16.43.43 0 0 0-.009-.152z" class="I F"/><path d="M193.296 112.779l84.161-48.595v7.475l-84.161 48.596v-7.475z" class="D"/><g class="I F"><path d="M195.443 127.518l.985-3.198a1.29 1.29 0 0 1 .067-.169c.031-.073.084-.134.152-.176l.353-.202c.015-.01.033-.015.051-.015s.035.005.05.015c.016.04.016.085 0 .126v5.151a.44.44 0 0 1 0 .177c-.024.046-.059.087-.101.118l-.421.244c-.015.01-.032.015-.05.015s-.036-.005-.051-.015c-.015-.04-.015-.085 0-.126v-3.115l-.665 2.181a.97.97 0 0 1-.075.168c-.026.058-.066.107-.118.143l-.27.152h-.117a.34.34 0 0 1-.076-.085l-.674-1.405v3.114c-.002.061-.016.121-.042.177-.019.05-.055.091-.101.118l-.412.244c-.015.011-.033.017-.051.017s-.036-.006-.05-.017c-.03-.035-.045-.08-.042-.126v-5.152c.002-.061.016-.121.042-.177.019-.049.055-.091.101-.118l.345-.202c.076-.042.126-.042.16 0l.067.085.943 2.053zm2.323-.681a4.77 4.77 0 0 1 .084-.893c.054-.288.139-.571.253-.841.106-.246.241-.478.404-.691a1.85 1.85 0 0 1 .53-.471.84.84 0 0 1 .522-.143.6.6 0 0 1 .404.21c.122.144.209.314.253.497.063.236.094.48.092.724v.353c-.002.062-.016.122-.042.177a.25.25 0 0 1-.101.126l-1.683.994a.72.72 0 0 0 .05.294.35.35 0 0 0 .127.16.29.29 0 0 0 .193 0 .53.53 0 0 0 .227-.084.92.92 0 0 0 .261-.202 1.13 1.13 0 0 0 .177-.236.73.73 0 0 1 .093-.134c.028-.035.062-.063.101-.084l.412-.236c.014-.013.032-.019.051-.019s.036.006.05.019c.011.021.016.044.016.067s-.005.047-.016.068c-.008.112-.033.223-.075.328-.06.164-.137.322-.228.471a3.21 3.21 0 0 1-.37.505c-.145.164-.316.304-.505.413-.159.1-.343.152-.531.151-.078-.007-.154-.031-.224-.068a.58.58 0 0 1-.18-.151c-.123-.155-.21-.336-.252-.53-.061-.254-.092-.513-.093-.774zm1.271-1.928a.98.98 0 0 0-.261.219c-.068.086-.127.179-.176.278a1.41 1.41 0 0 0-.11.303 2 2 0 0 0-.05.278l1.17-.674a2.15 2.15 0 0 0 0-.227c-.014-.069-.046-.133-.093-.185-.02-.025-.046-.045-.075-.058s-.061-.019-.093-.018c-.111-.008-.22.021-.312.084zm3.3.177c.012-.041.012-.085 0-.126-.043-.016-.091-.016-.135 0-.079.005-.158.019-.235.042l-.387.092a.83.83 0 0 1-.371 0 .41.41 0 0 1-.244-.134.68.68 0 0 1-.126-.295c-.014-.14-.014-.281 0-.421a1.93 1.93 0 0 1 .067-.513c.052-.184.122-.362.211-.531a2.53 2.53 0 0 1 .336-.479c.125-.151.276-.276.446-.371.138-.089.293-.15.455-.177a.62.62 0 0 1 .337 0c.095.043.172.117.219.211.054.101.086.213.092.328.011.056.011.113 0 .169-.022.05-.057.093-.101.126l-.396.227c-.018.008-.038.013-.058.013s-.041-.005-.059-.013l-.085-.05c-.041-.014-.085-.014-.126 0-.084.008-.165.037-.236.084a.89.89 0 0 0-.269.235c-.081.087-.127.201-.126.32a.28.28 0 0 0 0 .135c.013.016.03.028.049.036s.04.009.06.006h.219l.371-.093c.311-.075.521 0 .648.101.146.199.215.445.193.691-.001.171-.027.341-.075.505a3.31 3.31 0 0 1-.228.539c-.1.179-.222.346-.362.496a2.04 2.04 0 0 1-.488.387c-.144.095-.308.156-.48.177a.59.59 0 0 1-.353-.05c-.099-.049-.179-.129-.228-.228a.95.95 0 0 1-.084-.345c.002-.061.017-.121.042-.177.009-.025.022-.048.039-.069s.039-.036.062-.048l.396-.236h.118l.092.076c.018.017.039.031.062.039a.18.18 0 0 0 .073.011c.095-.009.185-.044.261-.101.057-.027.111-.061.16-.101.056-.041.107-.089.152-.143.047-.047.087-.101.117-.16.009-.063 0-.127-.025-.185z"/><path d="M205.022 123.529c.002-.022-.001-.043-.008-.064s-.019-.039-.034-.054c-.04-.016-.085-.016-.126 0-.079.009-.158.023-.236.042l-.387.093c-.124.028-.254.028-.379 0-.093-.019-.176-.07-.235-.144a.5.5 0 0 1-.127-.286c-.028-.138-.042-.279-.042-.421a1.9 1.9 0 0 1 .076-.513 2.38 2.38 0 0 1 .21-.53c.092-.174.202-.338.329-.489s.285-.271.454-.37a1.59 1.59 0 0 1 .455-.177.62.62 0 0 1 .337 0c.093.042.17.113.218.202.052.102.081.214.085.329a.33.33 0 0 1 0 .176.37.37 0 0 1-.101.118l-.404.227c-.051 0-.085.043-.11 0a.25.25 0 0 1-.092-.05c-.039-.011-.08-.011-.118 0-.085.013-.165.044-.236.093-.104.061-.197.137-.278.227a.48.48 0 0 0-.118.328c-.014.041-.014.086 0 .126h.101.228l.37-.092c.107-.045.224-.06.339-.042a.62.62 0 0 1 .309.143c.146.199.214.444.194.69-.006.174-.034.347-.084.513a2.9 2.9 0 0 1-.219.539 4.02 4.02 0 0 1-.362.497 2.33 2.33 0 0 1-.488.379 1.27 1.27 0 0 1-.489.185c-.121.016-.244-.004-.353-.059a.52.52 0 0 1-.219-.227.9.9 0 0 1-.084-.345c-.002-.059.013-.117.042-.169.019-.052.055-.096.101-.126l.396-.227h.117l.085.075c.042.029.092.044.143.042.094-.004.185-.036.261-.092l.16-.11a.82.82 0 0 0 .151-.143.69.69 0 0 0 .118-.16.34.34 0 0 0 .05-.134zm1.229-2.644a2.75 2.75 0 0 1 .101-.412c.053-.167.123-.328.211-.48.094-.17.207-.328.337-.471a1.77 1.77 0 0 1 .463-.371c.141-.094.302-.151.471-.168a.5.5 0 0 1 .37.101.79.79 0 0 1 .236.387 2.51 2.51 0 0 1 .084.674v2.34c-.002.061-.016.121-.042.176 0 .059-.059.101-.101.118l-.396.228a.07.07 0 0 1-.046.018.07.07 0 0 1-.046-.018c-.016-.019-.028-.04-.035-.063s-.01-.048-.007-.072v-.261a2.31 2.31 0 0 1-.32.572 1.5 1.5 0 0 1-.514.463c-.121.08-.259.129-.404.143a.43.43 0 0 1-.294-.084c-.084-.083-.147-.183-.185-.294a1.43 1.43 0 0 1-.059-.455c-.005-.353.082-.701.252-1.01a2.94 2.94 0 0 1 .674-.842l.841-.707c0-.219-.05-.345-.143-.387a.42.42 0 0 0-.18-.003c-.059.011-.115.035-.165.07a.7.7 0 0 0-.202.177c-.055.071-.103.147-.143.227a.47.47 0 0 1-.084.135c-.022.032-.051.058-.084.076l-.48.277c-.013.012-.029.019-.046.019a.07.07 0 0 1-.047-.019s-.025-.025-.017-.084zm.842 1.751a1.15 1.15 0 0 0 .312-.261c.092-.1.169-.213.227-.336.062-.115.11-.236.143-.362a1.37 1.37 0 0 0 .05-.354v-.076l-.707.598c-.122.095-.224.212-.303.345-.064.103-.097.223-.092.345 0 .11 0 .169.109.177.051.008.102.005.151-.008s.095-.036.135-.068h-.025zm3.291-.21a.83.83 0 0 0 .219-.185c.084-.082.154-.176.211-.278a2.05 2.05 0 0 0 .151-.37 1.51 1.51 0 0 0 .059-.438v-.295a1.72 1.72 0 0 1-.109.219c-.042.076-.101.16-.16.244-.071.089-.147.173-.227.253a1.48 1.48 0 0 1-.287.21c-.136.09-.299.132-.463.118a.6.6 0 0 1-.362-.21c-.09-.136-.153-.287-.185-.447-.061-.21-.095-.428-.101-.648v-.564a4.11 4.11 0 0 1 .101-.757c.052-.251.128-.497.228-.733.095-.221.216-.43.362-.623a1.67 1.67 0 0 1 .462-.42c.09-.053.186-.093.287-.118a.51.51 0 0 1 .227 0c.057.005.113.026.16.059.041.024.078.055.109.092v-.185c.002-.061.017-.121.042-.177.02-.049.055-.091.101-.118l.388-.227c.014-.012.032-.019.05-.019s.037.007.051.019c.03.035.045.08.042.126v3.738a3.74 3.74 0 0 1-.345 1.683c-.212.437-.549.801-.968 1.044a1.28 1.28 0 0 1-.489.177c-.134.016-.271-.004-.395-.059-.111-.06-.201-.15-.261-.261-.069-.121-.106-.257-.11-.396a.35.35 0 0 1 .042-.176.27.27 0 0 1 .101-.127l.346-.202c.017-.014.04-.022.063-.022s.045.008.063.022l.092.085c.019.033.046.061.078.081a.24.24 0 0 0 .108.036c.119-.018.23-.071.319-.151zm-.622-2.736c-.009.149-.009.298 0 .446 0 .337.092.539.21.623.063.044.138.067.215.067a.37.37 0 0 0 .214-.067 1.12 1.12 0 0 0 .421-.48c.123-.24.192-.504.202-.774v-.311-.295c.006-.099-.009-.198-.044-.291a.73.73 0 0 0-.158-.248c-.059-.048-.134-.074-.21-.074a.34.34 0 0 0-.211.074 1.13 1.13 0 0 0-.429.472c-.129.268-.201.56-.21.858zm2.516-1.229a4.53 4.53 0 0 1 .085-.892 3.82 3.82 0 0 1 .261-.842c.104-.245.237-.476.395-.69a1.98 1.98 0 0 1 .531-.472.84.84 0 0 1 .521-.134c.156.014.3.086.404.202.123.143.209.313.253.496a2.77 2.77 0 0 1 .093.724v.362a.47.47 0 0 1-.042.177c-.009.025-.022.049-.039.069a.21.21 0 0 1-.062.049l-1.726 1.002a.76.76 0 0 0 .05.294c.026.065.07.12.127.16a.37.37 0 0 0 .193 0c.08-.017.156-.045.228-.084.097-.059.188-.13.269-.21a1.97 1.97 0 0 0 .168-.228c.026-.05.057-.098.093-.143l.101-.076.412-.244c.015-.009.033-.015.051-.015s.035.006.05.015c.01.02.015.042.015.063s-.005.044-.015.064c-.008.115-.034.228-.075.336-.06.165-.137.322-.228.472-.105.178-.229.345-.37.496a1.86 1.86 0 0 1-.505.413c-.155.108-.342.162-.53.151-.077-.006-.152-.028-.22-.064s-.128-.086-.176-.146c-.13-.152-.219-.335-.261-.53a3.36 3.36 0 0 1-.051-.775zm1.272-1.928c-.098.056-.186.127-.261.211a2 2 0 0 0-.177.286 1.31 1.31 0 0 0-.11.303 2 2 0 0 0-.05.278l1.17-.673a1.09 1.09 0 0 0-.042-.228c-.013-.071-.045-.138-.093-.193a.28.28 0 0 0-.168-.076c-.097.005-.19.037-.269.092z"/></g><path d="M193.296 135.204l84.161-48.587v26.162l-84.161 48.587v-26.162zm-29.142-96.939L66.727 94.437a4.86 4.86 0 0 0-2.189 3.796v216.412a4.82 4.82 0 0 0 2.197 3.788l1.372.782c.68.345 1.431.525 2.193.525s1.513-.18 2.193-.525l97.426-56.272c.639-.416 1.171-.976 1.553-1.636a4.84 4.84 0 0 0 .644-2.161V42.811a4.81 4.81 0 0 0-.646-2.16 4.83 4.83 0 0 0-1.559-1.629l-1.364-.783c-.683-.341-1.436-.516-2.2-.512s-1.515.188-2.194.537z" class="D"/><path d="M172.117 259.298c0 1.928-1.355 3.157-3.038 4.116L73.335 318.71c-1.684.968-3.03.186-3.03-1.75V102.484c-.001-1.059.276-2.1.805-3.018a6.03 6.03 0 0 1 2.208-2.209l95.761-55.313c.308-.177.656-.27 1.011-.269s.704.094 1.012.271a2.03 2.03 0 0 1 .741.739c.178.307.273.655.274 1.01v215.603z" class="H"/><path d="M170.089 42.516a1.18 1.18 0 0 1 .451.09 1.17 1.17 0 0 1 .382.255c.11.109.196.239.256.382a1.18 1.18 0 0 1 .089.451v215.603c0 1.305-.841 2.349-2.609 3.367l-95.743 55.313a1.92 1.92 0 0 1-.934.303c-.724 0-.842-.842-.842-1.321V102.484a5.21 5.21 0 0 1 2.593-4.495L169.5 42.676a1.15 1.15 0 0 1 .589-.16zm0-.842a2.04 2.04 0 0 0-1.01.269L73.319 97.257a6.03 6.03 0 0 0-2.208 2.209c-.529.918-.807 1.959-.805 3.018V316.96c0 1.372.682 2.163 1.683 2.163a2.77 2.77 0 0 0 1.355-.413l95.735-55.287c1.683-.96 3.038-2.189 3.038-4.117V43.695c-.002-.537-.216-1.05-.597-1.429a2.03 2.03 0 0 0-1.431-.591z" class="D"/><path d="M172.117 42.828v.842c-.001-.355-.096-.703-.274-1.01a2.03 2.03 0 0 0-1.753-1.01c-.355 0-.703.093-1.011.269L73.319 97.265a5.94 5.94 0 0 0-2.205 2.197v.067l-5.892-3.418c.373-.689.918-1.269 1.583-1.684l97.351-56.163a4.89 4.89 0 0 1 4.394 0l1.364.783c.64.411 1.173.968 1.556 1.625a4.82 4.82 0 0 1 .649 2.154z" class="K"/><g class="I F"><path d="M89.001 100.321a.27.27 0 0 1 0-.143v-.707l-1.103.639c-.067 0-.093 0-.093-.101v-.252a.73.73 0 0 1 0-.143c-.004-.045-.004-.09 0-.135l1.17-3.207c.017-.043.036-.086.059-.126.019-.028.045-.052.076-.067l.151-.093h.101v.16 2.466l.244-.143h.101c.013.053.013.107 0 .16v.168c.011.058.011.118 0 .177-.022.043-.058.079-.101.101l-.244.143v.707c.015.058.015.119 0 .177-.008.024-.022.046-.039.065a.18.18 0 0 1-.062.044l-.185.11c-.017.017-.05.025-.076 0zm.051-1.499v-1.759l-.842 2.222.842-.463z"/><path d="M90.314 99.134a2.37 2.37 0 0 1-.32-1.439 4.56 4.56 0 0 1 .328-1.818 2.19 2.19 0 0 1 .909-1.103 1.23 1.23 0 0 1 .446-.168.47.47 0 0 1 .345.051c.004.009.007.019.007.029s-.002.02-.007.029a.32.32 0 0 1 0 .084l-.101.37a.26.26 0 0 1 0 .076h-.05c-.094-.032-.194-.041-.292-.026a.64.64 0 0 0-.272.11 1.6 1.6 0 0 0-.623.766 3.42 3.42 0 0 0-.227 1.338 1.91 1.91 0 0 0 .219 1.094c.151.177.353.194.606.042a1.44 1.44 0 0 0 .269-.194 1.39 1.39 0 0 0 .219-.236v-1.153l-.463.269h-.093a.22.22 0 0 1 0-.151v-.16c-.016-.061-.016-.124 0-.185.019-.043.051-.079.093-.101l.741-.421h.109c.015.061.015.124 0 .185v1.633a.6.6 0 0 1 0 .143c.01.036.01.074 0 .109a2.28 2.28 0 0 1-.842.842c-.48.252-.774.21-1.002-.017zm9.318-5.665a1.69 1.69 0 0 1-.161.753c-.111.235-.275.441-.479.603-.353.21-.64-.067-.64-.615a1.69 1.69 0 0 1 .161-.753 1.68 1.68 0 0 1 .479-.602c.354-.185.64.093.64.614zm-.673-2.206a3.85 3.85 0 0 0-1.49 2.239c-.059.202 0 .387.067.446.118.076.303-.076.37-.328a2.73 2.73 0 0 1 1.052-1.583c.089-.063.192-.105.3-.12a.68.68 0 0 1 .752.491c.067.168.253.118.371-.101a.64.64 0 0 0 .09-.258.64.64 0 0 0-.023-.272.96.96 0 0 0-.226-.398.95.95 0 0 0-.385-.248.96.96 0 0 0-.879.133zm0-1.582c-1.112.793-1.92 1.943-2.29 3.258-.076.21-.051.429.05.497.118.076.295-.076.37-.311a4.9 4.9 0 0 1 1.869-2.668 1.24 1.24 0 0 1 .505-.219c.182-.034.371-.027.551.022a1.24 1.24 0 0 1 .487.259c.141.122.252.273.326.444.084.151.252.101.37-.109a.64.64 0 0 0 .051-.556 1.53 1.53 0 0 0-.403-.54 1.52 1.52 0 0 0-.595-.314c-.22-.059-.45-.068-.673-.026s-.435.132-.619.266zm21.76-10.388c.012-.01.027-.015.042-.015s.03.005.042.015c.01.033.01.068 0 .101v.64a.48.48 0 0 1 0 .151.23.23 0 0 1-.084.093l-.396.227c-.01.009-.024.014-.038.014s-.027-.005-.038-.014c-.014-.035-.014-.074 0-.109v-.64c-.011-.047-.011-.096 0-.143.016-.04.042-.075.076-.101l.396-.219zm0 2.29c.012-.01.027-.015.042-.015s.03.005.042.015c.012.033.012.069 0 .101v.64c.009.047.009.096 0 .143-.017.042-.046.077-.084.101l-.396.227c-.005.005-.01.01-.017.013s-.014.004-.021.004-.014-.002-.021-.004-.012-.007-.017-.013v-.101-.64c-.011-.047-.011-.096 0-.143.014-.041.041-.076.076-.101l.396-.227zm2.264-.312c-.011.008-.024.012-.038.012s-.026-.004-.038-.012c-.014-.035-.014-.074 0-.109v-.791l-1.313.766c-.012.01-.027.015-.042.015s-.03-.005-.042-.015c-.013-.032-.013-.069 0-.101v-.463a.58.58 0 0 1 0-.177c0-.059 0-.118.067-.185l1.297-3.249a.53.53 0 0 1 .176-.261l.32-.185c.012-.01.027-.015.042-.015s.031.005.043.015c.014.035.014.074 0 .109v2.609l.362-.21c.011-.01.026-.015.042-.015s.03.005.042.015c.007.016.01.033.01.051s-.003.035-.01.05v.463a.29.29 0 0 1 0 .143c-.017.042-.046.077-.084.101l-.362.21v.8a.29.29 0 0 1 0 .143c-.017.042-.047.077-.085.101l-.387.185zm-.109-1.726v-1.397l-.724 1.818.724-.421zm-4.243 4.218c-.012.01-.027.015-.042.015s-.03-.005-.042-.015c-.011-.036-.011-.074 0-.109v-.791l-1.313.766c-.012.009-.027.015-.042.015s-.03-.005-.042-.015c-.01-.033-.01-.068 0-.101v-.471a.37.37 0 0 1 0-.168c.015-.063.035-.125.059-.185l1.304-3.249a.48.48 0 0 1 .169-.261l.328-.194a.06.06 0 0 1 .038-.014.06.06 0 0 1 .038.014c.014.035.014.074 0 .109v2.576l.37-.21a.07.07 0 0 1 .017-.013c.006-.003.014-.004.021-.004s.014.001.021.004.012.007.017.013v.101.463a.29.29 0 0 1 0 .143.2.2 0 0 1-.076.101l-.37.21v.875a.29.29 0 0 1 0 .143c-.014.041-.041.076-.076.101l-.379.151zm-.118-1.683v-1.397l-.724 1.818.724-.421zm6.179-6.196a.29.29 0 0 1 0-.143c.017-.042.046-.077.084-.101l1.591-.918a.08.08 0 0 1 .042-.013c.015 0 .03.005.042.013.011.036.011.074 0 .109v.463a.43.43 0 0 1 0 .143c-.016.042-.046.077-.084.101l-1.187.69-.05.842a1.01 1.01 0 0 1 .227-.21l.185-.126a1.01 1.01 0 0 1 .438-.151.5.5 0 0 1 .353.084.73.73 0 0 1 .236.337 1.73 1.73 0 0 1 .084.598 3.04 3.04 0 0 1-.084.766 2.65 2.65 0 0 1-.244.631c-.091.181-.21.346-.354.488a2.28 2.28 0 0 1-.429.337 1.38 1.38 0 0 1-.505.185.52.52 0 0 1-.345-.084.64.64 0 0 1-.21-.295c-.05-.141-.075-.289-.076-.438-.017-.046-.017-.097 0-.143a.2.2 0 0 1 .076-.101l.345-.202h.075c.015.011.027.025.036.041a.12.12 0 0 1 .015.052.46.46 0 0 0 .076.194.24.24 0 0 0 .134.076c.053.016.108.016.16 0a1.15 1.15 0 0 0 .185-.084.97.97 0 0 0 .388-.429c.102-.198.154-.417.151-.64a.45.45 0 0 0-.025-.221c-.026-.07-.07-.133-.126-.183-.057-.039-.125-.059-.194-.059a.35.35 0 0 0-.194.059 1.06 1.06 0 0 0-.202.152.54.54 0 0 0-.117.135l-.085.118c-.027.035-.061.063-.101.084l-.387.227c-.012.009-.027.015-.042.015s-.03-.005-.042-.015v-.101l.16-2.281zm-47.897 32.013v-1.364l1.178-.682v1.364l-1.178.682zm1.768-1.019v-2.727l1.178-.682v2.727l-1.178.682zm1.768-1.027v-4.082l1.178-.682v4.083l-1.178.681zm1.767-1.018v-5.447l1.187-.682v5.446l-1.187.682zm82.856-52.258c-.018-.04-.044-.075-.076-.104a.31.31 0 0 0-.239-.078c-.043.004-.085.018-.123.039l-4.411 2.525a1.68 1.68 0 0 0-.401.613c-.088.231-.123.479-.104.726v2.475a1.41 1.41 0 0 0 .194.791c.039.072.101.129.177.16.039.023.084.035.13.035s.091-.012.131-.035l4.402-2.525c.177-.172.315-.382.402-.613a1.69 1.69 0 0 0 .103-.726v-2.492c.012-.276-.052-.549-.185-.791zm-5.051 6.675a.7.7 0 0 1-.075-.362V56.43a1.32 1.32 0 0 1 .087-.552c.068-.176.173-.335.308-.467l4.403-2.525c.022-.01.047-.015.071-.015s.049.005.072.015.038.03.05.05a.66.66 0 0 1 .076.362v2.475a1.31 1.31 0 0 1-.387 1.018l-4.411 2.525c-.016.01-.034.016-.053.018s-.038-.001-.056-.007-.034-.017-.047-.03-.023-.03-.029-.048h-.009zm1.162-3.905v2.929l-.69.396c-.014.007-.029.011-.044.01s-.031-.004-.044-.012-.025-.018-.033-.031-.013-.028-.014-.043v-2.163a1 1 0 0 1 .065-.408c.049-.13.124-.249.221-.349l.539-.328zm.32-.177l.825-.48v2.929l-.825.471v-2.921zm1.145-.657l.833-.488v2.938l-.833.48v-2.929zm1.978-.951v2.113c-.001.191-.052.379-.148.544a1.1 1.1 0 0 1-.399.398l-.278.16v-2.929l.657-.379c.016-.011.035-.017.055-.017s.039.004.056.014.032.023.042.04a.11.11 0 0 1 .015.056z"/><path d="M165.308 53.291c.117-.076.218.278.218.783v.463a1.89 1.89 0 0 1-.218 1.069l-.228.151v-2.34l.228-.126zm-12.4 7.483l4.285-3.805-1.322 5.573-.623-2.315-2.34.547z"/></g><path d="M78.841 113.671l68.942-39.782c1.145-.656 2.071-.118 2.071 1.195v6.439a4.6 4.6 0 0 1-.608 2.04 4.59 4.59 0 0 1-1.463 1.546l-68.941 39.799c-1.145.657-2.071.126-2.071-1.195v-6.432a4.56 4.56 0 0 1 .599-2.055 4.57 4.57 0 0 1 1.471-1.556z" class="B"/><path d="M155.055 80.084a.79.79 0 0 1-.399-.105.8.8 0 0 1-.292-.291c-.054-.09-.089-.189-.104-.293a.77.77 0 0 1 .018-.31.79.79 0 0 1 .137-.279.77.77 0 0 1 .236-.203l9.125-5.337a.84.84 0 0 1 .939.374.84.84 0 0 1 .119.519.85.85 0 0 1-.217.487L155.45 80a.76.76 0 0 1-.395.084zm0-3.931a.79.79 0 0 1-.781-.583.79.79 0 0 1 .033-.514.8.8 0 0 1 .344-.385l9.124-5.32a.81.81 0 0 1 .609-.097.8.8 0 0 1 .595.97.8.8 0 0 1-.362.498l-9.116 5.32a.76.76 0 0 1-.446.109zm0-3.922c-.162-.024-.314-.094-.437-.203a.84.84 0 0 1-.241-.891c.05-.156.146-.293.274-.396l9.124-5.32a.84.84 0 0 1 1.095.286.78.78 0 0 1 .101.293.79.79 0 0 1-.387.793l-9.117 5.328a.84.84 0 0 1-.412.109z" class="D"/><path d="M70.339 270.873v46.171c0 1.86 1.313 2.61 2.913 1.684l28.881-16.676 2.804-1.616 22.298-12.879.312-10.379.151-4.782-57.358-1.523z" class="O"/><path d="M159.988 208.851c.255-1.17.418-2.357.488-3.553.471-5.74 3.443-10.833 6.633-15.497a69.18 69.18 0 0 1 1.683-2.373c.282-.375.54-.765.775-1.17.202-.396.387-.716.943-.607a1.59 1.59 0 0 1 .926.691c.353.554.586 1.176.683 1.825s.057 1.313-.119 1.946c-.35 1.261-.809 2.489-1.372 3.67-.388.934.723.648 1.229.438 2.474-1.036 4.958-4.495 6.515-6.625 1.018-1.397 1.776-2.971 3.005-4.209a5.27 5.27 0 0 1 2.753-1.574c.715-.126 1.414 0 1.49.909-.019.568-.168 1.124-.438 1.625-.438 1.077-.842 2.054-.337 3.198.372.683.655 1.41.842 2.164.143.985-.303 1.961-.278 2.954s.53 1.617.64 2.45-.455 2.121-.758 2.946a23.93 23.93 0 0 1-2.963 5.505 45.68 45.68 0 0 1-6.423 7.021c-1.395 1.096-2.543 2.476-3.367 4.049-.643 1.654-1.12 3.369-1.422 5.118l-1.322 6.532c-4.832 23.57-7.247 24.874-10.312 28.384-1.851 2.122-7.197 4.125-14.461-3.367-8.064-8.333-23.486-29.883-23.486-29.883l-3.215-28.797 6.498 1.81c3.367.968 6.953 4.369 9.361 8.174l17.812 28.359 7.997-22.113z" fill="#ffbda7"/><use xlink:href="#H" class="B"/><use xlink:href="#H" class="C L"/><path d="M151.991 230.964a45.27 45.27 0 0 0-3.645 12.871s-1.532-8.948 1.961-15.598l1.684 2.727zm18.19-33.241c.329 3.24-1.01 7.702-2.197 9.385a10.15 10.15 0 0 0 2.702-4.461c.581-2.694.16-3.881-.505-4.924z" class="P"/><path d="M128.631 277.405c-11.145 7.913-47.635 10.556-58.326 3.485v-85.474l.842-.168 10.463-2.206 5.665-1.195 1.44-.303 5.051-1.061 13.166.766 3.964.236h.388s4.579.547 9.335 1.372c.177.16.336.328.513.505 3.3 3.561 6.145 12.627 6.953 22.333.303 3.695.522 9.259.691 15.497v.58c.488 19.109-.144 45.633-.144 45.633z" class="B"/><path d="M120.079 158.951c2.332-5.354.051-12.459-2.744-15.792-4.032-4.824-10.303-6.903-19.765-6.313-7.197.446-14.268 3.434-15.615 10.816-5.783 1.726-5.126 11.221-3.687 15.413 2.921 8.494 8.662 15.893 8.754 20.203l33.056-24.327z" class="O"/><path d="M120.071 178.942c-1.137 4.108-3.511 7.113-7.307 7.703-1.99.19-3.995.19-5.985 0l.143 5.227c5.11 4.369 3.241 10.101-.168 15.287-4.209-4.706-9.075-6.389-13.309-8.25a13.55 13.55 0 0 1-6.17-5.976l-.539-17.678s-2.323 2.644-6.153.144c-1.541-1.146-2.641-2.788-3.113-4.649a8.35 8.35 0 0 1 .52-5.571c1.894-4.006 5.69-2.348 6.86-1.136s2.525 3.502 3.51 3.182c.561-.172 1.069-.482 1.48-.901a3.51 3.51 0 0 0 .869-1.498 21.46 21.46 0 0 0 1.246-7.761c1.119-.581 2.125-1.356 2.971-2.29 1.517-1.625 2.427-3.724 2.576-5.943 8.199-2.525 17.635-1.355 21.044 1.28 1.961 3.459 2.029 11.49 2.357 16.12.354 5.092.126 9.276-.833 12.71z" fill="#ffbda7"/><path d="M106.771 186.678c-4.209-.235-12.627-2.197-14.883-4.537s-3.207-7.138-3.207-7.138.337 6.052 2.079 8.721 6.128 3.838 8.797 4.503a64.4 64.4 0 0 0 7.298 1.103l-.084-2.652z" class="P"/><use xlink:href="#I" class="B"/><use xlink:href="#I" class="C L"/><use xlink:href="#J" class="B"/><use xlink:href="#J" class="C L"/><path d="M104.119 163.614c.01.227-.026.454-.106.667s-.202.408-.359.572-.347.296-.556.385a1.7 1.7 0 0 1-.663.135c-.353.017-.703-.073-1.004-.257a1.76 1.76 0 0 1-.688-.776c-.147-.321-.194-.68-.135-1.028a1.78 1.78 0 0 1 1.371-1.433c.346-.074.706-.043 1.034.089s.608.36.805.653.302.639.301.993z" class="G"/><path d="M101.745 158.184l-3.434 2.324a2.18 2.18 0 0 1 .581-2.955 2.03 2.03 0 0 1 1.561-.291 2.04 2.04 0 0 1 .74.329 2.03 2.03 0 0 1 .552.593zm16.465 1.591l-3.771-1.801c.105-.252.261-.479.458-.669a2 2 0 0 1 .684-.433c.255-.096.528-.139.801-.126a2 2 0 0 1 .784.201c.504.248.893.679 1.087 1.206s.179 1.107-.043 1.622z" class="M"/><path d="M116.939 163.504c.012.228-.023.456-.103.67a1.68 1.68 0 0 1-.916.962c-.21.09-.436.136-.664.136-.353.017-.703-.072-1.004-.256a1.77 1.77 0 0 1-.824-1.802 1.78 1.78 0 0 1 .463-.927c.244-.256.559-.432.904-.508a1.77 1.77 0 0 1 1.032.086c.328.131.609.357.807.649a1.76 1.76 0 0 1 .305.99z" class="G"/><path d="M108.016 159.96l1.229 12.206 6.549-1.978-7.778-10.228z" class="P"/><path d="M104.111 175.003l7.02 1.557c-.081.468-.256.914-.514 1.313s-.592.741-.985 1.007-.835.451-1.301.542-.944.089-1.409-.008c-.948-.229-1.77-.817-2.295-1.639a3.77 3.77 0 0 1-.516-2.772z" class="N"/><path d="M106.922 179.414c.143 0 .286 0 .438.051-.022-.853-.376-1.663-.986-2.259s-1.428-.93-2.28-.932a3.73 3.73 0 0 0 .926 2.01c.505.56 1.168.954 1.902 1.13z" fill="#f28f8f"/><path d="M72.864 223.186l-2.525 6.212v-33.982s7.256 13.957 2.525 27.77z" class="B"/><path d="M72.864 223.186l-2.525 6.212v-33.982s7.256 13.957 2.525 27.77z" class="C L"/><path d="M121.072 169.843c1.595.52 3.121 1.229 4.546 2.113.899.542 1.549 1.416 1.81 2.433s.113 2.096-.413 3.005l-1.734-.337s.892-2.029-.151-3.123-4.083-2.02-4.083-2.02l.025-2.071z" class="G"/><use xlink:href="#K" class="B"/><use xlink:href="#K" opacity=".1" class="C"/><path d="M85.566 139.766c-4.209 3.881-8.224 9.395-5.236 22.147-.94.913-1.602 2.074-1.911 3.347a6.95 6.95 0 0 0 .168 3.851c1.162 3.939 4.941 6.523 8.418 5.783s5.421-4.538 4.268-8.477c-.842-2.946-4.024-5.8-6.625-5.606 0 0-2.525-5.463-.16-13.182 3.19-10.539 15.463-11.407 20.867-10.556-1.784-2.568-14.251-2.416-19.79 2.693z" class="G"/><use xlink:href="#L" class="B"/><use xlink:href="#L" class="C J"/><use xlink:href="#M" class="B"/><use xlink:href="#M" opacity=".1" class="C"/><path d="M86.745 168.109c-.606-2.063-2.576-3.418-4.411-3.031s-2.837 2.374-2.231 4.436 2.576 3.367 4.411 3.022 2.837-2.373 2.231-4.427z" class="M"/><path d="M135.383 119.614c-.186.104-.352.241-.489.404a2.39 2.39 0 0 0-.32.522 3.3 3.3 0 0 0-.185.589c0 .202-.067.413-.084.623s0 .287 0 .489v.623.631.463a3.18 3.18 0 0 0 .084.539 1.04 1.04 0 0 0 .185.37.47.47 0 0 0 .149.109.45.45 0 0 0 .18.042c.171 0 .339-.053.48-.151a2.14 2.14 0 0 0 .42-.32c.131-.134.244-.284.337-.446.104-.183.183-.378.236-.581a3.15 3.15 0 0 0 .084-.724l-.716.413c-.023.02-.053.032-.084.032s-.061-.012-.084-.032c-.025-.029-.043-.063-.055-.099s-.016-.074-.012-.112v-1.389c.002-.102.025-.202.067-.294a.43.43 0 0 1 .168-.194l2.063-1.195c.022-.019.051-.029.08-.029s.057.01.08.029c.024.029.043.062.055.098s.015.074.012.112v1.684a6.57 6.57 0 0 1-.202 1.633c-.131.505-.32.994-.564 1.456a5.65 5.65 0 0 1-.842 1.204c-.301.333-.654.617-1.043.842-.329.21-.706.331-1.095.353-.307.01-.607-.095-.842-.295a1.79 1.79 0 0 1-.521-.841c-.133-.406-.203-.828-.211-1.255v-1.144-1.187a6.57 6.57 0 0 1 .202-1.49c.124-.498.302-.981.53-1.44a5.94 5.94 0 0 1 .842-1.245c.315-.365.687-.675 1.103-.918a2.22 2.22 0 0 1 1.077-.345 1.32 1.32 0 0 1 .842.21c.225.153.405.362.522.606a1.94 1.94 0 0 1 .202.842c.008.082-.01.164-.05.236a.41.41 0 0 1-.135.168l-1.136.648c-.085.051-.152.051-.203 0l-.134-.151c-.082-.113-.197-.198-.329-.244-.176-.068-.387-.009-.664.151zm4.823 1.76c-.011.154.012.309.067.454.036.089.101.164.185.211.079.029.166.029.245 0 .094-.018.186-.053.269-.101.149-.085.285-.19.404-.312.101-.111.186-.236.252-.37a1.63 1.63 0 0 1 .135-.228c.036-.051.086-.092.143-.117l1.111-.64c.127-.076.186 0 .186.177a2.11 2.11 0 0 1-.127.555 5.54 5.54 0 0 1-1.094 1.869 3.91 3.91 0 0 1-1.01.842c-.294.194-.633.307-.985.328-.134.006-.268-.016-.393-.066a.96.96 0 0 1-.331-.22c-.221-.236-.376-.526-.446-.842a5.52 5.52 0 0 1-.152-1.397c0-.504.051-1.006.152-1.499.094-.476.244-.939.446-1.38a5.19 5.19 0 0 1 .724-1.153c.275-.338.608-.624.985-.842.312-.212.684-.315 1.061-.295.283.043.54.194.715.421a2.32 2.32 0 0 1 .404.918c.078.393.118.794.118 1.195v.37c.003.1-.02.199-.067.287a.41.41 0 0 1-.16.202l-2.837 1.633zm.766-2.963a1.28 1.28 0 0 0-.547.639c-.12.266-.194.551-.219.842l1.532-.892c-.014-.219-.09-.429-.219-.606-.101-.118-.286-.127-.522.017h-.025zm5.126-.422c-.012.147.02.294.093.421.05.076.151.076.278 0l.682-.395a.12.12 0 0 1 .079-.029c.03 0 .058.01.08.029.027.027.047.061.058.097a.27.27 0 0 1 .01.113v1.339c.002.102-.021.203-.068.294a.42.42 0 0 1-.159.194l-.842.471a1.68 1.68 0 0 1-.733.244.77.77 0 0 1-.297-.041c-.095-.033-.183-.085-.258-.152a1.4 1.4 0 0 1-.362-.606c-.092-.329-.135-.669-.126-1.01v-2.206l-.632.362c-.022.02-.05.031-.08.031a.12.12 0 0 1-.08-.031c-.024-.029-.043-.062-.054-.098s-.016-.075-.013-.112v-1.322a.75.75 0 0 1 .067-.295c.033-.079.088-.146.16-.193l.632-.371v-2.146c.002-.099.025-.197.067-.286a.5.5 0 0 1 .16-.202l1.077-.615a.12.12 0 0 1 .08-.031c.03 0 .059.011.08.031a.24.24 0 0 1 .058.098c.012.036.015.075.01.113v2.138l.968-.556c.022-.018.05-.028.08-.028a.13.13 0 0 1 .08.028c.025.029.044.062.055.098s.016.075.012.113v1.33c.002.099-.021.197-.067.286-.033.081-.088.152-.16.202l-.968.555.033 2.138zm5.329-8.324a.73.73 0 0 1-.068.294.43.43 0 0 1-.168.194l-1.069.623c-.024.019-.054.029-.084.029s-.06-.01-.084-.029a.31.31 0 0 1-.068-.211v-1.33c.002-.099.025-.196.068-.286a.46.46 0 0 1 .168-.202l1.069-.615c.023-.02.053-.032.084-.032s.061.012.084.032c.025.029.044.063.055.099s.016.074.013.112v1.322zm0 7.575c-.002.102-.025.202-.068.295a.43.43 0 0 1-.168.194l-1.069.623c-.024.019-.054.029-.084.029s-.06-.01-.084-.029a.31.31 0 0 1-.068-.211v-6.153c.002-.102.025-.202.068-.295a.42.42 0 0 1 .168-.193l1.069-.623c.024-.019.054-.03.084-.03s.06.011.084.03c.048.059.072.134.068.21v6.153zm5.53-3.215c.002.099-.021.198-.067.286a.5.5 0 0 1-.16.202l-1.078.615c-.021.02-.05.031-.08.031a.12.12 0 0 1-.08-.031c-.026-.028-.046-.061-.057-.098a.27.27 0 0 1-.01-.113v-3.325c.032-.292-.03-.587-.177-.842-.126-.16-.311-.168-.564 0a1.3 1.3 0 0 0-.564.665 2.7 2.7 0 0 0-.168 1.01v3.317c-.001.103-.027.204-.076.295-.029.08-.086.149-.16.193l-1.069.623c-.023.021-.053.032-.084.032s-.061-.011-.084-.032c-.025-.029-.043-.062-.055-.098s-.016-.074-.012-.112v-6.112c.002-.101.025-.202.067-.294.035-.08.094-.148.168-.194l1.027-.581h.16c.027.028.047.061.06.098a.27.27 0 0 1 .016.113v.303c.042-.11.101-.236.168-.37a3.45 3.45 0 0 1 .244-.405c.106-.132.218-.258.337-.378a2.7 2.7 0 0 1 .446-.329c.229-.143.489-.23.758-.252.106-.011.212.002.313.037a.74.74 0 0 1 .268.165c.186.202.316.448.378.715.102.413.148.838.135 1.263v3.603zm-23.485 24.521a.72.72 0 0 0 .084.42c.059.076.151.076.286 0l.682-.395c.022-.019.051-.029.08-.029s.057.01.08.029a.31.31 0 0 1 .067.21v1.33c-.002.099-.025.197-.067.286-.03.083-.086.154-.16.202l-.842.463c-.214.146-.465.231-.724.245a.76.76 0 0 1-.296-.037c-.096-.032-.184-.082-.259-.149-.177-.163-.302-.373-.362-.606-.092-.328-.135-.669-.127-1.01V137.3l-.631.362h-.16c-.026-.028-.047-.061-.06-.098a.29.29 0 0 1-.016-.113v-1.33c.002-.1.028-.198.076-.286.03-.083.086-.154.16-.202l.631-.362v-2.138a.62.62 0 0 1 .068-.295c.032-.079.088-.147.16-.193l1.077-.623c.022-.02.05-.032.08-.032s.058.012.08.032c.024.027.042.059.054.094s.016.071.013.108v2.146l.968-.555c.022-.02.051-.032.08-.032s.059.012.08.032c.049.059.073.134.068.21v1.322c-.002.102-.025.202-.068.294a.47.47 0 0 1-.16.194l-.942.564v2.147zm6.439-4.975v.505.505a5.73 5.73 0 0 1-.185 1.296c-.113.425-.271.837-.471 1.229-.194.386-.438.746-.724 1.069a3.72 3.72 0 0 1-.935.783 1.94 1.94 0 0 1-.951.303 1.02 1.02 0 0 1-.715-.236c-.217-.183-.38-.421-.472-.69a3.37 3.37 0 0 1-.185-1.077v-.497-.513a5.64 5.64 0 0 1 .177-1.28 6.03 6.03 0 0 1 .471-1.237c.197-.387.44-.749.724-1.078a3.69 3.69 0 0 1 .951-.791c.282-.176.603-.277.935-.295.264-.009.523.075.732.236.214.184.374.422.463.69.12.347.183.711.185 1.078zm-3.072 2.735a.85.85 0 0 0 .048.35c.041.112.105.213.187.299.144.109.32.101.556 0a1.52 1.52 0 0 0 .547-.598c.141-.286.222-.599.236-.918v-.454-.438a.83.83 0 0 0-.049-.349c-.04-.112-.104-.214-.187-.299a.47.47 0 0 0-.547 0c-.238.143-.43.35-.556.598a2.3 2.3 0 0 0-.235.917v.463.429zm3.83-5.732a.71.71 0 0 1 .067-.286c.033-.084.092-.155.169-.202l1.069-.623c.022-.019.05-.029.08-.029s.057.01.08.029c.027.027.049.06.062.096s.018.076.013.114v3.359c-.027.29.029.582.16.842.11.16.286.177.539 0a1.25 1.25 0 0 0 .53-.657 2.95 2.95 0 0 0 .135-1.027v-3.367a.62.62 0 0 1 .067-.286.5.5 0 0 1 .16-.202l1.078-.615c.021-.02.05-.031.08-.031a.12.12 0 0 1 .08.031c.048.06.072.135.067.211v6.12a.71.71 0 0 1-.067.286c-.03.083-.086.154-.16.202l-.994.572c-.021.02-.05.032-.08.032s-.058-.012-.08-.032c-.024-.029-.043-.062-.054-.098s-.016-.074-.013-.112v-.295l-.168.371c-.069.139-.151.271-.244.395a3.37 3.37 0 0 1-.337.379c-.14.127-.292.24-.455.337-.547.311-.993.328-1.313 0a2.75 2.75 0 0 1-.496-1.987l.025-3.527zm6.81-1.33a4.11 4.11 0 0 0 0 .471 3.32 3.32 0 0 0 0 .446c-.008.116.009.231.048.34a.84.84 0 0 0 .179.292c.135.118.32.101.547 0a1.37 1.37 0 0 0 .43-.379 1.94 1.94 0 0 0 .244-.488 1.14 1.14 0 0 1 .101-.236c.031-.068.08-.127.143-.168l1.136-.699c.023-.021.053-.032.084-.032s.061.011.084.032a.22.22 0 0 1 .057.098c.01.037.011.075.002.113a3.82 3.82 0 0 1-.109.681c-.08.349-.199.688-.354 1.01a5.72 5.72 0 0 1-.69 1.095c-.308.381-.685.7-1.111.943-.271.165-.576.268-.892.303a1.12 1.12 0 0 1-.724-.186c-.226-.169-.398-.4-.497-.665-.13-.367-.198-.754-.202-1.144v-.514-.53a6.23 6.23 0 0 1 .202-1.372c.117-.431.284-.846.497-1.238.198-.371.441-.715.724-1.027.26-.283.561-.527.892-.724.327-.223.715-.344 1.111-.345a1.16 1.16 0 0 1 .69.303c.169.165.29.371.354.598a2.1 2.1 0 0 1 .109.556.51.51 0 0 1-.059.286c-.04.079-.097.148-.168.202l-1.119.64h-.144a.39.39 0 0 1-.101-.127c-.024-.049-.059-.093-.101-.129s-.09-.064-.143-.081a.63.63 0 0 0-.429.126 1.42 1.42 0 0 0-.547.606c-.149.293-.232.615-.244.943zm8.316-1.262c.003.102-.021.203-.067.294a.38.38 0 0 1-.16.194l-1.069.623c-.024.019-.053.029-.084.029s-.06-.01-.084-.029a.32.32 0 0 1-.068-.219v-3.317a1.35 1.35 0 0 0-.176-.842c-.118-.16-.312-.168-.564 0-.259.145-.456.378-.556.657-.122.323-.182.665-.177 1.01v3.283c-.003.099-.026.196-.067.286-.038.081-.096.151-.168.202l-1.069.615a.12.12 0 0 1-.08.031c-.03 0-.059-.011-.08-.031-.026-.029-.045-.062-.057-.098a.27.27 0 0 1-.011-.113v-8.586c-.002-.102.021-.203.068-.294.029-.081.086-.15.16-.194l1.069-.623c.024-.019.053-.029.084-.029s.06.01.084.029c.047.06.071.135.067.211v2.803c.117-.285.27-.554.455-.8a2.17 2.17 0 0 1 .707-.657 1.76 1.76 0 0 1 .749-.261.76.76 0 0 1 .313.045c.1.036.191.092.268.166a1.47 1.47 0 0 1 .379.715 4.65 4.65 0 0 1 .134 1.255v3.645zm2.509-4.294c.002.1-.021.198-.067.287-.03.083-.086.154-.16.202l-1.078.614c-.022.02-.05.031-.08.031a.12.12 0 0 1-.08-.031.3.3 0 0 1-.067-.21v-5.657c.001-.099.024-.197.067-.286.033-.082.089-.152.16-.202l1.078-.623c.021-.02.05-.032.08-.032s.058.012.08.032a.26.26 0 0 1 .058.097.27.27 0 0 1 .009.113v5.665zm0 2.82c.002.103-.021.204-.067.295-.033.079-.089.147-.16.194l-1.078.622c-.022.019-.051.029-.08.029s-.057-.01-.08-.029a.31.31 0 0 1-.067-.21v-1.33c.001-.099.024-.197.067-.286.033-.082.089-.152.16-.202l1.078-.623c.022-.019.051-.029.08-.029s.057.01.08.029c.026.028.046.061.058.097a.27.27 0 0 1 .009.113v1.33z" class="I F"/><path d="M129.423 156.93a1.09 1.09 0 0 1-.603-.186c-.179-.12-.318-.289-.4-.488s-.105-.416-.065-.627.143-.406.293-.559c1.566-1.6 2.526-3.847 2.98-6.861-5.269-1.077-8.418-5.648-8.418-12.281 0-11.785 9.571-26.844 21.339-33.671 6.263-3.611 12.231-4.318 16.373-1.928 3.434 1.978 5.32 5.935 5.32 11.128 0 11.785-9.571 26.836-21.339 33.671a27.89 27.89 0 0 1-4.899 2.265c-2.812 6.262-7.147 8.628-10.303 9.503a.9.9 0 0 1-.278.034zm15.497-54.017c-11.566 6.676-20.977 21.491-20.977 33.015 0 6.498 2.971 10.741 8.148 11.641l.337.059v.337c-.438 3.367-1.49 5.834-3.233 7.576-.057.061-.093.139-.102.223s.009.167.052.239a.39.39 0 0 0 .185.16.38.38 0 0 0 .244.018c3.022-.842 7.197-3.132 9.9-9.26l.067-.143.151-.05c1.708-.591 3.355-1.347 4.916-2.256 11.566-6.684 20.977-21.491 20.977-33.015 0-4.932-1.759-8.661-4.958-10.513-3.914-2.256-9.621-1.549-15.665 1.936l-.042.033z" class="B"/><path d="M258.054 314.459c-.336 1.125-.365 2.32-.084 3.46.328.69 2.399 2.98 6.625 3.805s10.042 0 12.542-.152 10.354.842 12.846 1.145c3.922.531 6.944-.328 8.417-1.751a2.61 2.61 0 0 0 .517-.967 2.63 2.63 0 0 0 .073-1.095c-.014-.946-.155-1.886-.421-2.795l-40.515-1.65z" class="G"/><path d="M297.929 312.001l.21.985c.385 1.669.508 3.387.362 5.093-.505 1.237-1.894 1.919-3.013 2.273-2.946.943-5.202.791-8.477.168-3.291-.477-6.616-.68-9.941-.606-2.576.169-6.12.665-8.696.429-2.19-.096-4.352-.536-6.406-1.304-1.683-.741-3.476-1.684-3.889-3.452-.513-3.72 1.053-5.37 2.82-6.405s4.277-.96 6.962-1.145l6.355-.329a30.89 30.89 0 0 0 5.556-.774c1.625-.513 3.3-2.584 3.99-2.66h11.844c1.187.101 1.557 3.796 1.683 4.596.118.631.135 1.305.303 1.911.135.404.236.808.337 1.22z" class="M"/><path d="M264.612 319.847c-.337-2.685-.783-8.502 4.158-11.86h.631c-2.232-.646-4.602-.646-6.835 0-3.956 1.052-5.707 4.251-4.722 7.626 0-.034.884 3.232 6.768 4.234zm14.428-12.711c-1.6 1.415-2.155 4.639-2.155 4.639-.202 1.203-2.391 1.38-2.181.218.332-1.603.973-3.127 1.886-4.486.75-.401 1.615-.532 2.45-.371zm-4.479.547c-1.205 1.182-1.994 2.725-2.247 4.394-.219 1.154-2.046 1.137-1.919 0 0 0 .218-2.853 1.919-4.209.332-.21.709-.336 1.101-.368a2.42 2.42 0 0 1 1.146.183z" class="H"/><path d="M302.887 279.997c-.16 1.894-.412 3.603.362 5.691 1.111 3.005 3.468 4.377 4.849 5.555a40.35 40.35 0 0 1 4.023 4.639c1.356 1.683 1.684 2.643 3.755 4.444a7.35 7.35 0 0 0 3.48 1.471c1.268.179 2.561.023 3.75-.452 1.768-.749 2.374-1.347 2.265-4.058s-8.729-3.628-8.729-3.628l-13.755-13.662z" class="G"/><path d="M324.26 289.223c.732.261.917 1.6 1.035 4.209.084 2.012.968 4.941-1.936 6.204-2.34 1.027-6.086.345-7.669-1.54-1.978-2.366-3.308-4.437-6.128-7.315-2.449-2.526-4.991-3.368-6.077-8.334-.699-3.207-.152-4.537 2.121-5.455 3.115-1.262 8.022 2.871 10.472 3.519 2.104.598 7.449 8.443 8.182 8.712z" class="M"/><path d="M316.078 280.545c-.135 0-.278-.084-.421-.135-1.391.059-2.742.478-3.923 1.216s-2.149 1.769-2.811 2.993c-.413.842.841 1.557 1.633.842 1.742-3.292 5.328-4.024 6.734-4.209a3.65 3.65 0 0 0-1.212-.707zm2.012 1.481c-1.314.126-2.576.576-3.672 1.311a7.96 7.96 0 0 0-2.608 2.898c-.413.842.842 1.557 1.633.842a8.19 8.19 0 0 1 2.374-2.622 8.18 8.18 0 0 1 3.257-1.377l-.984-1.052zm-13.174 4.15s.244-5.943 8.687-6.734l.48.261a7.19 7.19 0 0 0-4.15-3.048c-2.803-.723-5.051 0-6.499 1.777s.025 6.582 1.482 7.744z" class="H"/><use xlink:href="#N" class="B"/><g class="C"><use xlink:href="#N" opacity=".4"/><path opacity=".25" d="M321.187 191.594s-1.768 6.473-12.5 10.817l-2.887 22.947-.573-17.745.977-7.441s10.067-2.13 14.983-8.578z"/></g><use xlink:href="#O" class="B"/><use xlink:href="#O" opacity=".6" class="E"/><path d="M298.586 108.798l1.692 14.991 13.939-3.165-1.801-20.025-13.83 8.199z" class="N"/><path d="M288.106 90.43s-3.721 5.648-3.3 6.195 3.165 1.061 3.165 1.061l.135-7.256z" fill="#9a4a4d"/><path d="M289.755 93.763a4.21 4.21 0 0 1-2.338-.709c-.692-.463-1.232-1.12-1.55-1.889a4.21 4.21 0 0 1-.24-2.432 4.22 4.22 0 0 1 1.152-2.155 4.21 4.21 0 0 1 4.587-.912 4.21 4.21 0 0 1 2.598 3.888c0 1.116-.443 2.187-1.233 2.976s-1.859 1.233-2.976 1.233zm0-7.483c-.647 0-1.28.192-1.819.552a3.28 3.28 0 0 0-1.206 1.47 3.27 3.27 0 0 0 .71 3.569c.458.458 1.041.77 1.677.896a3.27 3.27 0 0 0 1.891-.186c.599-.248 1.11-.668 1.47-1.206s.552-1.172.552-1.819a3.28 3.28 0 0 0-3.275-3.274z" class="G"/><path d="M298.459 75.598c-7.155 1.507-9.722 4.369-10.396 15.733-.707 11.877 1.011 15.892 2.568 17.492 1.052 1.086 6.902 1.279 9.857.463 3.695-1.019 12.046-3.982 15.994-9.95 4.604-7.029 5.808-16.558.884-20.463-6.996-5.505-16.028-3.923-18.907-3.275z" class="N"/><path d="M298.678 109.622l-.337-2.188c-2.247 1.211-4.78 1.793-7.331 1.683 1.363.649 4.924.842 7.668.505z" fill="#9a4a4d"/><g class="G"><path d="M286.262 88.789l12.728 1.65-.514.892-12.214-1.582v-.96z"/><path d="M287.306 80.186c.539.091 1.092.057 1.616-.101-.21.52-.242 1.094-.089 1.634s.48 1.013.931 1.346c.464.317.995.521 1.552.596s1.124.017 1.655-.167c-.388.669-.514 1.458-.354 2.214a3.58 3.58 0 0 0 3.704 2.668c.076 1.684.101 3.291 1.877 4.049 0 0 1.128-4.394 4.832-3.838s4.209 5.303 1.877 8.19-4.503 1.793-4.537 1.776c.096.723.295 1.429.589 2.096.704 1.419 1.788 2.613 3.132 3.451 2.689 1.618 5.776 2.455 8.914 2.416 1.162-3.367 3.073-5.892 5.093-8.838 1.591-2.306 3.611-4.933 4.411-7.618a15.04 15.04 0 0 0 .092-8.948c-.883-2.66-1.919-4.68-4.815-5.396-.656-3.561-4.208-5.438-7.441-7.071a11.97 11.97 0 0 0-5.226-1.248c-1.814-.015-3.608.383-5.245 1.164-1.196-1.263-2.139-2.778-3.797-3.51a3.45 3.45 0 0 0-4.057.724c-.602 1.028-.829 2.233-.64 3.409a7.99 7.99 0 0 0-4.083.354 4.21 4.21 0 0 0-2.626 2.971 2.92 2.92 0 0 0 .307 1.986c.335.604.873 1.07 1.52 1.314-.448.317-.781.77-.948 1.293s-.159 1.085.022 1.603a2.18 2.18 0 0 0 1.734 1.481z"/><path d="M298.156 94.925l.127-4.966a2.53 2.53 0 0 0-1.098.014 2.52 2.52 0 0 0-.987.478 2.51 2.51 0 0 0-.692.851c-.166.331-.256.695-.266 1.065a2.54 2.54 0 0 0 .211 1.077c.149.339.37.641.648.886s.607.424.962.527.73.127 1.095.069z"/></g><use xlink:href="#P" class="B"/><use xlink:href="#P" class="E J"/><path d="M237.725 99.791c-.782-1.785.11-4.697.447-6.002.555-2.155.227-5.126.361-5.993.329-2.222-1.161-2.668-2.264-1.187-1.002 1.338-1.002 4.268-1.751 4.453s-2.904-5.531-4.032-8.864-1.414-5.463-3.266-5.051c-1.338.303-1.271 2.029-.614 4.764a29.13 29.13 0 0 1 .841 3.594c0 .454-.665.522-.968.623-.572.202-1.557.505-1.852 1.061-.119.324-.271.634-.454.926-.488.614-1.49.589-2.012 1.17-.387.421-.421 1.052-.732 1.532-.202.303-.514.53-.707.842a2.51 2.51 0 0 0-.256 1.037c-.01.36.057.718.197 1.05.772 2.177 1.968 4.18 3.518 5.892l3.973 5.303c2.408 3.771 11.289 18.191 15.674 23.865.935 1.203 1.768 2.314 3.771 2.853 5.051 1.347 35.86 4.015 35.86 4.015 8.923.186 12.029-16.077 4.419-16.886l-13.578-.21-21.17-.412s-14.782-16.962-15.405-18.376z" class="N"/><use xlink:href="#Q" class="B"/><use xlink:href="#Q" opacity=".6" class="E"/><defs ><path id="B" d="M42.223 318.004c2.079-11.558 3.056-24.37-.842-42.383-3.266-15.152-11.482-28.158-20.943-29.875-3.839-.699-7.778 1.532-8.755 3.872-2.677 6.44 2.239 12.307 4.529 15.236 1.684 2.189 17.568 17.745 18.898 41.415l.791 14.159c.118.732.758 1.103 1.263.732l5.059-3.156z"/><path id="C" d="M380.339 204.448c0-4.756-3.115-9.512-9.403-13.14-12.568-7.264-32.964-7.264-45.532 0-6.288 3.628-9.411 8.418-9.402 13.14v2.526c.076 4.697 3.224 9.377 9.436 12.963 12.576 7.256 32.964 7.256 45.532 0 6.212-3.586 9.36-8.266 9.436-12.963l-.067-2.526z"/><path id="D" d="M325.396 191.309c-12.576 7.256-12.576 19.032 0 26.288s32.964 7.265 45.532 0 12.576-19.032 0-26.288-32.99-7.265-45.532 0z"/><path id="E" d="M141.519 7.406L38.654 66.801a10.37 10.37 0 0 0-5.177 8.586v239.165c0 3.519 2.172 7.627 4.849 9.175s7.323 1.373 10.371-.387l102.511-59.185c1.602-1.05 2.936-2.462 3.893-4.121a12.23 12.23 0 0 0 1.62-5.433V16.186c0-3.519-2.171-7.576-4.848-9.167s-7.315-1.372-10.354.387z"/><path id="F" d="M47.375 323.972c-2.946 1.144-6.734 1.086-9.041-.244-2.677-1.549-4.849-5.657-4.849-9.176V75.388a9.9 9.9 0 0 1 1.397-4.731l8.898 5.051a10.74 10.74 0 0 0-2.525 6.423v236.934c-.05 4.209 2.626 6.204 6.12 4.908z"/><path id="G" d="M46.07 73.712c-1.414.924-2.59 2.167-3.435 3.629s-1.335 3.102-1.43 4.788v236.934c0 4.748 3.367 6.734 7.483 4.318l102.528-59.193c1.602-1.05 2.936-2.462 3.894-4.121a12.26 12.26 0 0 0 1.62-5.433V16.186c0-3.502-2.483-4.933-5.514-3.182L46.07 73.712z"/><path id="H" d="M120.609 192.891c5.32.707 8.418 2.357 11.558 6.044s15.194 23.805 15.194 23.805-4.108 8.855-15.194 13.527l-13.78-18.064 2.222-25.312z"/><path id="I" d="M106.754 207.193c-2.197-1.347-7.046-6.853-9.462-4.294s-3.695 3.258-5.295 2.787-5.101-3.948-7.399-6.482a14.69 14.69 0 0 1-3.03-6.187 39.97 39.97 0 0 0 3.241-4.503c1.094-1.937.842-2.484 2.256-2.576l.126 3.653s.842 1.995 4.832 4.689 11.894 6.7 14.731 12.913z"/><path id="J" d="M106.754 207.193c1.305-1.196 3.434-6.735 3.998-6.6.842.244 2.34 4.083 3.064 3.19 1.145-1.414.8-7.879-1.111-10.227s-4.453-4.849-5.892-5.093l.101 3.443a13.97 13.97 0 0 1 1.414 5.556c0 1.961-1.305 7.853-1.574 9.731z"/><path id="K" d="M126.291 176.274c-1.405-.682-2.079.194-3.072 2.576s-.312 3.039.892 3.51 2.138-.32 2.879-2.29c.833-2.222.817-3.064-.699-3.796z"/><path id="L" d="M92.056 166.257c-1.279-4.369-5.472-7.239-9.361-6.414-.589.126-1.157.338-1.684.631-.429.236-1.759 1.153-2.02 1.321-2.475 1.684-3.62 5.051-2.601 8.502 1.279 4.369 5.463 7.24 9.352 6.415a6.17 6.17 0 0 0 2.012-.842 117.85 117.85 0 0 0 1.86-1.246c2.357-1.65 3.451-4.958 2.441-8.367z"/><path id="M" d="M90.465 167.317c-1.279-4.36-5.472-7.231-9.361-6.406s-6.002 5.051-4.722 9.386 5.463 7.239 9.352 6.414 6.01-5.025 4.731-9.394z"/><path id="N" d="M327.139 247.194c-.842-9.26-.901-15.413-.901-15.413l.337-26.188c.185-7.071.058-11.869.176-17.458.155-6.208-.339-12.414-1.473-18.519 0 0-43.317-8.62-43.856 7.273l-1.305 64.05c-.412 6.987.295 12.77.732 26.339.362 11.246.253 38.941.253 38.941 4.773 6.549 16.036 1.557 16.036 1.557l3.99-46.912c.547-8.637-.362-13.014-.362-13.014l4.47-40.245.724 19.899c.387 6.987.959 12.433 2.601 25.414l4.444 38.225c5.775 3.434 12.5.681 12.5.681s2.509-34.815 1.634-44.63z"/><path id="O" d="M320.421 112.67c4.327 0 8.224 1.279 11.676 12.029s6.431 24.807 6.734 28.283c.37 4.512.134 6.457-3.367 9.731s-12.627 11.053-12.627 11.053l-3.03-12.871 7.02-7.913-6.406-40.312z"/><path id="P" d="M327.391 119.488c-1.507-3.847-4.764-7.163-10.042-7.323h-3.864c-.598 2.449-9.891 3.241-14.31 1.683l-12.896 3.485c-4.596 1.524-4.655 7.383-4.63 20.986 0 12.677 0 27.728-.69 43.595 8.081 4.26 19.815 5.354 28.704 4.453 13.957-1.406 17.316-5.581 17.316-5.581-.571-7.306-.74-14.637-.505-21.962.168-6.094 1.456-13.544 1.91-20.135s.421-15.606-.993-19.201z"/><path id="Q" d="M288.358 117.409c-4.571-.177-34.706.076-34.706.076l-12.543-13.368a12.22 12.22 0 0 1-9.091 6.987s5.455 9.95 8.586 14.521c2.879 4.208 3.569 6.355 8.031 7.222s32.719 4.108 35.169 4.024 6.465-.514 9.007-7.661c2.214-6.279.177-11.616-4.453-11.801z"/></defs></svg>