<svg width="80" height="80" viewBox="0 0 80 80" fill="none" xmlns="http://www.w3.org/2000/svg">
<path d="M13.9563 0.346348C7.19651 1.7612 1.72926 7.26338 0.331878 14.0407C0.0174672 15.5603 0 16.818 0 39.997C0 63.176 0.0174672 64.4337 0.331878 65.9533C1.69432 72.5385 6.62009 77.6739 13.3624 79.5254L14.7598 79.9097H40H65.2402L66.7249 79.5079C72.559 77.9184 77.1528 73.6389 79.0742 68.0319C79.9825 65.342 80 65.1149 80 47.9097C80 32.3813 79.9825 31.9271 79.6507 31.2808C78.6376 29.2721 75.8952 29.307 74.7773 31.3507C74.5328 31.8223 74.4804 33.1324 74.4105 43.3158L74.3231 54.7394L66.6201 45.9184C62.393 41.08 58.4978 36.7306 57.9913 36.2765C56.9607 35.3507 55.0917 34.39 53.6245 34.0407C52.4017 33.7437 49.9738 33.7437 48.7336 34.0407C47.3362 34.3725 45.345 35.3856 44.3493 36.2939C43.8603 36.7306 41.083 39.8223 38.1485 43.1586C35.214 46.5123 32.786 49.2546 32.7686 49.2546C32.7336 49.2546 31.9127 48.2765 30.9345 47.0712C28.6987 44.3638 27.4585 43.211 26.0087 42.4948C24.2969 41.6389 22.7598 41.342 20.786 41.4468C18.7074 41.5691 17.3275 42.0407 15.6157 43.176C14.4629 43.9446 13.7991 44.6608 9.99127 49.2546L5.67686 54.4599L5.62445 35.3158C5.57205 13.8136 5.50218 15.0188 6.86463 12.2241C7.44105 11.0188 7.87773 10.4424 9.17031 9.16731C10.4454 7.87473 11.0218 7.45552 12.2271 6.86163C14.9694 5.53412 14.1135 5.58652 31.8079 5.58652C41.6419 5.58652 47.8253 5.51665 48.1921 5.41185C49.0131 5.18478 49.9214 4.25901 50.1485 3.45552C50.4629 2.26775 49.8166 0.817964 48.7336 0.259012C48.2969 0.0319374 45.9913 -0.00299705 31.8428 0.0144702C16.7162 0.0144702 15.3362 0.0494047 13.9563 0.346348ZM53.1878 39.7874C54.1485 40.2765 54.4804 40.6433 64.5415 52.1367C69.4323 57.7088 73.607 62.4774 73.8515 62.7394L74.2707 63.1935L73.9913 64.6608C73.7991 65.5865 73.4148 66.7044 72.8908 67.7525C72.2445 69.1149 71.8428 69.6564 70.6725 70.8092C69.1004 72.3813 67.9127 73.1498 65.9913 73.8485L64.7162 74.3201H40C13.2576 74.3201 15.0218 74.3725 12.8559 73.4468C10.7773 72.556 8.54148 70.5822 7.28384 68.5385C6.60262 67.4206 5.869 65.3594 5.69432 64.1018L5.58952 63.3158L9.88646 58.0756C18.5502 47.5254 18.0961 48.0494 19.179 47.5429C20.5764 46.914 21.9563 46.914 23.3188 47.5778C24.2096 48.0319 24.6288 48.4512 27.441 51.8573C29.2227 54.0057 30.8472 55.8049 31.2314 56.0319C32.0524 56.5385 33.2576 56.4861 34.0961 55.8922C34.4105 55.6651 37.5895 52.1542 41.1354 48.0669C44.6987 43.997 47.8428 40.4686 48.1397 40.2415C48.4367 40.0145 48.9782 39.7001 49.3624 39.5603C50.3231 39.1935 52.2795 39.3158 53.1878 39.7874Z" fill="#263238"/>
<path d="M64.6111 0.398784C64.2793 0.608391 63.8426 1.13241 63.633 1.56909C63.2487 2.30271 63.2312 2.52979 63.2312 6.75686V11.1761H58.6199C54.1483 11.1761 54.0085 11.1935 53.4321 11.5778C52.5762 12.1368 51.9823 13.4119 52.1395 14.3376C52.2967 15.2634 53.2574 16.3464 54.1133 16.5909C54.4801 16.6783 56.6635 16.7656 59.0042 16.7656H63.2312V20.9927C63.2312 23.3333 63.3186 25.5167 63.4059 25.8835C63.6504 26.7394 64.7334 27.7001 65.6592 27.8573C66.5849 28.0145 67.8601 27.4206 68.419 26.5647C68.8033 25.9883 68.8207 25.8486 68.8207 21.3769V16.7656H73.24C77.467 16.7656 77.6941 16.7481 78.4277 16.3638C78.8644 16.1542 79.3884 15.7176 79.598 15.3857C80.3491 14.2503 79.9998 12.4512 78.8819 11.6477C78.3579 11.2809 78.1483 11.2634 73.6242 11.1761L68.9081 11.0887L68.8207 6.37258C68.7334 1.84857 68.7159 1.63896 68.3491 1.11494C67.5456 -0.00296318 65.7465 -0.352308 64.6111 0.398784Z" fill="#FC2C7E"/>
<path d="M18.899 11.4205C15.2833 12.3113 12.1042 15.5602 11.3706 19.176C10.6719 22.5471 11.6326 25.8834 13.9907 28.3812C15.8597 30.3375 17.9907 31.3506 20.7156 31.5602C26.7593 32.0144 32.0169 26.7568 31.5627 20.7131C31.4929 19.9271 31.3357 18.914 31.1959 18.4598C30.1304 15.0537 27.2658 12.3113 23.8422 11.438C22.602 11.1236 20.1916 11.1236 18.899 11.4205ZM23.3357 17.1847C24.8379 17.8834 26.0256 19.6825 26.0256 21.2546C26.0256 23.6825 24.1916 25.7262 21.7811 25.9707C18.3051 26.3201 15.7025 22.6345 17.1872 19.4729C17.6414 18.4773 18.9165 17.2546 19.7724 16.9926C20.8379 16.6432 22.3575 16.7306 23.3357 17.1847Z" fill="#FC2C7E"/>
</svg>
