<svg xmlns="http://www.w3.org/2000/svg" width="20" height="20" fill="#fff" xmlns:v="https://vecta.io/nano"><path d="M17.415.526c-.085.89-.418 1.908-.827 2.5-.338.485-.979.925-1.446.987-.258.036-.262.089-.004.12.48.067 1.107.494 1.45.992.409.592.743 1.61.827 2.495.013.156.04.28.058.28s.044-.125.058-.28c.084-.89.418-1.899.832-2.495.325-.476.983-.925 1.441-.987.262-.036.262-.089 0-.125-.458-.062-1.117-.512-1.441-.987-.414-.596-.747-1.606-.832-2.5-.013-.151-.04-.276-.058-.276s-.044.125-.058.276zm-7.46.387c0 .623-.298 2.313-.583 3.283-.858 2.94-2.424 4.84-4.604 5.574-.436.147-1.219.311-1.49.311-.093 0-.173.018-.173.044s.08.045.173.045c.271 0 1.054.165 1.49.311 2.18.734 3.745 2.633 4.604 5.574.285.97.583 2.66.583 3.283 0 .383.076.231.107-.213a16.36 16.36 0 0 1 .538-2.994c.845-2.962 2.442-4.911 4.631-5.649.436-.147 1.219-.311 1.49-.311.093 0 .174-.022.174-.045s-.08-.044-.174-.044c-.271 0-1.054-.165-1.49-.311-2.188-.738-3.785-2.687-4.63-5.649-.258-.903-.48-2.135-.538-2.994-.031-.445-.107-.596-.107-.214zM2.469 12.625c-.085.89-.418 1.908-.827 2.5-.338.485-.979.925-1.446.988-.258.036-.262.089-.004.12.48.067 1.108.494 1.45.992.409.592.743 1.61.827 2.495.013.156.04.28.058.28s.044-.125.058-.28c.085-.89.418-1.899.832-2.495.325-.476.983-.925 1.441-.988.111-.018.205-.044.205-.062s-.093-.045-.205-.062c-.458-.062-1.116-.512-1.441-.988-.414-.596-.747-1.606-.832-2.5-.013-.151-.04-.276-.058-.276s-.044.124-.058.276z" fill-opacity=".9"/></svg>