<svg xmlns="http://www.w3.org/2000/svg" width="16" height="18" fill="#fff" xmlns:v="https://vecta.io/nano"><path d="M4.81.045c-1.102.2-1.975 1.021-2.282 2.144-.07.264-.074.363-.077 1.479-.004 1.162 0 1.201.07 1.338.173.317.44.489.775.486.236-.004.391-.063.57-.236.236-.218.232-.204.257-1.465.018-1.074.025-1.155.095-1.342a1.19 1.19 0 0 1 .599-.637l.236-.116 4.05-.011 4.286.063a1.25 1.25 0 0 1 .722.627l.099.201v6.426 6.426l-.099.201a1.25 1.25 0 0 1-.722.627c-.232.07-.303.07-4.286.063l-4.05-.011-.236-.116a1.19 1.19 0 0 1-.599-.637c-.074-.187-.077-.261-.095-1.482-.025-1.416-.018-1.38-.257-1.609a.79.79 0 0 0-.595-.225c-.32 0-.581.169-.75.479-.07.137-.074.176-.07 1.479l.077 1.62c.282 1.042 1.067 1.831 2.099 2.106l.285.078h4.296 4.296l.31-.099a2.87 2.87 0 0 0 .887-.43c.581-.412 1.004-1.064 1.148-1.757.063-.306.067-.606.067-6.712l-.067-6.712c-.218-1.056-1.01-1.894-2.091-2.208-.25-.074-.303-.074-4.462-.081-3.528-.007-4.254 0-4.486.042zm3.099 5.134a.84.84 0 0 0-.556.768c-.004.37.014.398.951 1.338l.866.873H4.951L.585 8.2C.282 8.292 0 8.679 0 9.003s.282.711.585.803c.109.032 1.155.042 4.366.042h4.222l-.852.852-.912.979a.99.99 0 0 0 0 .704c.204.394.599.563 1.028.44.204-.056.225-.074 1.817-1.666l1.687-1.768a.99.99 0 0 0 .018-.757c-.092-.194-3.226-3.328-3.412-3.412a.98.98 0 0 0-.637-.042z"/></svg>