<svg xmlns="http://www.w3.org/2000/svg" width="13" height="20" fill="none" xmlns:v="https://vecta.io/nano"><path d="M5.463.907v.902l-.166.026-.591.083C2.727 2.181.986 3.311.354 4.751c-.528 1.187-.456 3 .155 4.016.513.855 1.306 1.482 2.409 1.912.482.186 1.694.559 2.326.72l.218.057v1.782l-.062 1.788c-.036 0-.187-.067-.332-.155-.446-.254-.746-.7-.86-1.275l-.057-.28H2.079.007l.036.368c.088.86.456 1.793.948 2.404.845 1.041 2.295 1.762 4.021 2l.451.062v.927V20h.751.751l.01-.922.016-.917.425-.036c2.58-.213 4.518-1.71 4.995-3.85.109-.487.083-1.617-.052-2.124-.218-.824-.653-1.466-1.389-2.052-.643-.508-1.244-.767-3.15-1.337l-.829-.254-.016-1.772-.01-1.767.269.145c.435.238.72.674.845 1.295l.036.171h2.067 2.067v-.145c0-.549-.311-1.575-.658-2.161-.404-.694-1.155-1.373-1.979-1.788-.399-.197-1.259-.456-1.845-.544l-.684-.109c-.119-.021-.119-.031-.119-.927V0h-.751-.751v.907zm0 5.549v1.585l-.244-.14c-.751-.43-1.041-.808-1.088-1.394-.041-.497.088-.881.399-1.176.218-.212.668-.451.87-.456.047-.005.062.347.062 1.58zm1.974 5.679c.637.332.922.705.964 1.254.067.829-.477 1.534-1.316 1.715l-.171.036v-1.617-1.611l.119.031a3.43 3.43 0 0 1 .404.192z" fill="#fff" fill-opacity=".9"/></svg>