<svg xmlns="http://www.w3.org/2000/svg" width="18" height="18" fill="#fff" xmlns:v="https://vecta.io/nano"><path d="M16.644 1.011A2772.11 2772.11 0 0 0 .567 9.431c-.806.464-.739 1.623.114 1.942a564.82 564.82 0 0 0 4.953 1.694c.016 0 .825-.747 1.804-1.663l7.26-6.769c.031-.02-.012.051-.102.157L7.438 13.68c.012.012 1.643.578 3.628 1.262l3.907 1.246c.228 0 .33-.016.456-.082.189-.102.432-.362.511-.546C16.003 15.407 18 2.29 18 2.018a1.12 1.12 0 0 0-.232-.668 1.15 1.15 0 0 0-1.124-.338zM6.333 15.689l.094 1.667c.197.425.531.645.979.645.22 0 .314-.02.464-.098.252-.134 2.634-2.248 2.571-2.284a320.01 320.01 0 0 0-4.104-1.411c-.008 0-.012.668-.004 1.482z" fill-opacity=".95"/></svg>