<svg width="19" height="18" viewBox="0 0 19 18" fill="none" xmlns="http://www.w3.org/2000/svg">
<path d="M1.52687 0.0468825C1.00598 0.177105 0.573076 0.606488 0.432295 1.13794C0.39358 1.28576 0.383022 2.48944 0.383022 8.2509C0.383022 15.8425 0.372463 15.3991 0.583635 15.7651C0.713858 15.9833 0.974303 16.2367 1.17844 16.3388C1.27346 16.3845 2.41027 16.7787 3.70898 17.2116L6.06706 18H6.38382C6.77097 18 6.98918 17.9296 7.2813 17.7149C7.51711 17.5425 7.70716 17.282 7.80923 16.9864C7.86554 16.8245 7.87962 16.6978 7.87962 16.2754V15.7651H9.12201C10.5369 15.7651 10.6776 15.7475 11.1528 15.5152C11.7229 15.2372 12.184 14.6564 12.3283 14.0405C12.4093 13.6991 12.4093 10.4049 12.3318 10.2113C12.096 9.64816 11.2795 9.61296 10.9838 10.1515C10.9311 10.243 10.9205 10.4647 10.9064 11.9816L10.8888 13.7062L10.8008 13.8646C10.7516 13.949 10.6424 14.0687 10.5615 14.1285L10.4066 14.2341L9.14313 14.2447L7.87962 14.2552L7.87258 8.43744L7.86202 2.61966L7.7494 2.38385C7.56638 1.9967 7.32001 1.76793 6.89767 1.59196L6.70058 1.51101L8.55537 1.52157L10.4066 1.5286L10.5615 1.63419C10.6424 1.69402 10.7516 1.81369 10.8008 1.89815L10.8888 2.05653L10.9064 3.41859L10.924 4.77713L11.0296 4.92847C11.188 5.15372 11.3956 5.24875 11.6842 5.23467C11.9517 5.22059 12.1312 5.12204 12.279 4.90031L12.367 4.77009L12.3776 3.37284C12.3881 1.79609 12.3776 1.70106 12.1453 1.22944C11.9552 0.842296 11.554 0.444589 11.1528 0.247496C10.6178 -0.0129495 10.8677 -0.00239089 6.03187 0.00112864C2.71295 0.00464817 1.66061 0.0152068 1.52687 0.0468825Z" fill="black"/>
<path d="M14.338 3.83053C14.1585 3.91148 13.9825 4.10857 13.9368 4.28103C13.9121 4.36198 13.8981 4.87583 13.8981 5.58325V6.75526H12.3213H10.7446L10.558 6.84676C10.2413 7.00514 10.0864 7.3395 10.1709 7.68441C10.2272 7.92022 10.47 8.17011 10.7023 8.22642C10.8149 8.25458 11.3394 8.26865 12.3811 8.26865H13.8981V9.43362C13.8981 10.2572 13.9121 10.6443 13.9403 10.7464C14.0283 11.0315 14.3556 11.2603 14.6759 11.2603C14.9574 11.2567 15.0525 11.1758 16.6714 9.56032C18.2939 7.94134 18.4031 7.81112 18.4031 7.53659C18.4031 7.20224 18.4242 7.22687 16.7172 5.51286C15.6578 4.45348 15.063 3.8798 14.968 3.83405C14.7885 3.74606 14.5245 3.74606 14.338 3.83053Z" fill="black"/>
</svg>
