<?xml version="1.0" standalone="no"?>
<!DOCTYPE svg PUBLIC "-//W3C//DTD SVG 20010904//EN"
 "http://www.w3.org/TR/2001/REC-SVG-20010904/DTD/svg10.dtd">
<svg version="1.0" xmlns="http://www.w3.org/2000/svg"
 width="500.000000pt" height="500.000000pt" viewBox="0 0 500.000000 500.000000"
 preserveAspectRatio="xMidYMid meet">

<g transform="translate(0.000000,500.000000) scale(0.100000,-0.100000)"
fill="#000000" stroke="none">
<path d="M1990 2710 c0 -163 1 -170 20 -170 18 0 20 7 20 75 l0 75 100 0 100
0 0 -75 c0 -73 1 -75 25 -75 l25 0 0 170 0 170 -25 0 c-24 0 -25 -2 -25 -75
l0 -75 -100 0 -100 0 0 75 c0 68 -2 75 -20 75 -19 0 -20 -7 -20 -170z"/>
<path d="M2460 2711 c0 -87 -5 -80 61 -82 12 0 30 8 40 17 42 38 4 112 -52
100 -26 -5 -29 -3 -29 19 0 14 -4 25 -10 25 -6 0 -10 -33 -10 -79z m88 -29
c-2 -21 -9 -28 -30 -30 -23 -3 -29 2 -34 24 -5 20 -2 31 11 40 27 20 57 0 53
-34z"/>
<path d="M2600 2711 l0 -79 36 -4 c53 -6 78 11 82 54 3 30 -1 40 -22 53 -15
10 -33 14 -46 10 -17 -5 -20 -2 -20 19 0 16 -6 26 -15 26 -12 0 -15 -15 -15
-79z m100 -19 c0 -29 -16 -44 -41 -40 -30 4 -39 46 -14 65 22 15 55 0 55 -25z"/>
<path d="M2750 2710 c0 -47 4 -80 10 -80 6 0 10 33 10 80 0 47 -4 80 -10 80
-6 0 -10 -33 -10 -80z"/>
<path d="M2317 2744 c-12 -12 -8 -79 6 -96 13 -18 26 -21 70 -19 26 1 27 2 27
61 0 71 -18 81 -22 13 -3 -44 -5 -48 -28 -48 -22 0 -25 5 -28 40 -3 41 -13 60
-25 49z"/>
<path d="M2815 2725 c-29 -28 -31 -42 -10 -72 18 -25 43 -33 73 -22 34 13 26
26 -14 25 -22 -1 -39 4 -41 12 -3 8 9 12 41 12 52 0 60 16 26 50 -26 26 -46
25 -75 -5z m65 -16 c0 -5 -15 -9 -32 -9 -31 1 -32 2 -15 15 19 14 47 10 47 -6z"/>
<path d="M2770 2480 c0 -27 -2 -29 -30 -24 -59 12 -97 -37 -77 -98 8 -25 58
-54 71 -41 3 3 19 6 36 5 l30 -1 0 95 c0 77 -3 94 -15 94 -10 0 -15 -10 -15
-30z m-12 -62 c7 -7 12 -21 12 -33 0 -47 -62 -63 -81 -21 -22 47 33 90 69 54z"/>
<path d="M2200 2410 c0 -83 1 -90 20 -90 16 0 20 7 20 35 0 35 0 35 46 35 59
0 55 24 -4 28 -37 3 -42 6 -42 28 0 22 4 24 50 24 38 0 50 4 50 15 0 12 -14
15 -70 15 l-70 0 0 -90z"/>
<path d="M2375 2435 c-29 -28 -32 -65 -7 -93 19 -24 45 -29 85 -19 41 11 34
29 -8 21 -22 -4 -41 -2 -50 6 -27 22 -16 30 40 30 43 0 55 3 55 15 0 23 -46
65 -70 65 -11 0 -32 -11 -45 -25z m79 -20 c4 -12 -3 -15 -34 -15 -38 0 -49 8
-33 23 12 13 61 7 67 -8z"/>
<path d="M2525 2435 c-27 -26 -30 -41 -16 -78 12 -31 62 -50 96 -37 38 15 31
32 -10 24 -22 -4 -41 -2 -50 6 -27 22 -16 30 40 30 48 0 55 3 55 19 0 23 -45
61 -72 61 -10 0 -30 -11 -43 -25z m83 -22 c2 -9 -9 -13 -38 -13 -37 0 -41 2
-30 16 15 17 61 15 68 -3z"/>
</g>
</svg>
