<svg width="27" height="15" viewBox="0 0 27 15" fill="none" xmlns="http://www.w3.org/2000/svg">
<path d="M1 6.5C0.447715 6.5 -4.82823e-08 6.94772 0 7.5C4.82823e-08 8.05228 0.447715 8.5 1 8.5L1 6.5ZM26.7071 8.2071C27.0976 7.81658 27.0976 7.18342 26.7071 6.79289L20.3431 0.42893C19.9526 0.0384062 19.3195 0.0384063 18.9289 0.428931C18.5384 0.819455 18.5384 1.45262 18.9289 1.84314L24.5858 7.5L18.9289 13.1569C18.5384 13.5474 18.5384 14.1805 18.9289 14.5711C19.3195 14.9616 19.9526 14.9616 20.3431 14.5711L26.7071 8.2071ZM1 8.5L26 8.5L26 6.5L1 6.5L1 8.5Z" fill="#0038FF"/>
</svg>
