<svg xmlns="http://www.w3.org/2000/svg" width="37" height="32" fill="#000" xmlns:v="https://vecta.io/nano"><path d="M32.317.073c-.484.121-.773.248-1.149.522-.997.713-1.322 2.019-.752 3.044.13.236.21.446.181.471l-5.095 4.318-.47.408-.499-.204c-.672-.28-1.387-.325-2.06-.121-.253.076-.549.191-.65.255l-.188.121-.542-.382-.585-.376c-.022 0-.195.166-.376.363l-.332.369.202.159.52.388.318.229-.173.344c-.101.21-.181.522-.202.802-.13 1.764 1.865 3.127 3.758 2.56.824-.242 1.366-.675 1.749-1.395.202-.369.224-.478.224-1.019 0-.522-.029-.656-.195-.968l-.188-.363 1.958-1.675 2.847-2.426.875-.758.491.172c.441.153.564.172 1.142.146.795-.032 1.301-.21 1.843-.656.831-.688 1.135-1.649.809-2.573C35.403.774 34.406.073 33.17.003a3.31 3.31 0 0 0-.853.07zm1.489 1.108a1.43 1.43 0 0 1 .918 1.382c0 .388-.029.49-.217.764-.325.459-.86.726-1.46.726-.759 0-1.279-.287-1.583-.86-.463-.872.036-1.828 1.127-2.14.267-.076.91-.006 1.214.127zM24.115 9.55c.282.134.643.446.788.694.181.306.21.815.072 1.185-.159.408-.687.866-1.135.968-.376.089-.976.051-1.279-.089-.282-.127-.636-.446-.788-.694-.058-.108-.13-.376-.152-.599-.029-.344-.007-.446.159-.751.332-.592.911-.879 1.669-.834.246.013.542.07.665.121zM13.022 2.111c-.867.166-1.597.688-1.987 1.42-.21.388-.231.478-.231 1.076v.65L8.282 6.754l-2.515 1.49-.34-.185a3.79 3.79 0 0 0-1.453-.376 3.85 3.85 0 0 0-1.51.401c-1.322.694-1.763 2.267-.983 3.452.26.382.838.841 1.322 1.038.361.153.499.172 1.171.172.701 0 .795-.013 1.229-.197a2.88 2.88 0 0 0 1.395-1.229c.217-.389.231-.465.231-1.057 0-.522-.029-.694-.159-.943l-.159-.299 2.428-1.433 2.428-1.433.354.293c1.084.892 2.76.904 3.837.032.173-.146.347-.261.376-.261s.202.115.39.248c.188.14.376.261.419.274.036.013.231-.153.419-.357l.354-.376-.289-.217-.499-.344-.217-.134v-.681c0-.624-.014-.707-.224-1.089-.434-.79-1.098-1.261-2.023-1.433a2.42 2.42 0 0 0-1.243 0zM14.15 3.13c1.012.267 1.518 1.261 1.069 2.102-.296.56-.853.872-1.561.872s-1.265-.312-1.561-.872c-.441-.828.058-1.828 1.055-2.102.426-.115.549-.115.997 0zM4.748 8.881c.853.388 1.192 1.261.788 2.025-.723 1.369-3.093 1.006-3.274-.51-.137-1.185 1.286-2.051 2.486-1.516zm13.369-1.834l-.34.408c0 .057 1.019.745 1.077.726a3.46 3.46 0 0 0 .658-.739c0-.045-.766-.618-.976-.726-.043-.025-.231.127-.419.331zm10.934 13.055V31.82h3.975H37V20.102 8.384h-3.975-3.975v11.718zm6.793 0v10.699h-2.818-2.818V20.102 9.403h2.818 2.818v10.699zm-26.16 2.134v9.585h3.975 3.975v-9.585-9.585h-3.975-3.975v9.585zm6.793 0v8.566h-2.818-2.818v-8.566-8.566h2.818 2.818v8.566zM0 25.197v6.623h3.975H7.95v-6.623-6.623H3.975 0v6.623zm6.793 0v5.604H3.975 1.156v-5.604-5.604h2.818 2.818v5.604zm12.574 0v6.623h3.975 3.975v-6.623-6.623h-3.975-3.975v6.623zm6.793 0v5.604h-2.818-2.818v-5.604-5.604h2.818 2.818v5.604z"/></svg>