<svg xmlns="http://www.w3.org/2000/svg" width="37" height="32" fill="#000" xmlns:v="https://vecta.io/nano"><path d="M25.98.889l-3.707.93c-.224.055-.405.427-.318.661.051.11.419.4 1.055.82.853.558.968.661.903.772-.188.338-1.214 1.55-1.901 2.246-.759.772-.846.916-.723 1.219.079.179.448.31.687.227.477-.158 2.854-2.928 3.216-3.741.152-.351.029-.524-.701-.999l-.672-.468c-.029-.055 5.442-1.426 5.492-1.371.014.014.145 1.109.282 2.432l.296 2.707.043.303-.679-.448c-.759-.503-.932-.579-1.135-.468-.079.034-.448.434-.824.882-2.508 2.997-5.398 5.222-8.983 6.93-3.577 1.702-7.4 2.68-12.112 3.107-.448.041-.491.034-.491-.083 0-.096.21-.193 1.07-.461 3.888-1.219 7.465-2.811 10.421-4.643a47.64 47.64 0 0 0 3.23-2.266c.332-.269.383-.579.145-.806-.289-.276-.527-.234-1.07.186-3.368 2.632-7.754 4.85-12.878 6.496-.78.248-1.503.517-1.604.593-.556.413-.556 1.35 0 1.77.361.269.621.303 1.612.214 6.851-.592 12.878-2.825 17.553-6.51a30.66 30.66 0 0 0 3.526-3.376l.679-.806c.022-.028.484.248 1.019.606s1.041.648 1.127.648c.253 0 .39-.076.491-.269.079-.152.043-.689-.289-3.796L30.352.4c0-.207-.282-.406-.564-.4-.145 0-1.857.406-3.808.889zm2.24 11.842a1.72 1.72 0 0 0-.347.269c-.34.358-.332.152-.34 9.224v8.563h-.867-.867v-6.731l-.152-7.034c-.094-.179-.275-.372-.448-.482l-.296-.186H22.59c-2.298 0-2.32 0-2.587.158a1.73 1.73 0 0 0-.434.413l-.166.255-.022 6.806-.014 6.799H18.5h-.867v-4.808c-.007-5.07-.007-5.125-.34-5.47a1.58 1.58 0 0 0-.405-.269c-.253-.131-.419-.138-2.573-.117l-2.298.021-.267.2c-.535.386-.549.462-.549 3.155l.079 2.563c.159.324.715.386.911.097.029-.048.072-1.192.094-2.535l.036-2.446 2.052-.021 2.117.069c.029.048.058 2.218.058 4.822v4.74h-2.132-2.132V29.25c0-1.523 0-1.543-.166-1.688-.239-.214-.578-.2-.766.027-.145.172-.152.269-.152 1.688v1.509h-.867-.867v-2.88l-.072-3.128c-.043-.145-.159-.351-.267-.469-.361-.413-.376-.413-2.883-.413-2.168 0-2.298.007-2.551.145-.145.076-.347.248-.441.386l-.181.255-.022 3.052-.022 3.052h-1.22l-1.416.069c-.397.145-.513.537-.246.813l.152.152H18.5h18.204l.152-.152c.267-.276.152-.668-.246-.813-.108-.034-.752-.069-1.424-.069h-1.221v-4.884l-.043-5.001c-.072-.165-.434-.317-.643-.269-.412.096-.397-.096-.397 5.243v4.912H30.75h-2.132v-8.494l.058-8.577c.051-.062.52-.083 2.117-.069l2.052.021.022 2.783c.014 2.756.022 2.79.173 2.948a.52.52 0 0 0 .773-.021c.145-.179.152-.255.152-3.011l-.152-3.128a1.08 1.08 0 0 0-.455-.468l-.311-.172h-2.305c-2.117 0-2.32.014-2.522.131zm-3.592 4.705c.065.062.087 1.646.087 6.717v6.634h-2.132-2.132v-6.634l.087-6.717c.123-.117 3.967-.117 4.09 0zM8.34 25.042c.022.062.043 1.378.043 2.928v2.818H6.251 4.119v-2.88l.051-2.928c.022-.028.961-.048 2.088-.048 1.792 0 2.045.014 2.081.11z"/></svg>