<svg xmlns="http://www.w3.org/2000/svg" width="37" height="32" fill="#000" xmlns:v="https://vecta.io/nano"><path d="M1.46.115A2.12 2.12 0 0 0 .063 1.678c-.058.26-.072 4.414-.058 14.442l.022 14.073.152.333a2.17 2.17 0 0 0 1.027 1.056l.412.203 6.874.022 7.076-.065c.355-.145.499-.586.326-.97-.188-.412.094-.398-7.185-.398s-6.997.015-7.185-.398c-.065-.145-.087-3.039-.087-12.192V5.773h17.076 17.076v12.011c0 13.067.022 12.315-.398 12.503-.137.065-1.845.087-6.881.087-7.272 0-6.989-.014-7.177.398-.174.384-.029.825.326.97.152.058 1.982.08 7.076.065l6.874-.022.412-.203c.463-.232.803-.579 1.028-1.056l.152-.333v-14.29-14.29l-.203-.412c-.232-.463-.579-.803-1.056-1.027l-.333-.152L18.622.006C2.653-.008 1.814-.008 1.46.115zm25.013 2.764v1.447H13.955 1.438V3.147c.007-1.252.043-1.433.369-1.614.145-.08 2.395-.094 12.423-.101h12.242v1.447zm8.719-1.36c.347.159.398.376.398 1.65v1.158h-3.835-3.835V2.879 1.432h3.545c2.59 0 3.589.022 3.726.087zM4.701 8.768c-.362.203-.362.203-.369 3.856l.087 3.603c.188.42-.709.398 14.087.398l13.791-.087c.398-.181.398-.195.398-3.893s0-3.712-.398-3.893c-.289-.137-27.357-.123-27.596.014zm26.547 3.878v2.532H18.514 5.779v-2.532-2.532h12.734 12.734v2.532zM4.701 19.622c-.362.203-.362.203-.369 3.857 0 3.668 0 3.704.369 3.9.304.152 11.692.152 11.996 0 .362-.195.369-.232.369-3.885 0-3.69 0-3.705-.398-3.886-.289-.13-11.729-.116-11.967.015zM15.619 23.5v2.532h-4.92-4.92V23.5v-2.532h4.92 4.92V23.5zm4.711-3.878c-.362.203-.362.203-.369 3.857 0 3.668 0 3.704.369 3.9.304.152 11.692.152 11.996 0 .362-.195.369-.232.369-3.885 0-3.69 0-3.705-.398-3.886-.289-.13-11.729-.116-11.967.015zM31.248 23.5v2.532h-4.92-4.92V23.5v-2.532h4.92 4.92V23.5zm-13.089 6.975c-.651.362-.362 1.346.398 1.346.275 0 .68-.427.68-.724 0-.166-.065-.304-.246-.478-.268-.268-.528-.311-.832-.145z"/></svg>