<svg xmlns="http://www.w3.org/2000/svg" width="37" height="32" fill="#000" xmlns:v="https://vecta.io/nano"><path d="M12.129.063C9.865.443 8.02 2.028 7.586 3.967c-.116.516-.145.572-.311.603-1.252.236-2.402.864-3.068 1.66-.991 1.193-1.23 2.493-.731 3.991.029.093-.022.162-.203.267-.405.23-1.353 1.075-1.729 1.535-.651.783-1.085 1.622-1.375 2.611-.21.746-.232 2.225-.029 3.015.376 1.517 1.418 3.033 2.728 3.978l.478.336-.072.317c-.036.168-.051.59-.036.932.101 1.852 1.621 3.456 3.733 3.922l.499.112.08.454c.152.82.731 1.852 1.411 2.499.34.317 1.237.883 1.744 1.094a6.75 6.75 0 0 0 4.942.037c1.346-.547 2.445-1.554 2.959-2.716.21-.479.391-1.212.391-1.585v-.242h2.778 2.786l1.063 1.156 1.056 1.156-.166.317c-.347.628-.174 1.442.405 1.927.427.354.789.479 1.418.479.441 0 .615-.031.919-.162.868-.367 1.273-1.212.998-2.045-.101-.28-.21-.429-.499-.684-.579-.491-1.208-.622-2.149-.435-.166.031-.275-.075-1.23-1.125l-1.208-1.305-.159-.149h-3.01-3.003V24.61v-1.305h2.677 2.67l.137.267c.412.796 1.671 1.212 2.59.858 1.396-.547 1.628-2.157.434-2.934-.195-.13-.499-.267-.673-.304-.412-.1-1.078-.05-1.447.112-.355.162-.854.628-.962.92l-.087.211h-2.67-2.67V21.13v-1.305h4.254 4.261l.13.249c.311.597 1.049.994 1.845.994 1.129-.006 1.961-.733 1.961-1.722 0-.721-.398-1.231-1.23-1.56-.325-.131-.463-.149-.868-.124-.282.019-.601.087-.774.162-.362.162-.861.628-.969.92l-.087.211h-4.262-4.261V17.65v-1.305h1.512 1.519l.203.323c.478.765 1.592 1.1 2.525.765.666-.236 1.186-.914 1.186-1.548 0-.559-.123-.833-.579-1.231a1.99 1.99 0 0 0-1.613-.522c-.738.087-1.469.578-1.657 1.106l-.08.236H20.5h-1.505v-1.305-1.305h3.929 3.921l3.205 2.754 3.205 2.754-.116.23c-.13.274-.137.92-.007 1.237.347.827 1.512 1.299 2.511 1.013.557-.162 1.1-.64 1.266-1.119.275-.833-.152-1.691-1.027-2.051a2.86 2.86 0 0 0-1.599-.062l-.326.112-3.343-2.872-3.335-2.866h-4.146-4.139v-1.367V9.26h7.018 7.018l.108.224c.405.833 1.512 1.268 2.503.988.528-.155 1.078-.628 1.259-1.082.333-.87-.21-1.852-1.194-2.151a2.6 2.6 0 0 0-1.556.056c-.42.162-.846.547-.984.87l-.094.224h-7.04-7.04v-.963-.963h4.139 4.138l1.158-.995 1.165-.988.289.087c.673.205 1.411.062 1.982-.379 1.338-1.032.478-2.965-1.317-2.965-.832 0-1.534.392-1.859 1.032-.203.392-.21.995-.014 1.368l.145.273-.991.852-.984.845h-3.914-3.914l-.043-.765c-.051-.895-.217-1.473-.637-2.157-.774-1.28-2.156-2.219-3.755-2.549-.658-.131-1.838-.162-2.453-.056zm2.561 1.019c1.462.423 2.568 1.361 3.06 2.611l.195.497.022 11.468c.022 12.867.058 11.997-.514 12.991-.601 1.057-1.845 1.89-3.205 2.151-.767.143-1.823.093-2.547-.124-1.787-.535-3.003-1.852-3.198-3.468-.08-.684-.152-.765-.709-.827-1.679-.18-3.031-1.187-3.451-2.561a3.42 3.42 0 0 1 0-1.666c.145-.472.08-.609-.441-.932-1.085-.671-2.091-1.871-2.554-3.058-.948-2.424.029-5.271 2.344-6.844.984-.665.998-.677.955-.864-.014-.1-.109-.342-.195-.547a3.35 3.35 0 0 1-.109-1.958c.412-1.355 1.715-2.35 3.343-2.549.651-.075.738-.162.818-.814.116-.97.499-1.703 1.259-2.406A5.14 5.14 0 0 1 12.36.926c.658-.099 1.686-.031 2.33.155zm16.373 1.15c.427.224.564.733.304 1.106-.55.777-1.809.472-1.809-.448 0-.267.029-.329.282-.541.246-.218.318-.242.63-.242.224 0 .441.044.593.124zm4.486 5.905c.398.211.557.696.347 1.044-.268.435-.789.609-1.295.429-.355-.131-.557-.423-.557-.814 0-.267.029-.329.282-.541.246-.218.318-.242.63-.242.224 0 .441.044.593.124zm-11.012 7.005c.384.211.514.783.268 1.144-.174.249-.673.454-.977.398-.731-.13-1.078-.783-.687-1.28a1.1 1.1 0 0 1 1.396-.261zm10.997 3.369c.246.131.463.466.463.721 0 .392-.42.777-.89.82-.615.062-1.063-.304-1.063-.876 0-.267.029-.329.282-.541.246-.218.318-.242.63-.242.217 0 .441.043.579.118zm-5.607.099c.311.143.499.441.499.802 0 .267-.029.329-.282.541-.246.218-.318.242-.63.242-.441 0-.76-.155-.919-.454-.152-.267-.159-.491-.022-.715.116-.186.383-.41.55-.466a1.37 1.37 0 0 1 .803.05zm-3.183 3.481c.311.143.499.441.499.802 0 .267-.029.329-.282.541-.246.218-.318.242-.63.242-.651 0-1.1-.417-1.02-.951.043-.255.318-.572.593-.665a1.3 1.3 0 0 1 .839.031zm2.019 7.273c.499.224.687.677.441 1.1-.181.323-.47.485-.875.485s-.695-.162-.875-.485c-.405-.709.492-1.461 1.31-1.1zM12.469 2.6c-1.179.261-2.055 1.156-2.142 2.182-.029.367-.014.435.123.553.188.162.441.168.651.019.116-.075.174-.218.224-.497.224-1.38 2.026-1.964 3.191-1.026.369.298.55.603.63 1.1.087.528.629.709.933.311.108-.143.108-.211.036-.603-.217-1.075-1.15-1.89-2.402-2.095-.506-.081-.666-.075-1.244.056zm-2.467 5.525c-.174.162-.152.466.029.609.101.081.311.124.709.155.955.068 1.664.485 2.084 1.225.195.336.203.404.224 1.424.029.951.014 1.125-.123 1.504-.289.808-1.107 1.38-2.134 1.492-.557.056-.695.149-.695.479 0 .385.478.497 1.324.305 1.288-.286 2.308-1.206 2.576-2.318.116-.491.101-2.2-.029-2.673-.369-1.343-1.758-2.312-3.314-2.312-.427 0-.557.025-.651.112zm-2.699 3.314c-1.071.155-2.084.628-2.974 1.392-.579.497-.702.653-1.02 1.218-.42.733-.608 1.405-.579 1.977.022.348.043.41.217.522.166.106.224.112.405.05.26-.093.376-.298.376-.678 0-.659.449-1.628 1.027-2.231.803-.833 2.192-1.442 3.299-1.448.311 0 .586-.081.68-.211a.44.44 0 0 0-.101-.559c-.181-.112-.716-.118-1.331-.031zm-.398 4.662c-.145.124-.152.18-.116.64.101 1.343 1.237 2.524 2.836 2.934.369.099.716.118 2.301.118H13.8l.137-.149c.181-.186.174-.41-.007-.566-.137-.118-.239-.124-1.678-.124-1.751 0-2.315-.056-2.88-.292-.774-.323-1.454-1.094-1.556-1.765-.094-.603-.123-.69-.26-.808-.181-.155-.463-.149-.651.012zm4.023 5.463c-.109.099-.123.199-.094.634.08 1.193.832 2.281 2.069 2.977.608.342 1.194.522 1.997.622.521.062.586.056.76-.056.239-.149.289-.497.101-.646-.072-.056-.391-.131-.745-.168-1.158-.13-2.236-.746-2.742-1.56-.297-.472-.362-.665-.441-1.237-.043-.273-.116-.503-.188-.572-.166-.155-.55-.155-.716.006zm-4.883.665c-.137.155-.159.23-.13.622.08 1.013.969 1.896 2.084 2.045.246.037.326.019.47-.099.362-.292.159-.653-.456-.802-.666-.162-1.092-.69-1.1-1.349 0-.435-.123-.584-.492-.584-.152 0-.268.05-.376.168zm4.268 4.277c-.145.137-.159.193-.123.522.159 1.312 1.353 2.337 2.872 2.474.383.031.434.025.608-.124.383-.329.138-.684-.514-.746-1.056-.099-1.83-.764-1.953-1.666-.072-.572-.514-.802-.89-.46zm22.53-15.186c-.391.112-.912.497-1.107.827-.137.218-.195.429-.21.746-.029.398-.007.472.217.833.781 1.299 2.872 1.237 3.589-.106a1.12 1.12 0 0 0 .145-.746c-.065-.976-.89-1.641-2.004-1.622a3.71 3.71 0 0 0-.629.068zm1.136.889a.79.79 0 0 1-.029 1.479c-.687.286-1.425-.087-1.425-.721 0-.646.781-1.057 1.454-.758zm-1.223 10.972c-.521.205-.796.429-1.035.845-.203.348-.224.441-.195.814a1.52 1.52 0 0 0 .615 1.181c.731.609 1.99.609 2.72 0a1.51 1.51 0 0 0 .615-1.194c.022-.398.007-.472-.217-.833-.478-.796-1.606-1.162-2.503-.814zm1.223.839c.651.292.651 1.2 0 1.492-.658.292-1.454-.106-1.454-.734 0-.646.781-1.057 1.454-.758z"/></svg>