<svg xmlns="http://www.w3.org/2000/svg" width="37" height="32" fill="none" xmlns:v="https://vecta.io/nano"><path d="M11.811.078C9.925.48 8.603 1.881 8.274 3.808c-.225 1.343.291 2.877 1.295 3.846.291.288.488.537.422.556-.328.115-1.285.873-1.698 1.343-.554.633-1.154 1.793-1.323 2.561l-.113.527h-.385c-1.004 0-2.101.499-2.899 1.314-1.726 1.765-1.726 4.45-.019 6.243l.582.604-.347.182c-1.276.671-2.43 2.235-2.758 3.759-.075.336-.338 1.956-.582 3.615L0 31.36l.253.23.263.23h18.012H36.54l.225-.24c.131-.125.234-.288.234-.364 0-.249-.947-6.349-1.041-6.732-.356-1.362-1.454-2.791-2.693-3.5l-.347-.201.572-.595a4.53 4.53 0 0 0 .779-5.179c-.647-1.285-2.317-2.359-3.696-2.369h-.375l-.253-.854c-.422-1.41-1.379-2.685-2.533-3.356l-.441-.259.516-.527c1.923-1.928 1.707-5.131-.45-6.761A4.34 4.34 0 0 0 22.487.5c-1.839.949-2.796 3.251-2.186 5.265.225.729.826 1.688 1.276 2.043.178.144.319.278.319.316 0 .029-.235.211-.525.393-1.173.748-2.233 2.263-2.495 3.558-.103.527-.131.566-.375.566-.197 0-.263-.048-.263-.182 0-.268-.422-1.438-.713-1.976-.347-.614-1.145-1.486-1.792-1.928l-.591-.403c-.019-.01.141-.192.356-.384 1.154-1.055 1.698-2.867 1.295-4.392-.582-2.254-2.842-3.74-4.982-3.299zm1.876 1.506c.666.23 1.454 1.045 1.726 1.803.169.46.206.71.178 1.247-.056.863-.319 1.458-.891 2.043-.638.652-1.332.911-2.28.863-.844-.038-1.398-.288-1.979-.873-1.398-1.419-1.116-3.807.563-4.833.863-.527 1.67-.604 2.683-.249zm12.121.125c1.858.93 2.261 3.5.779 4.968-.582.585-1.135.825-1.97.863-.947.048-1.642-.211-2.28-.863-.572-.585-.835-1.18-.891-2.043-.141-2.378 2.242-3.98 4.362-2.925zM13.481 9.044c1.736.374 3.152 1.822 3.471 3.558.047.268.019.307-.338.489-1.52.767-2.42 2.244-2.42 3.98v.748h-1.632-1.632l.056-.46c.169-1.515-.825-3.376-2.233-4.143l-.572-.307.056-.403c.244-1.582 1.904-3.232 3.527-3.5.75-.125 1.004-.115 1.717.038zm11.699-.038c.919.144 1.698.556 2.402 1.275.638.662 1.107 1.506 1.22 2.225l.056.403-.572.307c-1.407.767-2.402 2.628-2.233 4.143l.056.46h-1.632-1.642v-.758c0-1.736-.863-3.165-2.392-3.961l-.394-.211c-.019-.019.038-.278.113-.585.413-1.592 1.764-2.906 3.358-3.261.732-.163.901-.163 1.661-.038zM7.965 14.29a3.76 3.76 0 0 1 1.482 1.592c.31.691.281 1.813-.056 2.522-.3.633-.929 1.266-1.548 1.554-.675.307-1.773.288-2.458-.038-1.023-.499-1.679-1.467-1.764-2.599a3.08 3.08 0 0 1 2.045-3.184c.629-.23 1.698-.163 2.298.153zm11.896.019c.572.278 1.07.786 1.398 1.419.188.355.216.556.216 1.371 0 .882-.019.997-.272 1.467-.957 1.765-3.255 2.148-4.756.806-.572-.508-.863-1.189-.91-2.11-.047-.892.084-1.362.544-2.014.844-1.199 2.467-1.602 3.781-.94zm11.989.077c2.205 1.228 2.064 4.479-.244 5.562-.638.297-1.773.307-2.411.01-.619-.288-1.248-.921-1.548-1.554-.338-.71-.366-1.832-.056-2.522a3.02 3.02 0 0 1 2.993-1.87 2.3 2.3 0 0 1 1.266.374zm-16.943 5.179c.141.23.45.585.675.806l.413.393-.6.393a5.86 5.86 0 0 0-2.026 2.35c-.366.796-.469 1.16-.675 2.465l-.122.719-.075-.48c-.366-2.244-.694-3.05-1.642-4.085-.338-.364-.863-.825-1.173-1.017l-.553-.345.338-.288c.188-.153.507-.518.713-.796l.375-.518h2.045 2.045l.263.403zm11.952.115c.206.278.525.642.713.796l.338.288-.544.345c-.685.431-1.492 1.247-1.886 1.918-.422.71-.647 1.429-.835 2.609l-.178.978c-.009-.01-.113-.537-.225-1.17-.338-1.956-1.173-3.337-2.589-4.287l-.6-.403.413-.393c.216-.211.525-.566.666-.796l.263-.403h2.045 2.045l.375.518zM7.721 21.703c1.276.345 2.298 1.189 2.88 2.398.31.633.375.93.751 3.366l.413 2.839c0 .163-.31.173-5.16.173h-5.16l.047-.221.432-2.752c.403-2.647.525-3.146 1.023-3.932.976-1.554 3.011-2.349 4.775-1.87zm11.858 0c1.445.384 2.645 1.477 3.115 2.829.113.326.976 5.486.985 5.869 0 .048-2.317.077-5.16.077-2.833 0-5.16-.029-5.16-.077 0-.364.873-5.543.985-5.869.732-2.119 3.105-3.395 5.235-2.829zm11.933 0a4.5 4.5 0 0 1 3.049 2.8c.094.259.347 1.611.554 3.002l.431 2.752.047.221h-5.169-5.169l.056-.518.431-2.848c.319-2.062.394-2.388.694-3.011.563-1.17 1.745-2.148 2.927-2.436.572-.134 1.538-.115 2.148.038z" fill="#000"/></svg>