<svg width="15" height="15" viewBox="0 0 15 15" fill="none" xmlns="http://www.w3.org/2000/svg">
<path d="M12 15C11.375 15 10.8437 14.7812 10.4062 14.3438C9.96875 13.9063 9.75 13.375 9.75 12.75C9.75 12.6625 9.75625 12.5717 9.76875 12.4777C9.78125 12.3842 9.8 12.3 9.825 12.225L4.5375 9.15C4.325 9.3375 4.0875 9.48425 3.825 9.59025C3.5625 9.69675 3.2875 9.75 3 9.75C2.375 9.75 1.84375 9.53125 1.40625 9.09375C0.96875 8.65625 0.75 8.125 0.75 7.5C0.75 6.875 0.96875 6.34375 1.40625 5.90625C1.84375 5.46875 2.375 5.25 3 5.25C3.2875 5.25 3.5625 5.303 3.825 5.409C4.0875 5.5155 4.325 5.6625 4.5375 5.85L9.825 2.775C9.8 2.7 9.78125 2.61575 9.76875 2.52225C9.75625 2.42825 9.75 2.3375 9.75 2.25C9.75 1.625 9.96875 1.09375 10.4062 0.65625C10.8437 0.21875 11.375 0 12 0C12.625 0 13.1563 0.21875 13.5938 0.65625C14.0312 1.09375 14.25 1.625 14.25 2.25C14.25 2.875 14.0312 3.40625 13.5938 3.84375C13.1563 4.28125 12.625 4.5 12 4.5C11.7125 4.5 11.4375 4.44675 11.175 4.34025C10.9125 4.23425 10.675 4.0875 10.4625 3.9L5.175 6.975C5.2 7.05 5.21875 7.13425 5.23125 7.22775C5.24375 7.32175 5.25 7.4125 5.25 7.5C5.25 7.5875 5.24375 7.678 5.23125 7.7715C5.21875 7.8655 5.2 7.95 5.175 8.025L10.4625 11.1C10.675 10.9125 10.9125 10.7655 11.175 10.659C11.4375 10.553 11.7125 10.5 12 10.5C12.625 10.5 13.1563 10.7188 13.5938 11.1562C14.0312 11.5937 14.25 12.125 14.25 12.75C14.25 13.375 14.0312 13.9063 13.5938 14.3438C13.1563 14.7812 12.625 15 12 15Z" fill="black"/>
</svg>
