<svg width="17" height="15" viewBox="0 0 17 15" fill="none" xmlns="http://www.w3.org/2000/svg">
<path d="M17 2.21797C16.3743 2.50238 15.6998 2.68929 15.001 2.77867C15.7161 2.34799 16.2686 1.66539 16.5287 0.84464C15.8542 1.25095 15.1066 1.53537 14.3184 1.69789C13.6764 0.999038 12.7744 0.592728 11.7505 0.592728C9.84082 0.592728 8.28059 2.15296 8.28059 4.07887C8.28059 4.35516 8.3131 4.62332 8.36998 4.87523C5.47706 4.72896 2.90105 3.33938 1.18642 1.2347C0.885755 1.74665 0.715105 2.34799 0.715105 2.98183C0.715105 4.19263 1.32457 5.26529 2.26721 5.87476C1.69025 5.87476 1.15392 5.71223 0.682601 5.46845V5.49282C0.682601 7.18307 1.88528 8.59703 3.47801 8.91395C2.96665 9.05389 2.42981 9.07336 1.90966 8.97084C2.13037 9.66358 2.56263 10.2697 3.14566 10.7041C3.7287 11.1385 4.4332 11.3792 5.16013 11.3924C3.9279 12.3679 2.40048 12.8952 0.828872 12.8877C0.552581 12.8877 0.276291 12.8714 0 12.8389C1.54398 13.8303 3.3805 14.4073 5.34704 14.4073C11.7505 14.4073 15.2691 9.09273 15.2691 4.48518C15.2691 4.33078 15.2691 4.18451 15.261 4.03011C15.9436 3.54254 16.5287 2.92495 17 2.21797Z" fill="black"/>
</svg>
