<svg xmlns="http://www.w3.org/2000/svg" width="37" height="32" fill="none" xmlns:v="https://vecta.io/nano"><path d="M20.107.128c-.321.126-.815.563-.897.795-.045.133-.09.139-1.278.139h-1.226v2.121 2.121h-.733c-.658 0-1.076.066-1.525.232-.127.046-.135-.033-.135-1.16V3.164l-.949.04c-1.084.046-1.928.172-2.773.418-3.543 1.047-6.137 3.646-6.869 6.907-.157.716-.179 2.652-.03 3.394.344 1.75.994 3.255 1.988 4.62L7.026 20.2l.949 1.114-.478.086c-.792.146-1.914.471-2.594.749-.598.245-.665.258-.942.192-.187-.046-.845-.066-1.772-.053-1.607.02-1.667.033-2.033.477C0 22.945 0 23.018 0 26.518l.157 3.752c.366.444.426.457 2.033.477l1.772-.053c.277-.066.344-.053.882.166.807.331 1.958.656 2.855.802.673.113 1.159.126 4.971.126 4.515 0 4.328.013 5.247-.345l.426-.166.284.199c.449.312.673.345 2.25.345 1.742 0 1.928-.04 2.444-.497.605-.53.718-1.127.351-1.783l-.217-.371.217-.371c.142-.258.209-.477.209-.689s-.067-.431-.209-.689l-.217-.371.217-.371c.366-.656.254-1.253-.351-1.783-.202-.186-.493-.371-.635-.411-.217-.06-.067-.073.889-.08 1.405-.007 1.644-.066 2.138-.504.762-.669.762-1.518 0-2.187-.463-.418-.755-.497-1.749-.497-.411 0-.755-.02-.755-.04s.112-.159.254-.312c.688-.756 1.443-1.995 1.861-3.063.142-.364.434-1.366.643-2.221l.426-1.677c.037-.106-.284-.113-6.017-.113h-6.062v-1.584-1.591l-1.413-.02c-1.547-.02-1.615-.04-1.981-.477-.217-.259-.217-.882 0-1.14.344-.411.478-.457 1.532-.477l.972-.027.157.179a2.35 2.35 0 0 0 .957.683c.351.152.531.179 1.293.199l.875.027v1.584 1.584h5.382 5.382v-1.134c0-1.021.015-1.133.12-1.094.067.027.433.06.807.079 1.233.066 1.196.046 2.609 1.279.695.603 1.308 1.2 1.375 1.319s.239.298.381.398l.262.179h1.63c1.786 0 1.816-.007 2.19-.457.157-.179.157-.252.157-3.222l-.157-3.222c-.374-.444-.411-.457-2.16-.477l-1.592-.02-.777-.709c-.426-.391-1.024-1.021-1.33-1.405C29.144 1.931 26.446.446 23.456.102c-1.241-.146-2.96-.133-3.349.027zm3.319 1.041c2.257.292 4.44 1.366 5.86 2.877a16.77 16.77 0 0 1 .912 1.054c.247.305.807.888 1.256 1.299l.8.749v2.141 2.135l-.822-.709c-1.076-.935-1.42-1.087-2.683-1.167-1.48-.099-2.497-.378-3.595-.981-1.032-.563-2.467-2.028-2.467-2.519 0-.239.202-.53.448-.643.501-.225.972-.046 1.323.504.269.418.912.981 1.353 1.18.531.239 1.114.338 2.011.338h.845v-.53-.53h-.77c-.83 0-1.458-.119-1.689-.325-.075-.066-.157-.252-.187-.411s-.202-.577-.396-.921c-.284-.524-.441-.716-.949-1.16-.755-.656-1.144-.848-2.855-1.359-.732-.219-1.383-.451-1.428-.51-.142-.159-.12-.331.052-.484.135-.119.247-.133 1.166-.133.561 0 1.375.046 1.816.106zm-3.999 1.14c.239.318.568.464 1.936.868 1.353.404 1.944.643 2.22.902l.157.146-.419.04c-1.106.099-1.921.974-1.809 1.949.105.875 1.458 2.373 2.9 3.202.232.133.747.371 1.144.53l.718.298v.709.716h-4.186-4.186v-1.584-1.591l-1.413-.02c-1.547-.02-1.615-.04-1.981-.477-.217-.259-.217-.882 0-1.14.366-.437.434-.457 1.981-.477l1.413-.02V4.238 2.123h.695c.673 0 .688.007.83.186zm-6.309 3.52v1.584l-.912.027c-1.062.033-1.45.159-1.966.616-.486.431-.665.829-.665 1.492-.007.517.015.597.247.981.284.464.523.669 1.084.921.336.152.493.179 1.301.205l.912.027v1.054 1.054H9.007 4.903l-.06-.252c-.12-.484-.067-2.327.082-2.93.381-1.558 1.196-2.89 2.467-4.017 1.54-1.359 3.281-2.088 5.636-2.34.067-.007.09.351.09 1.578zm22.723 4.249v2.652h-1.196-1.196v-2.652-2.652h1.196 1.196v2.652zm-22.723 5.827v1.061l1.413.02c1.547.02 1.615.04 1.981.477.217.259.217.882 0 1.14-.366.438-.434.457-1.981.477l-1.413.02v1.061 1.054H11.25 9.381l-1.345-1.591c-1.704-2.029-2.332-3.023-2.796-4.428l-.112-.345h3.999 3.992v1.054zm11.773-.908l-.291 1.16c-.306 1.193-.718 2.154-1.278 2.996-.434.656-.598.849-1.39 1.697-.882.941-1.592 2.009-2.041 3.069-.134.305-.247.477-.321.477-.478 0-1.256.464-1.443.862l-.09.199h-2.168-2.16l.202-.252.247-.292c.03-.026.561-.126 1.196-.219 1.293-.192 1.585-.279 1.936-.583.411-.351.568-.676.575-1.206a1.42 1.42 0 0 0-.523-1.193c-.456-.398-.703-.464-1.921-.484l-1.106-.02v-.524-.517l.919-.027c.8-.026.957-.053 1.293-.206.561-.252.8-.457 1.084-.921.232-.384.254-.464.254-.981s-.022-.597-.254-.981c-.284-.464-.523-.669-1.084-.921-.336-.152-.493-.179-1.293-.205l-.919-.027v-.524-.524h5.307 5.307l-.037.146zm-8.402 7.471c.247.219.277.444.105.736-.135.239-.292.278-1.831.497l-1.39.225c-.09.033-.187.172-.247.338-.112.338-.598.822-1.017 1.008-.187.086-.501.152-.837.172l-.546.033v.53.53l.591-.04.59-.033.03 1.206c.03 1.008.06 1.259.194 1.584.187.444.561 1.054.732 1.18.06.046.149.139.187.212.082.126.037.126-2.34.093l-3.087-.166c-.792-.159-1.839-.477-2.444-.749l-.434-.192v-3.122-3.116l.62-.258c1.017-.418 2.19-.716 3.266-.815.142-.013 1.921-.033 3.947-.033l3.693-.013.217.192zm8.402-.027c.12.099.187.239.187.365s-.067.265-.187.365l-.179.166h-1.614-1.622l.209-.318.359-.524.157-.219h1.256c1.233 0 1.256 0 1.435.166zm-21.34 4.077v3.182H2.355 1.159v-3.182-3.182h1.196 1.196v3.182zm18.948-.895c.12.099.187.239.187.365s-.067.265-.187.365c-.179.166-.194.166-1.607.166s-1.428 0-1.607-.166c-.12-.099-.187-.239-.187-.365s.067-.265.187-.365c.179-.166.194-.166 1.607-.166s1.428 0 1.607.166zm-4.32 1.16l.157.265-.157.265-.165.265H15.57h-2.452v-.53-.53h2.452 2.444l.165.265zm4.32.961c.12.099.187.239.187.365s-.067.265-.187.365c-.179.166-.194.166-1.607.166s-1.428 0-1.607-.166c-.12-.099-.187-.239-.187-.365s.067-.265.187-.365c.179-.166.194-.166 1.607-.166s1.428 0 1.607.166zm-4.32 1.167l.172.272-.149.186c-.082.099-.194.345-.247.537-.097.351-.112.365-.613.59-.486.219-.568.232-1.233.232-.643 0-.755-.02-1.211-.212-.673-.278-1.121-.663-1.443-1.233-.142-.252-.262-.504-.262-.55 0-.079.426-.093 2.414-.093h2.407l.165.272zm4.32.955c.12.099.187.239.187.365s-.067.265-.187.364c-.179.166-.194.166-1.607.166s-1.428 0-1.607-.166c-.12-.099-.187-.239-.187-.364s.067-.265.187-.365c.179-.166.194-.166 1.607-.166s1.428 0 1.607.166z" fill="#000"/></svg>