<svg xmlns="http://www.w3.org/2000/svg" width="37" height="32" fill="#000" xmlns:v="https://vecta.io/nano"><path d="M13.205 2.052l-7.01 2.207c-.784.504-.895 1.188-.362 2.344.037.075-.037.143-.281.261-.673.336-1.287 1.026-1.486 1.685-.407 1.299.288 2.63 1.693 3.239.592.261.85.305 2.588.466 1.353.118 1.501.143 1.775.305.436.249 1.331.615 1.915.783.695.199 1.435.311 2.714.404l1.087.075.177.386.185.386-.244.168c-.377.255-.547.597-.806 1.654l-.229.964-.961.329-7.424 2.537-6.522 2.251c-.067.056.303.945.392.945.037 0 1.819-.591 3.963-1.312l4.252-1.43.348-.112 1.035 2.618 1.013 2.642c-.015.012-2.485.877-5.487 1.921L.006 29.713c-.03.025.052.242.185.491l.244.441.629-.218 3.845-1.343 8.178-2.848 4.962-1.728 1.501.149 1.546.18c.022.019.281.659.577 1.418l.532 1.38-.873.746c-.488.41-.939.846-1.013.964-.237.392-.17.864.229 1.71l.37.765c.022.025 10.049-3.289 10.116-3.339.074-.062-.488-1.331-.717-1.623-.096-.124-.348-.299-.569-.398-.385-.18-.436-.187-1.679-.218l-1.287-.037-.503-1.026a23.96 23.96 0 0 1-.518-1.088c0-.037.621-.323 1.383-.64.762-.323 1.486-.653 1.612-.734a1.48 1.48 0 0 0 .658-1.175c0-.336-.163-.746-1.723-4.259-1.849-4.172-1.997-4.489-2.248-4.719-.274-.249-.85-.441-1.338-.441-.392 0-.606.062-1.834.51-.828.299-1.427.479-1.464.448s-.133-.205-.215-.379l-.155-.329.887-.87c.481-.479.976-.989 1.094-1.132.503-.616.969-1.573 1.131-2.307.074-.354.133-.429 1.057-1.374 1.124-1.15 1.242-1.306 1.412-1.803.421-1.225-.348-2.624-1.775-3.214-.488-.199-.555-.211-1.309-.211h-.791L21.99 1.1c-.089-.199-.266-.46-.392-.584A2.14 2.14 0 0 0 20.289 0c-.251.006-2.048.522-7.084 2.052zm7.52-.771c.126.137 1.405 3.252 1.627 3.979.244.783.222 2.027-.044 2.854-.148.473-.599 1.299-.917 1.691-.2.236-1.553 1.598-2.226 2.232-.14.131-.133.143.133.74.148.329.237.622.207.647a28.16 28.16 0 0 1-2.137.74 10.34 10.34 0 0 1-.318-.64l-.296-.622-1.353-.106c-1.686-.131-2.24-.199-2.825-.373-1.634-.466-3.002-1.411-3.771-2.599-.325-.491-2.048-4.159-2.048-4.346 0-.261.311-.41 1.923-.895l6.47-1.965 5.154-1.492c.207-.006.303.031.421.155zm2.906 1.268c.148.037.436.193.643.348.599.454.821 1.138.562 1.772-.126.311-.991 1.275-1.065 1.194-.03-.025-.096-.255-.14-.497-.052-.249-.303-.995-.562-1.666l-.473-1.212h.384a3.9 3.9 0 0 1 .651.062zM6.905 8.804c.584 1.175.717 1.405 1.198 2.002l.362.454-.318-.031a32.61 32.61 0 0 0-.762-.068c-.991-.081-1.649-.429-1.952-1.032-.399-.765-.251-1.473.407-2.027.222-.187.444-.33.488-.317s.311.473.577 1.02zm17.554 4.309c.111.106.658 1.188.614 1.225-.007.006-.643.186-1.42.398-.769.211-1.434.41-1.471.441-.096.075.229.926.348.926.044 0 .717-.168 1.486-.379.762-.205 1.42-.354 1.449-.323.111.087.725 1.542.68 1.579-.03.025-.673.211-1.434.429l-1.39.392c.007.062.355.92.377.945.022.012.688-.149 1.471-.373s1.442-.392 1.457-.379c.059.044.688 1.48.688 1.554 0 .044-.584.236-1.346.442l-1.383.386c-.067.037.318.951.392.951.044 0 .658-.168 1.361-.373.71-.205 1.331-.373 1.383-.373.118 0 .407.616.407.864a.35.35 0 0 1-.111.255c-.059.044-1.25.553-2.632 1.125-1.915.796-2.588 1.051-2.795 1.044-.148 0-1.146-.087-2.218-.199l-1.952-.199-1.139-2.86-1.139-2.86.222-.988c.126-.541.266-1.038.318-1.107.14-.174 7.032-2.655 7.387-2.661.17 0 .311.044.392.118zm-8.341 7.909l1.013 2.593c.015.087-4.836 1.834-4.91 1.766a137.89 137.89 0 0 1-2.056-5.204c.044-.031 1.346-.466 1.361-.448a146.9 146.9 0 0 1 .776 1.94l.776 1.94c.022.025 1.028-.242 1.087-.286.037-.025-.288-.92-.717-1.996l-.776-1.996c0-.043 2.388-.864 2.425-.839a503.07 503.07 0 0 1 1.021 2.531zm8.866 4.346c.259.497.444.92.421.939a25.07 25.07 0 0 1-2.137.591c-.037-.031-.762-1.772-.762-1.834 0-.031.14-.068.318-.087.17-.012.592-.143.939-.286.348-.137.658-.242.688-.236.037.006.274.423.532.914zm4.126 1.99a.87.87 0 0 1 .266.311c.067.174.059.199-.089.242l-3.882 1.306-3.779 1.25c-.096 0-.229-.299-.229-.516 0-.174.126-.305 1.087-1.088l1.094-.883 1.331-.367 1.331-.373h1.338c1.235-.006 1.353.006 1.531.118zM18.551 2.866c-.244.131-.444.261-.444.286 0 .031.126.242.274.485.813 1.324 1.139 2.854.836 3.936-.133.46-.466 1.045-.776 1.337-.118.118-.222.242-.222.274s.185.205.407.392l.407.336.244-.236c1.508-1.505 1.701-3.5.547-5.869-.318-.659-.666-1.2-.776-1.188-.03 0-.251.112-.495.249zm11.72-.23c0 1.132-.614 2.027-1.715 2.493-.318.131-.673.23-.947.255l-.444.044v.51.51l.392.037c1.582.137 2.714 1.281 2.714 2.754v.336h.591.592v-.298c0-1.069.518-1.921 1.464-2.431.392-.205 1.028-.379 1.398-.379h.244v-.522-.516l-.444-.044c-.887-.087-1.886-.665-2.292-1.343-.192-.323-.37-.976-.37-1.418v-.323h-.592-.591v.336zm.665 2.151c0 .093.88.858 1.154 1.001l.251.131-.296.18c-.37.23-.85.64-1.02.877-.118.168-.237.23-.237.124 0-.118-.555-.647-.939-.895l-.407-.261.17-.118c.348-.224.969-.759 1.087-.926.118-.174.237-.23.237-.112zM3.282 12.883c0 .466-.148 1.063-.34 1.399-.429.746-1.383 1.331-2.322 1.424l-.444.043v.516.522H.42c.333 0 .983.168 1.353.348.429.211.969.715 1.176 1.1.185.33.333.951.333 1.362v.236h.592.592v-.342c0-1.38 1.131-2.53 2.64-2.692l.429-.043.022-.504.022-.504-.444-.043a3.52 3.52 0 0 1-.954-.255c-1.102-.466-1.715-1.362-1.715-2.493v-.336h-.592-.592v.261zm.754 2.332c.163.224.532.553.939.833l.318.224-.377.23a4.11 4.11 0 0 0-.717.603l-.34.361-.311-.342c-.163-.193-.495-.466-.725-.615l-.429-.267.251-.131c.274-.149 1.154-.908 1.154-1.001 0-.118.118-.062.237.106zm28.675-2.227a2.46 2.46 0 0 1-.895 1.965c-.451.398-1.021.647-1.693.734l-.525.075.022.497.022.497.444.043c.85.093 1.76.603 2.204 1.237a2.65 2.65 0 0 1 .421 1.405v.392h.621.621l.03-.609c.022-.491.067-.665.229-.945a2.89 2.89 0 0 1 1.043-1.051c.377-.224 1.124-.441 1.486-.441H37v-.528-.529h-.2c-.791-.006-1.826-.491-2.3-1.076-.355-.441-.481-.783-.525-1.411l-.044-.591-.606-.019-.614-.019v.373zm1.213 2.667c.2.18.473.386.614.454l.244.131-.355.236c-.377.255-.813.628-.991.858-.111.137-.111.137-.414-.199-.17-.18-.466-.442-.658-.572l-.414-.274c-.029-.025.126-.162.348-.305s.547-.416.717-.609l.318-.342.118.143c.059.081.274.298.473.479z"/></svg>