<svg xmlns="http://www.w3.org/2000/svg" width="37" height="32" fill="#000" xmlns:v="https://vecta.io/nano"><path d="M12.962.192l-.23.186.023 2.476.023 2.483.215.154.215.154h3.908 3.908l.215-.154.215-.154V2.823.308l-.215-.154L21.023 0h-3.915-3.923l-.223.192zm7.301 2.63v1.796h-3.148-3.148V2.823 1.027h3.148 3.148v1.796zm-12.629.546c-.123.096-.192.231-.192.353 0 .231.292.513.53.513.407 0 .384.083-.092.334-.691.372-.821.488-.821.738 0 .257.284.533.553.533.1 0 .415-.128.714-.289.292-.154.545-.269.56-.257s-.015.128-.069.257c-.084.199-.084.257.015.404.269.404.868.398 1.09-.006a29.55 29.55 0 0 0 .929-1.822c.069-.186-.138-.52-.361-.565a48 48 0 0 0-2.495-.353c-.1 0-.261.071-.361.16zm16.184.302c-.23.096-.376.404-.284.616.054.128.269.263.875.533l1.42.693c.507.276.653.327.845.302.476-.077.676-.59.33-.853-.453-.346-2.618-1.373-2.887-1.36a.98.98 0 0 0-.299.071zM4.571 6.878c-.86.757-1.582 1.578-1.582 1.803 0 .25.107.398.369.488.338.115.568 0 1.052-.533a14.45 14.45 0 0 1 .96-.956c.292-.263.568-.552.607-.648.1-.205.008-.436-.238-.577-.345-.205-.522-.141-1.167.423zm23.823-.34c-.361.302-.299.449.43 1.104.261.231.691.661.952.95.53.577.752.699 1.098.577.253-.09.369-.237.369-.481 0-.212-.806-1.123-1.635-1.854-.637-.558-.837-.603-1.213-.295zM15.48 8.353c-.069.045-.261.353-.422.686l-.292.603-.491.141a10.84 10.84 0 0 0-.96.334l-.461.199-.653-.25c-.998-.372-.937-.391-2.165.635s-1.213.995-.791 1.803l.269.552c0 .026-.115.25-.261.5l-.384.796-.131.334-.737.237c-.967.314-.96.302-.929 1.822.023.994.038 1.155.161 1.27.077.071.453.225.829.346l.683.212.123.321a9 9 0 0 0 .399.821l.269.494-.284.532c-.43.808-.445.77.791 1.803.875.725 1.113.892 1.29.892.115 0 .507-.109.86-.237l.653-.237.653.25.975.334c.307.077.322.096.568.654.376.841.33.821 2.081.821 1.72 0 1.689.013 2.065-.84.246-.539.261-.558.568-.635a9.87 9.87 0 0 0 .975-.334l.653-.25.714.263c.468.167.775.244.883.218.084-.019.637-.43 1.221-.911.852-.712 1.052-.911 1.052-1.059 0-.096-.123-.423-.284-.719l-.276-.539.269-.5a8.87 8.87 0 0 0 .399-.821l.123-.321.683-.212c.376-.122.752-.276.829-.346.123-.109.138-.269.161-1.232.023-.789 0-1.168-.077-1.347-.092-.237-.138-.27-.852-.513l-.752-.263-.176-.417a5.89 5.89 0 0 0-.376-.757c-.115-.193-.207-.379-.207-.43 0-.045.123-.302.269-.571.422-.783.438-.757-.791-1.784s-1.167-1.007-2.165-.635l-.653.25-.461-.199-.96-.334-.499-.141-.292-.603c-.154-.334-.345-.642-.415-.686-.092-.058-.553-.077-1.635-.077l-1.635.077zm2.726 1.463c.123.263.276.533.346.59.061.058.391.18.729.27a13.38 13.38 0 0 1 1.328.468l.722.302.653-.237.714-.237c.031 0 .323.218.645.488l.591.494-.261.481c-.146.263-.261.558-.261.661 0 .096.138.398.307.661a7.87 7.87 0 0 1 .507 1.027c.108.302.261.59.338.648.069.058.392.186.699.282l.568.18.023.738.023.731-.653.205c-.353.115-.676.244-.722.289-.038.038-.154.282-.238.539a7.68 7.68 0 0 1-.507 1.033c-.192.321-.345.661-.345.757 0 .103.123.404.261.667l.261.481-.599.507-.591.5-.614-.231c-.338-.128-.691-.231-.775-.231s-.461.128-.837.282c-.369.16-.929.346-1.236.424s-.622.186-.699.25c-.077.058-.253.334-.376.616l-.23.513h-.86-.86l-.253-.539c-.138-.295-.284-.558-.33-.597-.038-.032-.43-.16-.867-.282-.438-.128-1.013-.327-1.275-.449s-.545-.218-.637-.218-.445.103-.791.231l-.622.225-.591-.501-.599-.5.261-.5c.146-.276.269-.571.269-.661 0-.083-.154-.411-.338-.718a7.99 7.99 0 0 1-.507-1.02c-.092-.25-.207-.501-.253-.558-.054-.058-.384-.199-.745-.314l-.653-.212-.023-.712-.023-.706.645-.205c.361-.109.699-.25.768-.314.069-.058.215-.353.322-.654.115-.301.338-.757.507-1.014.161-.263.299-.552.299-.654 0-.096-.115-.391-.261-.654l-.261-.481.599-.5.607-.507.653.237.729.237c.046 0 .384-.128.752-.289a11.17 11.17 0 0 1 1.298-.455c.345-.083.676-.205.745-.27.061-.058.207-.308.315-.545l.246-.5c.023-.038.399-.051.891-.045l.845.019.23.481zm-1.743 2.631a5.21 5.21 0 0 0-2.933 1.251c-.745.629-1.167 1.29-1.374 2.149-.637 2.663 1.958 5.146 5.221 4.985 2.196-.103 4.046-1.354 4.622-3.125a3.93 3.93 0 0 0-.038-2.245c-.53-1.456-1.896-2.56-3.601-2.913a6.59 6.59 0 0 0-1.896-.103zm1.727 1.136c1.827.417 3.063 2.098 2.672 3.638a3.01 3.01 0 0 1-1.059 1.649c-1.482 1.257-3.839 1.27-5.359.038-1.505-1.226-1.528-3.266-.046-4.51 1.013-.847 2.372-1.142 3.793-.815zM1.868 10.355c-.184.071-.284.186-.484.59-.353.687-.852 1.931-.852 2.111 0 .257.284.481.607.481.392 0 .507-.122.775-.847l.537-1.232c.322-.642.338-.84.092-1.02-.207-.147-.422-.173-.676-.083zm30.019-.026c-.2.064-.415.308-.415.456 0 .064.107.308.238.552.13.237.368.783.537 1.206.169.417.361.815.43.879.2.186.668.154.86-.051.092-.096.161-.231.161-.308 0-.193-.63-1.726-.914-2.233-.192-.34-.292-.436-.484-.494l-.246-.064c-.008 0-.085.026-.169.058zM.233 15.071c-.223.186-.253.417-.223 1.758l.023 1.213.215.154c.261.186.507.199.775.019l.2-.128v-1.444c0-1.354-.008-1.443-.154-1.565-.2-.167-.637-.173-.837-.006zm32.928.006c-.13.109-.154.212-.154.77v.648l-.23-.225c-.13-.115-.315-.237-.422-.257-.223-.045-.607.096-.683.25-.123.282-.031.462.614 1.155.967 1.039.99 1.059 1.29 1.059.322 0 .415-.07 1.175-.866.983-1.033 1.006-1.084.706-1.405-.23-.244-.637-.231-.967.038l-.253.205V16c0-.539-.115-.898-.307-.988-.238-.103-.599-.077-.768.064zm-1.474 3.895c-.261.244-4.514 6.486-4.514 6.621 0 .083.1.231.223.334l.23.186 4.537-.013 4.545-.019.146-.154a.58.58 0 0 0 .146-.334c0-.128-.699-1.193-2.157-3.311l-2.319-3.279c-.2-.18-.668-.192-.837-.032zm2.05 3.76l1.551 2.329c-.015.013-1.466.019-3.224.013l-3.194-.019 1.551-2.245 1.704-2.393c.008.013.737 1.052 1.612 2.316zM.878 19.774c-.215.103-.338.25-.345.398-.008.398.914 2.432 1.205 2.65.23.18.583.192.791.019.261-.218.253-.385-.023-.93-.146-.282-.384-.834-.545-1.219-.315-.796-.33-.821-.56-.924a.52.52 0 0 0-.522.006zm5.028 3.9c-1.259.16-2.464.847-3.109 1.771-.714 1.02-.752 2.361-.092 3.484.307.533 1.144 1.245 1.789 1.527 1.689.744 3.77.494 5.098-.622 2.641-2.207.99-5.941-2.726-6.178-.292-.019-.729-.006-.96.019zm1.152 1.027c1.843.295 2.956 1.745 2.495 3.24-.614 1.963-3.616 2.566-5.282 1.059-.599-.539-.775-.943-.783-1.764 0-.59.023-.674.246-1.059.43-.738 1.236-1.277 2.173-1.45a2.5 2.5 0 0 1 1.152-.026zm18.58 3.15l-1.32.642c-.614.257-.829.436-.829.686 0 .218.33.462.622.462.399 0 2.818-1.142 2.986-1.411.223-.346-.061-.77-.507-.77-.138.006-.499.154-.952.391zm-11.977.994c-1.505.5-1.597.539-1.689.738a.32.32 0 0 0-.008.359c.161.295 1.459 1.796 1.589 1.841.246.077.507.032.683-.122.238-.192.246-.468.031-.699-.092-.096-.154-.18-.138-.192s.361.019.76.064c.821.103 1.006.083 1.228-.115.392-.353.061-.783-.66-.853l-.76-.096-.307-.045.33-.116c.177-.058.361-.167.399-.231.123-.192.084-.5-.077-.635-.223-.186-.614-.154-1.382.103zm7.063.738l-1.459.224c-.484.051-.96.141-1.052.192-.353.186-.322.667.046.828.246.103.891.064 2.119-.135 1.159-.186 1.42-.27 1.528-.481.177-.346 0-.654-.415-.718-.107-.019-.453.019-.768.09z"/></svg>