<svg xmlns="http://www.w3.org/2000/svg" width="37" height="32" fill="#000" xmlns:v="https://vecta.io/nano"><path d="M7.905.093c-.241.106-.316.224-.424.683a1.99 1.99 0 0 1-.889 1.267c-.416.273-1.139.522-1.546.522-.341 0-.748.118-.84.248-.108.149-.108.41 0 .553.091.137.416.236.939.28 1.222.112 2.203.882 2.352 1.845.042.273.108.404.266.522a.7.7 0 0 0 1.139-.441c.216-1.205 1.039-1.789 2.793-1.982.482-.056.682-.298.549-.671-.066-.193-.465-.354-.873-.354-.648 0-1.604-.435-2.02-.919-.258-.304-.357-.528-.449-1.031C8.811.13 8.37-.106 7.904.093zm.84 2.578l.574.422-.557.416-.565.416-.54-.41-.54-.416.499-.367c.274-.205.499-.391.499-.422 0-.093.042-.068.632.36zM20.25.211a4.75 4.75 0 0 0 .05.528l.05.317 1.43.037 2.261.162c3.042.453 5.794 1.628 7.872 3.342 2.461 2.031 3.716 4.479 3.716 7.2-.008 2.771-1.239 5.193-3.674 7.212-.765.634-1.604 1.186-2.885 1.876-.465.255-1.056.634-1.313.839-.524.422-1.388 1.379-1.53 1.696l-.091.205h-4.88-4.879l-.225-.348c-.657-1-1.471-1.696-2.918-2.504-1.92-1.069-2.926-1.826-3.949-2.957-1.471-1.634-2.278-3.472-2.402-5.467l-.058-.87-.69-.019-.682-.019v.404c0 1.1.333 2.597.823 3.702 1.056 2.354 2.959 4.28 5.827 5.877 1.197.665 2.136 1.367 2.519 1.882l.233.317h-.914-.923v.497.497h1.197 1.197l.133.429c.2.665.233.627-.532.627h-.665v.497.497h.707.707v.863c0 1.075.042 1.137.848 1.186l.524.031.05.342c.258 1.802 2.702 3.087 5.004 2.64.998-.193 1.879-.64 2.419-1.23.358-.391.715-1.075.715-1.379 0-.366.05-.404.582-.404.424 0 .507-.019.657-.162.158-.149.175-.248.175-1.025v-.863h.707.706v-.497-.497h-.673-.673l.058-.298c.025-.162.091-.398.133-.528l.083-.23h1.197 1.205v-.497-.497h-.914c-.499 0-.914-.019-.914-.037 0-.106.806-.926 1.189-1.211.241-.174.939-.603 1.554-.944 3.525-1.969 5.628-4.46 6.417-7.61.241-.963.258-2.901.033-3.802-.216-.888-.515-1.721-.831-2.342-1.729-3.392-5.345-5.97-9.884-7.063C24.622.255 23.3.087 21.604.037L20.25 0v.211zm5.337 24.438c.025.019.017.155-.025.298l-.116.491-.05.236h-4.148-4.156l-.033-.143a3.59 3.59 0 0 1-.091-.385l-.1-.391-.042-.137h4.356l4.406.031zm-.2 2.559l.025.516h-4.123-4.115v-.528-.528l4.098.012 4.09.019.025.509zm-1.43 1.802c-.116.652-.707 1.267-1.513 1.572-.349.13-.524.155-1.197.155s-.848-.025-1.18-.149c-.815-.311-1.396-.913-1.521-1.578l-.058-.292h2.76 2.768l-.058.292zM17.273 2.628a4.61 4.61 0 0 0-.781.23c-.382.155-.574.292-1.047.752-.125.124-.175.137-.374.081-.308-.087-.997-.087-1.421.006-.465.099-1.147.441-1.43.714-.457.447-.64 1.068-.499 1.671l.058.255-.441.186c-.574.248-1.139.702-1.438 1.168-.333.522-.382 1.261-.133 1.826.1.217.175.398.158.404-.017.012-.2.087-.407.18-.474.205-.79.466-1.047.895-.407.659-.316 1.361.249 1.982.241.261.848.646 1.147.721.058.012.033.149-.083.404-.308.677-.191 1.491.291 2.106.258.329.906.783 1.355.957.332.124.349.143.291.329-.316 1.081.524 2.137 1.953 2.447.432.093 1.189.087 1.513-.012.1-.025.216.05.424.267 1.397 1.447 4.439.919 4.888-.851.133-.534.108-14.654-.025-15.145-.299-1.068-1.771-1.789-3.2-1.572zM18.57 3.79c.116.062.291.199.382.292.175.168.175.205.2 7.604l-.067 7.666c-.108.279-.565.59-.956.646-.607.081-1.222-.13-1.496-.528-.1-.155-.091-.205.175-.59.175-.267.283-.516.283-.665v-.242h-.657-.657l-.05.217a.98.98 0 0 1-.274.404c-.923.826-2.668.217-2.402-.839.091-.367.682-.777 1.13-.777.158 0 .166-.037.166-.528 0-.472-.017-.528-.15-.528a3.89 3.89 0 0 0-1.28.342l-.332.168-.466-.18c-1.53-.578-1.538-2.125-.017-2.709 1.189-.46 2.627.062 2.909 1.056l.091.329h.673.673l-.05-.348c-.025-.186-.158-.522-.299-.739-.831-1.329-2.884-1.87-4.614-1.211-.582.224-.798.23-1.214.056-.599-.248-.831-.857-.532-1.336.266-.422 1.047-.671 1.438-.466.881.466 2.278.528 3.333.149.956-.348 1.754-1.18 1.879-1.963l.058-.354h-.682-.673l-.05.248c-.083.391-.515.87-.964 1.075-.308.143-.524.193-.956.211-.507.025-.615.012-1.022-.149-1.521-.596-1.513-2.143.017-2.708l.466-.18.332.168c.299.143 1.047.342 1.33.342.075 0 .1-.149.1-.528 0-.491-.008-.528-.166-.528-.449 0-1.039-.41-1.13-.777-.133-.528.341-1.1 1.006-1.211.698-.118 1.463.217 1.638.721l.1.273h.648.648v-.242c0-.149-.108-.398-.283-.658-.208-.311-.266-.46-.216-.553.083-.168.482-.447.748-.528.308-.099.973-.043 1.23.099zm5.603-1.162c-1.097.168-1.962.832-2.178 1.671-.116.46-.116 14.586 0 15.046.449 1.764 3.483 2.305 4.871.863.266-.279.324-.304.515-.261.125.025.491.044.806.044 1.696-.006 2.943-1.193 2.594-2.46-.058-.224-.058-.23.374-.416.574-.242 1.139-.696 1.438-1.162.333-.516.382-1.317.133-1.857-.1-.205-.166-.373-.158-.379.017-.006.2-.081.407-.174.474-.205.79-.466 1.047-.895.599-.969.075-2.137-1.172-2.609-.141-.05-.266-.106-.283-.112-.017-.012.058-.193.158-.41a2.09 2.09 0 0 0-.108-1.808c-.274-.447-.889-.938-1.463-1.186-.416-.174-.441-.193-.382-.379.249-.839-.2-1.683-1.139-2.162-.657-.335-1.388-.429-2.328-.286-.075.012-.283-.124-.499-.323-.64-.584-1.712-.882-2.635-.745zm1.056 1.093c.2.056.416.193.557.342l.224.242-.266.373c-.15.205-.291.509-.316.683l-.05.311h.665.657l.1-.273c.175-.491.939-.839 1.604-.727.432.075.707.242.914.553.216.323.183.745-.067 1-.224.224-.673.441-.906.441-.191 0-.2.012-.2.528 0 .379.025.528.108.528.274 0 1.022-.199 1.313-.342l.332-.162.391.13c.989.329 1.446 1.05 1.147 1.808-.166.441-.524.752-1.097.963-.391.143-.524.162-.973.137-1.047-.062-1.679-.516-1.92-1.373-.05-.168-.058-.168-.715-.168h-.665v.168c0 .534.432 1.218 1.031 1.659 1.064.789 2.569.963 3.948.454.607-.224.831-.224 1.264-.012.956.466.648 1.677-.457 1.814-.208.025-.416-.019-.806-.162-1.347-.491-2.776-.348-3.857.379-.623.422-1.114 1.193-1.122 1.739v.174h.665c.732 0 .648.043.79-.46.025-.081.158-.28.308-.447.931-1.025 3.067-.783 3.599.41.332.752-.141 1.534-1.139 1.864l-.391.131-.332-.162c-.324-.168-.989-.342-1.272-.342-.133 0-.15.056-.15.528 0 .491.008.528.166.528.258 0 .615.155.856.373.54.478.316 1.23-.457 1.528a2.03 2.03 0 0 1-1.214 0c-.324-.124-.665-.453-.732-.708l-.05-.199h-.673-.665l.05.317a1.82 1.82 0 0 0 .308.652c.291.391.258.516-.2.82a1.63 1.63 0 0 1-1.696.037c-.549-.317-.515.162-.515-7.97l.091-7.566c.266-.534 1.047-.77 1.812-.54zM3.682 5.249c-.166.099-.308.373-.308.609 0 .317-.341.882-.715 1.18-.441.354-.956.553-1.679.646-.308.037-.615.099-.69.13-.366.168-.391.64-.05.808.1.05.441.118.756.155.732.087 1.164.248 1.646.634.407.317.732.839.732 1.174 0 .472.474.814.939.683.299-.087.399-.217.474-.621.15-.814.823-1.491 1.712-1.739.249-.075.54-.13.64-.13.615 0 1.056-.236 1.056-.565 0-.298-.233-.429-.931-.522-1.338-.174-2.286-.832-2.436-1.696-.083-.478-.125-.572-.291-.696a.99.99 0 0 0-.856-.05zm.956 2.566l.557.404-.557.422-.549.416-.565-.422-.565-.429.233-.137c.125-.068.374-.248.549-.391l.333-.267a10.47 10.47 0 0 1 .565.404z"/></svg>