<svg xmlns="http://www.w3.org/2000/svg" width="37" height="32" fill="#000" xmlns:v="https://vecta.io/nano"><path d="M8.336.064c-.887.18-1.7.77-2.121 1.534-.251.456-.266.513-.259 1.123 0 .488.044.732.163 1.007l.155.372H4.493l-2.084.077c-.406.103-1.02.635-1.138.988-.067.199-.089 2.085-.089 7.867v7.598l-.222.186-.222.186.48.424c.414.366.48.449.48.654 0 .385-.244.501-1.042.501H0v2.053 2.053h.658c.805 0 1.042.116 1.042.507 0 .205-.059.289-.48.648l-.48.417 1.677 1.457 1.685 1.463.48-.417c.421-.359.517-.417.754-.417.443 0 .576.212.576.905v.571h2.365 2.365v-.571c0-.693.133-.905.576-.905.236 0 .333.058.754.417l.48.417 1.685-1.463 1.677-1.457-.48-.417c-.421-.359-.48-.443-.48-.648 0-.186.044-.276.192-.372.192-.135.244-.135 5.875-.135h5.683l.015 2.092.022 2.085 5.173-3.889L37 23.068c.007-.006-.333-.231-.754-.494l-.776-.475V17.87l-.089-4.19-1.168.334c-1.337.379-1.951.436-2.476.231-.48-.186-.613-.295-.82-.68-.163-.289-.177-.411-.177-1.251s.015-.963.177-1.251c.207-.385.34-.494.82-.68.525-.205 1.138-.148 2.476.231l1.168.334c.126.045.133-5.397 0-5.782-.118-.353-.732-.886-1.138-.988-.214-.051-1.027-.077-2.668-.077H29.21l.177-.533c.355-1.033.067-2.053-.776-2.778-.724-.622-1.471-.828-2.852-.783-.85.026-.931.039-1.448.25-.724.295-1.205.712-1.544 1.341-.251.456-.266.513-.259 1.123 0 .488.044.732.163 1.007l.155.372H21.03c-1.847 0-2.099.026-2.498.27-.207.122-.207.122-.406 0-.421-.25-.636-.27-3.089-.27h-2.379l.177-.533c.148-.43.177-.622.148-1.027-.088-1.18-1.1-2.213-2.423-2.476-.392-.083-1.84-.077-2.224 0zm2.195 1.065c.717.212 1.293.918 1.293 1.579 0 .186-.502 1.675-.791 2.336-.03.064.628.083 3.148.083h3.192l.177.16.185.154v2.772l.096 2.734 1.16-.334c1.338-.379 1.951-.436 2.476-.231.48.186.613.295.82.68.163.289.177.411.177 1.251s-.015.963-.177 1.251c-.207.385-.34.494-.82.68-.525.205-1.138.148-2.476-.231l-1.16-.334c-.074-.026-.096.68-.096 3.407v3.439h-1.234-1.241l-1.404-1.219-1.404-1.219-.48.417c-.414.366-.51.417-.746.417-.451 0-.584-.205-.584-.905v-.571H8.276 5.912v.571c0 .7-.133.905-.584.905-.236 0-.333-.051-.746-.417l-.48-.417-.865.751-.872.757v-7.078-7.078l.185-.154.177-.16h2.601l2.557-.083c-.288-.661-.791-2.15-.791-2.336 0-.648.576-1.367 1.264-1.579.458-.141 1.7-.141 2.173 0zm16.553 0c.717.212 1.293.918 1.293 1.579 0 .186-.503 1.675-.791 2.336-.03.064.628.083 3.148.083h3.192l.177.16.185.154v2.047 2.047l-.495-.128c-.355-.09-.739-.128-1.315-.135-.739-.006-.85.013-1.234.167-.591.237-1.123.687-1.412 1.2l-.236.424v1.251c0 1.226.007 1.258.2 1.617.273.513.791.975 1.382 1.226.465.199.525.205 1.301.199.576-.006.961-.045 1.315-.135l.495-.128v3.106L34.2 21.26l-3.806-2.413-3.747-2.361c-.022 0-.044.911-.044 2.021v2.021H22.76h-3.843v-2.721-2.714l.502.128c.347.09.732.128 1.308.135.776.006.835 0 1.301-.199.591-.25 1.108-.712 1.382-1.226.192-.359.2-.391.2-1.617 0-1.239 0-1.258-.207-1.643-.266-.494-.835-.988-1.419-1.226-.407-.167-.51-.18-1.256-.173-.576.006-.961.045-1.308.135l-.502.128V7.488 5.441l.185-.154.177-.16h2.601l2.557-.083c-.288-.661-.791-2.15-.791-2.336 0-.648.576-1.367 1.264-1.579.458-.141 1.7-.141 2.173 0zM9.496 18.73c.192.975 1.574 1.527 2.586 1.033l.369-.18.82.706.82.699-.207.327c-.443.699-.207 1.579.54 2.015.192.109.488.218.65.244l.296.045v1.014 1.014l-.273.045c-.872.141-1.426.732-1.426 1.521a1.14 1.14 0 0 0 .214.738l.207.327-.82.699-.82.706-.369-.18a1.55 1.55 0 0 0-.835-.186c-.909 0-1.589.481-1.751 1.238l-.052.237H8.276 7.109l-.052-.257c-.03-.141-.155-.398-.281-.565-.502-.648-1.522-.853-2.306-.468l-.369.18-.82-.706-.82-.699.207-.327c.443-.699.207-1.578-.539-2.015a2.38 2.38 0 0 0-.65-.244l-.296-.045v-1.014-1.014l.296-.045c1.131-.167 1.759-1.36 1.19-2.259l-.207-.327.82-.706.82-.706.369.186c.998.5 2.394-.058 2.586-1.033l.052-.257h1.168 1.168l.052.257zm22.339 2.304l3.141 2.195c-.074.064-1.714 1.296-3.643 2.746l-3.51 2.644-.022-1.482-.015-1.476H22.17h-5.616v-1.54-1.54h-.658c-.547 0-.68-.019-.85-.135-.251-.173-.266-.526-.03-.744l.155-.148h6.311 6.303v-1.546-1.54l.392.244 3.658 2.323zM4.729 10.344c-.14.038-.429.218-.628.398-.525.449-.672.93-.466 1.534.118.353.732.886 1.138.988a1.78 1.78 0 0 0 1.766-.404c.724-.622.746-1.424.059-2.085-.48-.462-1.168-.622-1.87-.43zm.998 1.104c.369.314.111.866-.406.866-.303 0-.591-.25-.591-.513s.288-.513.591-.513a.62.62 0 0 1 .406.16zm3.732-1.104c-.14.038-.429.218-.628.398-.525.449-.672.93-.466 1.534.118.353.732.886 1.138.988a1.78 1.78 0 0 0 1.766-.404c.724-.622.746-1.424.059-2.085-.48-.462-1.168-.622-1.87-.43zm.998 1.104c.37.314.111.866-.406.866-.303 0-.591-.25-.591-.513s.288-.513.591-.513a.62.62 0 0 1 .406.16zm3.731-1.105c-.362.103-.983.654-1.094.982-.207.603-.059 1.084.466 1.534.377.334.754.481 1.219.481s.842-.148 1.219-.481c.724-.622.746-1.424.059-2.085-.48-.462-1.168-.622-1.87-.43zm.998 1.104c.369.314.111.866-.406.866-.303 0-.591-.25-.591-.513s.288-.513.591-.513a.62.62 0 0 1 .406.16zm-7.937 9.176c-.813.154-1.67.571-2.298 1.123-1.847 1.604-1.862 4.164-.037 5.743a4.89 4.89 0 0 0 3.096 1.232c2.158.103 4.138-1.091 4.796-2.9.126-.353.163-.603.163-1.187s-.037-.834-.163-1.187c-.746-2.041-3.163-3.273-5.557-2.823zm1.877 1.027c1.892.43 3.067 2.111 2.586 3.709-.333 1.11-1.315 1.97-2.586 2.259-1.847.417-3.791-.603-4.286-2.246-.658-2.195 1.759-4.293 4.286-3.722zm-1.404.988c-.68.154-1.278.577-1.589 1.129-.14.263-.177.424-.177.866-.007.5.015.578.244.95.281.449.517.642 1.071.898.318.141.473.167 1.005.167s.687-.026 1.005-.167c.554-.257.791-.449 1.071-.898.229-.372.251-.449.244-.95 0-.462-.03-.597-.192-.873-.288-.481-.517-.687-1.012-.918-.48-.218-1.212-.314-1.67-.205zm1.02 1.059c.761.276.946 1.136.355 1.649a1.23 1.23 0 0 1-1.64 0c-.916-.789.096-2.085 1.286-1.649z"/></svg>