<svg width="17" height="17" viewBox="0 0 17 17" fill="none" xmlns="http://www.w3.org/2000/svg">
<path d="M0.503211 16.5L1.58481 12.5256C0.872121 11.3039 0.497687 9.91439 0.500011 8.49999C0.500011 4.0816 4.08161 0.5 8.50001 0.5C12.9184 0.5 16.5 4.0816 16.5 8.49999C16.5 12.9184 12.9184 16.5 8.50001 16.5C7.08623 16.5023 5.69733 16.1281 4.47601 15.416L0.503211 16.5ZM5.61281 4.7464C5.5095 4.75281 5.40855 4.78002 5.31601 4.8264C5.22922 4.87554 5.15 4.93698 5.08081 5.0088C4.98481 5.0992 4.93041 5.1776 4.87201 5.2536C4.57634 5.63839 4.4173 6.11073 4.42001 6.596C4.42161 6.988 4.52401 7.3696 4.68401 7.7264C5.01121 8.44799 5.54961 9.21199 6.26081 9.91999C6.43201 10.0904 6.59921 10.2616 6.77921 10.4208C7.66192 11.198 8.71381 11.7584 9.8512 12.0576L10.3064 12.1272C10.4544 12.1352 10.6024 12.124 10.7512 12.1168C10.9842 12.1048 11.2117 12.0417 11.4176 11.932C11.5224 11.878 11.6246 11.8193 11.724 11.756C11.724 11.756 11.7584 11.7336 11.824 11.684C11.932 11.604 11.9984 11.5472 12.088 11.4536C12.1544 11.3848 12.212 11.304 12.256 11.212C12.3184 11.0816 12.3808 10.8328 12.4064 10.6256C12.4256 10.4672 12.42 10.3808 12.4176 10.3272C12.4144 10.2416 12.3432 10.1528 12.2656 10.1152L11.8 9.90639C11.8 9.90639 11.104 9.60319 10.6792 9.40959C10.6344 9.39007 10.5864 9.37895 10.5376 9.37679C10.4829 9.37117 10.4276 9.37733 10.3754 9.39486C10.3232 9.41238 10.2754 9.44086 10.2352 9.47839V9.47679C10.2312 9.47679 10.1776 9.52239 9.5992 10.2232C9.56601 10.2678 9.52028 10.3015 9.46785 10.32C9.41542 10.3386 9.35866 10.3411 9.3048 10.3272C9.25268 10.3133 9.20162 10.2956 9.152 10.2744C9.0528 10.2328 9.0184 10.2168 8.9504 10.1872L8.9464 10.1856C8.48873 9.98577 8.06498 9.71587 7.69041 9.38559C7.58961 9.29759 7.49601 9.20159 7.40001 9.10879C7.08527 8.80738 6.81098 8.4664 6.58401 8.0944L6.53681 8.01839C6.5029 7.96733 6.47549 7.91224 6.45521 7.8544C6.42481 7.7368 6.50401 7.6424 6.50401 7.6424C6.50401 7.6424 6.69841 7.4296 6.78881 7.3144C6.86408 7.21865 6.93431 7.11905 6.99921 7.016C7.09361 6.864 7.12321 6.708 7.07361 6.5872C6.84961 6.04 6.61761 5.4952 6.37921 4.9544C6.33201 4.8472 6.19201 4.7704 6.06481 4.7552C6.02161 4.7504 5.97841 4.7456 5.93521 4.7424C5.82777 4.73706 5.72011 4.73893 5.61281 4.7464Z" fill="black"/>
</svg>
