<svg width="20" height="18" viewBox="0 0 20 18" fill="none" xmlns="http://www.w3.org/2000/svg">
<path d="M9.00796 0.0569062C7.14935 0.341121 5.51511 1.33587 4.43435 2.83922C4.13891 3.25058 3.67145 4.17054 3.51439 4.64922C3.37976 5.06432 3.25635 5.62153 3.22643 5.96932L3.20025 6.22736L2.89734 6.25354C2.48598 6.28346 2.2055 6.36199 1.8278 6.54523C1.57724 6.6649 1.44635 6.76587 1.18831 7.02017C0.915317 7.28943 0.836784 7.39788 0.694676 7.69705C0.42542 8.25052 0.399243 8.44872 0.414201 9.79875C0.42916 10.9094 0.42916 10.9393 0.530131 11.231C0.754511 11.9079 1.21823 12.4539 1.81658 12.7531C2.30647 12.9999 2.61687 13.0635 3.32366 13.0635C3.98185 13.0635 4.13891 13.0186 4.27728 12.7793C4.34833 12.6559 4.35207 12.5661 4.37451 9.34251C4.39695 5.65519 4.38199 5.84591 4.66994 4.98579C5.28699 3.13091 6.87261 1.72854 8.83968 1.29848C9.27722 1.20125 10.2121 1.16385 10.6721 1.22368C11.966 1.39571 13.0767 1.94918 13.9892 2.88036C14.7409 3.64325 15.2308 4.56321 15.4888 5.68511C15.5636 6.02168 15.5673 6.14883 15.586 9.34251C15.6122 13.0261 15.5935 12.798 15.8628 12.9662C15.9787 13.0373 16.046 13.0448 16.6444 13.0448C17.1717 13.0448 17.3549 13.0298 17.5868 12.97C18.4506 12.7493 19.1387 12.1024 19.4304 11.231C19.5314 10.9393 19.5314 10.9094 19.5463 9.79875C19.5613 8.44872 19.5351 8.24678 19.2659 7.69705C19.12 7.40162 19.0378 7.28943 18.7722 7.02017C18.2898 6.54149 17.77 6.30589 17.0632 6.25354L16.7603 6.22736L16.7341 5.96932C16.6705 5.27001 16.4424 4.53329 16.0572 3.7517C15.7281 3.09352 15.4065 2.62606 14.9204 2.11746C13.8321 0.973125 12.4746 0.273807 10.9115 0.0494269C10.4216 -0.0178872 9.47916 -0.0178872 9.00796 0.0569062Z" fill="black"/>
<path d="M2.96091 13.9164C2.99457 14.1632 3.18903 14.698 3.35732 15.0121C3.89957 16.0181 4.82701 16.7473 5.93395 17.0353C6.20695 17.1063 6.42759 17.1325 6.83895 17.1475L7.38494 17.1699V16.8259L7.38868 16.4856H7.01098C6.53978 16.4856 6.23313 16.4369 5.84046 16.3023C4.81953 15.9508 3.99306 15.0869 3.69763 14.0585L3.60788 13.7556H3.27505H2.93848L2.96091 13.9164Z" fill="black"/>
<path d="M8.93318 15.6739C8.40215 15.8235 8.05062 16.2985 8.0581 16.8631C8.06558 17.3044 8.32736 17.712 8.73872 17.914C8.91075 17.9963 8.94066 18 9.98029 18C11.0199 18 11.0498 17.9963 11.2219 17.914C11.9399 17.5587 12.1306 16.6275 11.6033 16.0404C11.5061 15.932 11.3453 15.8086 11.2219 15.7487L11.0087 15.644L10.0551 15.6365C9.3782 15.629 9.05285 15.6403 8.93318 15.6739Z" fill="black"/>
</svg>
