<svg width="18" height="18" viewBox="0 0 18 18" fill="none" xmlns="http://www.w3.org/2000/svg">
<path d="M2.46863 0.0706418C1.77945 0.25415 1.24116 0.804675 1.05765 1.50201C0.963856 1.85271 0.963856 15.1224 1.05765 15.4731C1.24116 16.1786 1.78353 16.725 2.48494 16.9086C2.69291 16.9616 3.20266 16.9697 6.08578 16.9697C9.27067 16.9697 9.44602 16.9656 9.41748 16.8963C9.14425 16.1786 9.13202 15.31 9.39709 14.6045C9.54797 14.1967 13.0387 7.06027 13.2181 6.78297C13.6096 6.19574 14.3355 5.77164 15.0981 5.69008L15.3509 5.66153V3.70003C15.3509 2.08923 15.3387 1.69367 15.2897 1.50201C15.1062 0.79652 14.5639 0.250072 13.8625 0.0665639C13.5118 -0.0231514 2.81117 -0.0231514 2.46863 0.0706418ZM11.7868 4.02627C12.0029 4.18531 12.0682 4.3158 12.0682 4.57271C12.0682 4.82963 12.0029 4.96012 11.7868 5.11916C11.6767 5.2048 11.644 5.2048 7.61094 5.21703C4.83384 5.22519 3.49627 5.21703 3.39432 5.18441C2.98245 5.06615 2.82341 4.49931 3.10479 4.16084C3.31684 3.91208 3.08848 3.92024 7.57016 3.93247C11.644 3.94063 11.6767 3.94063 11.7868 4.02627ZM11.1343 6.63616C11.3504 6.79521 11.4157 6.9257 11.4157 7.18261C11.4157 7.43952 11.3504 7.57002 11.1343 7.72906C11.0242 7.8147 10.9875 7.8147 7.2847 7.82693C4.73597 7.83509 3.49627 7.82693 3.39432 7.79431C2.98245 7.67605 2.82341 7.10921 3.10479 6.77074C3.31684 6.52198 3.11702 6.53014 7.24392 6.54237C10.9875 6.55053 11.0242 6.55053 11.1343 6.63616ZM9.82935 9.24606C10.0455 9.4051 10.1107 9.5356 10.1107 9.79251C10.1107 10.0494 10.0455 10.1799 9.82935 10.339C9.71925 10.4246 9.67439 10.4246 6.63223 10.4368C4.54023 10.445 3.49627 10.4368 3.39432 10.4042C2.98245 10.2859 2.82341 9.71911 3.10479 9.38063C3.31684 9.13188 3.17411 9.14003 6.59145 9.15227C9.67847 9.16042 9.71925 9.16042 9.82935 9.24606ZM8.5244 11.856C8.74053 12.015 8.80578 12.1455 8.80578 12.4024C8.80578 12.6593 8.74053 12.7898 8.5244 12.9489C8.4143 13.0345 8.36536 13.0345 5.97975 13.0467C4.34449 13.0549 3.49627 13.0467 3.39432 13.0141C2.98245 12.8958 2.82341 12.329 3.10479 11.9905C3.31276 11.7459 3.23528 11.7499 5.93897 11.7622C8.36536 11.7703 8.4143 11.7703 8.5244 11.856Z" fill="black"/>
<path d="M14.9432 7.04418C14.6863 7.13798 14.4497 7.30925 14.3192 7.49684C14.2621 7.58247 13.4017 9.31153 12.4148 11.3342C11.1343 13.9563 10.6001 15.0941 10.5553 15.2898C10.4533 15.7221 10.4941 16.0035 10.804 16.9006C11.0976 17.7611 11.1914 17.9079 11.4851 17.9813C11.6808 18.0302 11.8276 17.9976 12.6473 17.7081C13.7279 17.3329 13.9033 17.1779 14.4253 16.1299C15.6772 13.626 17.7692 9.27075 17.8059 9.08724C17.8671 8.80586 17.8222 8.5408 17.6632 8.23087C17.4878 7.89648 17.3084 7.77006 16.4275 7.35003C15.7669 7.03603 15.6854 7.00748 15.4162 6.99117C15.2205 6.98301 15.0696 6.99933 14.9432 7.04418Z" fill="black"/>
</svg>
